<svg width="601" height="150" viewBox="0 0 601 150" fill="none" xmlns="http://www.w3.org/2000/svg">
<circle cx="75" cy="75" r="75" fill="#FF4F00"/>
<path d="M77.9621 36C90.0474 36 100 45.7943 100 57.8306V92.1694C100 104.206 90.0474 114 77.9621 114H71.9194C59.8341 114 50 104.206 50 92.1694V57.8306C50 45.7943 59.8341 36 71.9194 36H77.9621ZM90.4028 89.8094V60.1906C90.4028 52.0484 83.7678 45.4402 75.5924 45.4402H74.2891C66.1137 45.4402 59.4787 52.0484 59.4787 60.1906V89.8094C59.4787 97.9516 66.1137 104.56 74.2891 104.56H75.5924C83.7678 104.56 90.4028 97.9516 90.4028 89.8094Z" fill="white"/>
<path d="M90.0828 52.1828L96.8944 58.996L59.9172 95.9819L53.1056 89.1687L90.0828 52.1828Z" fill="white"/>
<path d="M175 46H223.087V54.9444H208.121C205.553 54.9444 203.516 56.9813 203.516 59.5495V104.537H194.571V59.5495C194.571 56.9813 192.535 54.9444 189.966 54.9444H175V46Z" fill="white"/>
<path d="M264.267 74.5159V76.7299C264.267 83.6375 258.688 88.3311 251.78 88.3311H231.943V91.165C231.943 94.0874 234.334 95.5929 237.257 95.5929H262.939V104.537H235.486C228.667 104.537 223.087 99.7552 223.087 92.8476V74.5159C223.087 67.6083 228.667 62.0291 235.486 62.0291H251.78C258.599 62.0291 264.267 67.6083 264.267 74.5159ZM231.943 76.2871V78.6782C231.943 79.121 232.209 79.3866 232.652 79.3866H250.098C252.932 79.3866 255.323 79.3866 255.323 76.4642V76.1985C255.323 73.2761 252.932 70.885 250.009 70.885H237.345C234.334 70.885 231.943 73.3647 231.943 76.2871Z" fill="white"/>
<path d="M296.137 62.1177V62.2062C303.044 62.2062 308.623 67.7854 308.623 74.6045V104.537H299.679V76.3757C299.679 73.4532 297.288 71.0621 294.365 71.0621H280.905C280.639 71.0621 280.373 71.3278 280.373 71.5935V104.537H271.517V64.4202C271.517 63.1804 272.491 62.1177 273.731 62.1177H296.137Z" fill="white"/>
<path d="M334.617 78.6782V78.7667C343.473 80.3608 354.543 82.3976 354.543 92.1391L354.455 92.8476V93.8217C354.455 100.729 348.875 104.537 341.968 104.537H327.356C320.802 104.537 315.312 99.3124 314.957 92.759V92.0505L315.577 91.8734L322.662 89.748L323.725 89.3938L323.813 90.545C323.902 93.3789 326.293 95.5929 329.127 95.5929H340.285C342.853 95.5929 345.067 95.5043 345.422 93.1133C345.422 90.1908 340.02 89.0395 334.263 87.7112C326.204 85.94 316.197 83.726 315.843 75.4015V74.5159C315.843 67.6083 321.422 62.0291 328.33 62.0291H340.639C347.281 62.0291 352.772 67.2541 353.038 73.9846V74.693L352.418 74.8701L345.245 76.6413L344.182 76.907V75.8443C344.005 73.099 341.614 70.885 338.868 70.885H330.012C327.444 70.885 325.496 72.2134 325.053 74.1617L324.965 74.693C324.61 76.907 329.481 77.7926 334.617 78.6782Z" fill="white"/>
<path d="M389.589 62.1177C396.408 62.1177 402.076 67.6969 402.076 74.6045V92.0505C402.076 98.8696 396.408 104.537 389.589 104.537H372.94C366.121 104.537 360.542 98.8696 360.542 92.0505V74.6045C360.542 67.6969 366.121 62.1177 372.94 62.1177H389.589ZM393.131 90.2794V76.2871C393.131 73.3647 390.74 70.9736 387.818 70.9736H374.711C371.789 70.9736 369.398 73.3647 369.398 76.2871V90.2794C369.398 93.2018 371.789 95.5929 374.711 95.5929H387.818C390.74 95.5929 393.131 93.2018 393.131 90.2794Z" fill="white"/>
<path d="M421.882 61.9406H433.838V70.885H423.654C420.731 70.885 418.34 73.2761 418.34 76.1985V104.537H409.484V74.4274C409.484 67.5198 415.063 61.9406 421.882 61.9406Z" fill="white"/>
<path d="M476.264 95.5929V104.537H436.052C434.812 104.537 433.838 103.475 433.838 102.235V96.2128L434.281 95.5929L464.22 55.6529C464.397 55.4758 464.308 55.2101 464.22 55.1215C464.22 55.033 464.131 54.8559 463.777 54.8559L433.838 54.9444V46H474.05C475.29 46 476.264 46.9741 476.264 48.214V53.5275C476.264 54.0588 476.087 54.5016 475.821 54.9444L446.413 94.7959C446.236 94.973 446.325 95.2387 446.325 95.3272C446.413 95.4158 446.502 95.5929 446.767 95.5929H476.264Z" fill="white"/>
<path d="M524.159 74.5159V76.7299C524.159 83.6375 518.58 88.3311 511.672 88.3311H491.835V91.165C491.835 94.0874 494.226 95.5929 497.149 95.5929H522.831V104.537H495.378C488.559 104.537 482.979 99.7552 482.979 92.8476V74.5159C482.979 67.6083 488.559 62.0291 495.378 62.0291H511.672C518.491 62.0291 524.159 67.6083 524.159 74.5159ZM491.835 76.2871V78.6782C491.835 79.121 492.101 79.3866 492.544 79.3866H509.99C512.824 79.3866 515.215 79.3866 515.215 76.4642V76.1985C515.215 73.2761 512.824 70.885 509.901 70.885H497.237C494.226 70.885 491.835 73.3647 491.835 76.2871Z" fill="white"/>
<path d="M543.453 61.9406H555.409V70.885H545.224C542.302 70.885 539.911 73.2761 539.911 76.1985V104.537H531.055V74.4274C531.055 67.5198 536.634 61.9406 543.453 61.9406Z" fill="white"/>
<path d="M588.441 62.1177C595.26 62.1177 600.928 67.6969 600.928 74.6045V92.0505C600.928 98.8696 595.26 104.537 588.441 104.537H571.792C564.973 104.537 559.394 98.8696 559.394 92.0505V74.6045C559.394 67.6969 564.973 62.1177 571.792 62.1177H588.441ZM591.983 90.2794V76.2871C591.983 73.3647 589.592 70.9736 586.67 70.9736H573.563C570.641 70.9736 568.25 73.3647 568.25 76.2871V90.2794C568.25 93.2018 570.641 95.5929 573.563 95.5929H586.67C589.592 95.5929 591.983 93.2018 591.983 90.2794Z" fill="white"/>
</svg>
