<svg width="833" height="200" viewBox="0 0 833 200" fill="none" xmlns="http://www.w3.org/2000/svg">
<circle cx="100" cy="100" r="100" fill="#FF4F00"/>
<path d="M136 113.106C136 120.187 135.186 126.479 133.557 131.981C131.928 137.433 129.586 142.018 126.532 145.737C123.478 149.507 119.737 152.36 115.309 154.296C110.88 156.232 105.815 157.2 100.115 157.2C94.4645 157.2 89.3998 156.257 84.9205 154.372C80.4411 152.436 76.649 149.558 73.544 145.737C70.439 142.018 68.0721 137.433 66.4433 131.981C64.8144 126.479 64 120.187 64 113.106V87.0467C64 79.9652 64.8144 73.6988 66.4433 68.2475C68.0721 62.7453 70.439 58.1092 73.544 54.3392C76.5981 50.5691 80.3393 47.7161 84.7678 45.7802C89.2471 43.7933 94.3118 42.7998 99.9618 42.7998C105.663 42.7998 110.727 43.7933 115.156 45.7802C119.635 47.7161 123.427 50.5691 126.532 54.3392C129.586 58.1092 131.928 62.7453 133.557 68.2475C135.186 73.6988 136 79.9652 136 87.0467V113.106ZM78.2015 110.278L121.493 77.0357C121.086 73.3676 120.348 70.1325 119.279 67.3305C118.261 64.4775 116.861 62.1085 115.08 60.2235C113.349 58.2875 111.211 56.8355 108.666 55.8675C106.172 54.8996 103.27 54.4156 99.9618 54.4156C96.6023 54.4156 93.6246 54.9505 91.0286 56.0204C88.4836 57.0393 86.3203 58.5422 84.5387 60.5291C82.4008 63.0255 80.7975 66.2606 79.7285 70.2344C78.7105 74.1573 78.2015 78.717 78.2015 83.9135V102.56C78.2015 103.834 78.2015 105.107 78.2015 106.381C78.2015 107.654 78.2015 108.954 78.2015 110.278ZM121.799 116.086V100.344C121.799 99.5795 121.799 98.1275 121.799 95.9878C121.799 93.7971 121.799 91.9885 121.799 90.562L78.5832 123.652C79.0414 127.371 79.8558 130.657 81.0265 133.51C82.1972 136.312 83.7243 138.63 85.6076 140.464C87.3383 142.196 89.4252 143.521 91.8685 144.438C94.3118 145.304 97.0604 145.737 100.115 145.737C103.321 145.737 106.172 145.253 108.666 144.285C111.16 143.317 113.273 141.916 115.003 140.082C117.345 137.585 119.05 134.325 120.119 130.3C121.239 126.275 121.799 121.537 121.799 116.086Z" fill="white"/>
<path d="M293.77 56.6875V142H279.18V56.6875H293.77ZM320.547 56.6875V68.4062H252.637V56.6875H320.547ZM349.115 143.172C344.427 143.172 340.189 142.41 336.4 140.887C332.65 139.324 329.447 137.156 326.791 134.383C324.173 131.609 322.162 128.348 320.755 124.598C319.349 120.848 318.646 116.805 318.646 112.469V110.125C318.646 105.164 319.369 100.672 320.814 96.6484C322.259 92.625 324.271 89.1875 326.849 86.3359C329.427 83.4453 332.474 81.2383 335.99 79.7148C339.505 78.1914 343.314 77.4297 347.416 77.4297C351.947 77.4297 355.912 78.1914 359.31 79.7148C362.709 81.2383 365.521 83.3867 367.748 86.1602C370.013 88.8945 371.693 92.1562 372.787 95.9453C373.92 99.7344 374.486 103.914 374.486 108.484V114.52H325.502V104.383H360.541V103.27C360.463 100.73 359.955 98.3477 359.017 96.1211C358.119 93.8945 356.732 92.0977 354.857 90.7305C352.982 89.3633 350.482 88.6797 347.357 88.6797C345.013 88.6797 342.923 89.1875 341.088 90.2031C339.291 91.1797 337.787 92.6055 336.576 94.4805C335.365 96.3555 334.427 98.6211 333.763 101.277C333.138 103.895 332.826 106.844 332.826 110.125V112.469C332.826 115.242 333.197 117.82 333.939 120.203C334.72 122.547 335.853 124.598 337.338 126.355C338.822 128.113 340.619 129.5 342.728 130.516C344.838 131.492 347.24 131.98 349.935 131.98C353.334 131.98 356.361 131.297 359.017 129.93C361.673 128.562 363.978 126.629 365.931 124.129L373.373 131.336C372.005 133.328 370.228 135.242 368.041 137.078C365.853 138.875 363.177 140.34 360.013 141.473C356.888 142.605 353.255 143.172 349.115 143.172ZM395.905 92.1367V142H381.784V78.6016H395.085L395.905 92.1367ZM393.386 107.957L388.816 107.898C388.855 103.406 389.48 99.2852 390.691 95.5352C391.941 91.7852 393.659 88.5625 395.847 85.8672C398.073 83.1719 400.73 81.1016 403.816 79.6562C406.902 78.1719 410.339 77.4297 414.128 77.4297C417.175 77.4297 419.929 77.8594 422.39 78.7188C424.89 79.5391 427.019 80.8867 428.777 82.7617C430.573 84.6367 431.941 87.0781 432.878 90.0859C433.816 93.0547 434.284 96.707 434.284 101.043V142H420.105V100.984C420.105 97.9375 419.655 95.5352 418.757 93.7773C417.898 91.9805 416.628 90.7109 414.948 89.9688C413.308 89.1875 411.257 88.7969 408.796 88.7969C406.374 88.7969 404.206 89.3047 402.292 90.3203C400.378 91.3359 398.757 92.7227 397.429 94.4805C396.14 96.2383 395.144 98.2695 394.441 100.574C393.738 102.879 393.386 105.34 393.386 107.957ZM480.665 124.832C480.665 123.426 480.313 122.156 479.61 121.023C478.907 119.852 477.559 118.797 475.567 117.859C473.614 116.922 470.723 116.062 466.895 115.281C463.536 114.539 460.45 113.66 457.637 112.645C454.864 111.59 452.481 110.32 450.489 108.836C448.497 107.352 446.954 105.594 445.86 103.562C444.766 101.531 444.22 99.1875 444.22 96.5312C444.22 93.9531 444.786 91.5117 445.919 89.207C447.052 86.9023 448.673 84.8711 450.782 83.1133C452.891 81.3555 455.45 79.9688 458.458 78.9531C461.505 77.9375 464.903 77.4297 468.653 77.4297C473.966 77.4297 478.516 78.3281 482.305 80.125C486.134 81.8828 489.063 84.2852 491.095 87.332C493.126 90.3398 494.141 93.7383 494.141 97.5273H480.02C480.02 95.8477 479.591 94.2852 478.731 92.8398C477.911 91.3555 476.661 90.1641 474.981 89.2656C473.302 88.3281 471.192 87.8594 468.653 87.8594C466.231 87.8594 464.22 88.25 462.618 89.0312C461.055 89.7734 459.884 90.75 459.102 91.9609C458.36 93.1719 457.989 94.5 457.989 95.9453C457.989 97 458.184 97.957 458.575 98.8164C459.005 99.6367 459.708 100.398 460.684 101.102C461.661 101.766 462.989 102.391 464.669 102.977C466.387 103.562 468.536 104.129 471.114 104.676C475.958 105.691 480.118 107 483.595 108.602C487.11 110.164 489.805 112.195 491.68 114.695C493.555 117.156 494.493 120.281 494.493 124.07C494.493 126.883 493.887 129.461 492.677 131.805C491.505 134.109 489.786 136.121 487.52 137.84C485.255 139.52 482.54 140.828 479.376 141.766C476.251 142.703 472.735 143.172 468.829 143.172C463.087 143.172 458.223 142.156 454.239 140.125C450.255 138.055 447.227 135.418 445.157 132.215C443.126 128.973 442.11 125.613 442.11 122.137H455.762C455.919 124.754 456.641 126.844 457.93 128.406C459.259 129.93 460.899 131.043 462.852 131.746C464.845 132.41 466.895 132.742 469.005 132.742C471.544 132.742 473.673 132.41 475.391 131.746C477.11 131.043 478.419 130.105 479.317 128.934C480.216 127.723 480.665 126.355 480.665 124.832ZM500.561 111.004V109.656C500.561 105.086 501.225 100.848 502.553 96.9414C503.881 92.9961 505.795 89.5781 508.295 86.6875C510.834 83.7578 513.92 81.4922 517.553 79.8906C521.225 78.25 525.366 77.4297 529.975 77.4297C534.623 77.4297 538.764 78.25 542.397 79.8906C546.069 81.4922 549.174 83.7578 551.713 86.6875C554.252 89.5781 556.186 92.9961 557.514 96.9414C558.842 100.848 559.506 105.086 559.506 109.656V111.004C559.506 115.574 558.842 119.812 557.514 123.719C556.186 127.625 554.252 131.043 551.713 133.973C549.174 136.863 546.088 139.129 542.455 140.77C538.823 142.371 534.702 143.172 530.092 143.172C525.444 143.172 521.284 142.371 517.612 140.77C513.979 139.129 510.893 136.863 508.354 133.973C505.815 131.043 503.881 127.625 502.553 123.719C501.225 119.812 500.561 115.574 500.561 111.004ZM514.682 109.656V111.004C514.682 113.855 514.975 116.551 515.561 119.09C516.147 121.629 517.065 123.855 518.315 125.77C519.565 127.684 521.166 129.188 523.12 130.281C525.073 131.375 527.397 131.922 530.092 131.922C532.709 131.922 534.975 131.375 536.889 130.281C538.842 129.188 540.444 127.684 541.694 125.77C542.944 123.855 543.862 121.629 544.448 119.09C545.073 116.551 545.385 113.855 545.385 111.004V109.656C545.385 106.844 545.073 104.188 544.448 101.688C543.862 99.1484 542.924 96.9023 541.635 94.9492C540.385 92.9961 538.784 91.4727 536.83 90.3789C534.916 89.2461 532.631 88.6797 529.975 88.6797C527.319 88.6797 525.014 89.2461 523.061 90.3789C521.147 91.4727 519.565 92.9961 518.315 94.9492C517.065 96.9023 516.147 99.1484 515.561 101.688C514.975 104.188 514.682 106.844 514.682 109.656ZM581.922 90.6719V142H567.801V78.6016H581.277L581.922 90.6719ZM601.316 78.1914L601.199 91.3164C600.34 91.1602 599.402 91.043 598.387 90.9648C597.41 90.8867 596.434 90.8477 595.457 90.8477C593.035 90.8477 590.906 91.1992 589.07 91.9023C587.234 92.5664 585.691 93.543 584.441 94.832C583.23 96.082 582.293 97.6055 581.629 99.4023C580.965 101.199 580.574 103.211 580.457 105.438L577.234 105.672C577.234 101.688 577.625 97.9961 578.406 94.5977C579.188 91.1992 580.359 88.2109 581.922 85.6328C583.523 83.0547 585.516 81.043 587.898 79.5977C590.32 78.1523 593.113 77.4297 596.277 77.4297C597.137 77.4297 598.055 77.5078 599.031 77.6641C600.047 77.8203 600.809 77.9961 601.316 78.1914ZM667.619 130.34V142H608.38V130.34H667.619ZM666.271 65.7695L613.83 142H603.986V132.684L656.603 56.6875H666.271V65.7695ZM660.822 56.6875V68.4062H604.337V56.6875H660.822ZM702.046 143.172C697.359 143.172 693.12 142.41 689.331 140.887C685.581 139.324 682.378 137.156 679.722 134.383C677.105 131.609 675.093 128.348 673.687 124.598C672.28 120.848 671.577 116.805 671.577 112.469V110.125C671.577 105.164 672.3 100.672 673.745 96.6484C675.191 92.625 677.202 89.1875 679.78 86.3359C682.359 83.4453 685.405 81.2383 688.921 79.7148C692.437 78.1914 696.245 77.4297 700.347 77.4297C704.878 77.4297 708.843 78.1914 712.241 79.7148C715.64 81.2383 718.452 83.3867 720.679 86.1602C722.945 88.8945 724.624 92.1562 725.718 95.9453C726.851 99.7344 727.417 103.914 727.417 108.484V114.52H678.433V104.383H713.472V103.27C713.394 100.73 712.886 98.3477 711.948 96.1211C711.05 93.8945 709.663 92.0977 707.788 90.7305C705.913 89.3633 703.413 88.6797 700.288 88.6797C697.945 88.6797 695.855 89.1875 694.019 90.2031C692.222 91.1797 690.718 92.6055 689.507 94.4805C688.296 96.3555 687.359 98.6211 686.695 101.277C686.07 103.895 685.757 106.844 685.757 110.125V112.469C685.757 115.242 686.128 117.82 686.87 120.203C687.652 122.547 688.784 124.598 690.269 126.355C691.753 128.113 693.55 129.5 695.659 130.516C697.769 131.492 700.171 131.98 702.866 131.98C706.265 131.98 709.292 131.297 711.948 129.93C714.605 128.562 716.909 126.629 718.862 124.129L726.304 131.336C724.937 133.328 723.159 135.242 720.972 137.078C718.784 138.875 716.109 140.34 712.945 141.473C709.82 142.605 706.187 143.172 702.046 143.172ZM749.013 90.6719V142H734.891V78.6016H748.368L749.013 90.6719ZM768.407 78.1914L768.29 91.3164C767.43 91.1602 766.493 91.043 765.477 90.9648C764.501 90.8867 763.524 90.8477 762.548 90.8477C760.126 90.8477 757.997 91.1992 756.161 91.9023C754.325 92.5664 752.782 93.543 751.532 94.832C750.321 96.082 749.384 97.6055 748.72 99.4023C748.055 101.199 747.665 103.211 747.548 105.438L744.325 105.672C744.325 101.688 744.716 97.9961 745.497 94.5977C746.278 91.1992 747.45 88.2109 749.013 85.6328C750.614 83.0547 752.606 81.043 754.989 79.5977C757.411 78.1523 760.204 77.4297 763.368 77.4297C764.227 77.4297 765.145 77.5078 766.122 77.6641C767.138 77.8203 767.899 77.9961 768.407 78.1914ZM769.436 111.004V109.656C769.436 105.086 770.1 100.848 771.428 96.9414C772.756 92.9961 774.67 89.5781 777.17 86.6875C779.709 83.7578 782.795 81.4922 786.428 79.8906C790.1 78.25 794.241 77.4297 798.85 77.4297C803.498 77.4297 807.639 78.25 811.272 79.8906C814.944 81.4922 818.049 83.7578 820.588 86.6875C823.127 89.5781 825.061 92.9961 826.389 96.9414C827.717 100.848 828.381 105.086 828.381 109.656V111.004C828.381 115.574 827.717 119.812 826.389 123.719C825.061 127.625 823.127 131.043 820.588 133.973C818.049 136.863 814.963 139.129 811.33 140.77C807.698 142.371 803.577 143.172 798.967 143.172C794.319 143.172 790.159 142.371 786.487 140.77C782.854 139.129 779.768 136.863 777.229 133.973C774.69 131.043 772.756 127.625 771.428 123.719C770.1 119.812 769.436 115.574 769.436 111.004ZM783.557 109.656V111.004C783.557 113.855 783.85 116.551 784.436 119.09C785.022 121.629 785.94 123.855 787.19 125.77C788.44 127.684 790.041 129.188 791.995 130.281C793.948 131.375 796.272 131.922 798.967 131.922C801.584 131.922 803.85 131.375 805.764 130.281C807.717 129.188 809.319 127.684 810.569 125.77C811.819 123.855 812.737 121.629 813.323 119.09C813.948 116.551 814.26 113.855 814.26 111.004V109.656C814.26 106.844 813.948 104.188 813.323 101.688C812.737 99.1484 811.799 96.9023 810.51 94.9492C809.26 92.9961 807.659 91.4727 805.705 90.3789C803.791 89.2461 801.506 88.6797 798.85 88.6797C796.194 88.6797 793.889 89.2461 791.936 90.3789C790.022 91.4727 788.44 92.9961 787.19 94.9492C785.94 96.9023 785.022 99.1484 784.436 101.688C783.85 104.188 783.557 106.844 783.557 109.656Z" fill="white"/>
</svg>
