<svg width="200" height="48" viewBox="0 0 200 48" fill="none" xmlns="http://www.w3.org/2000/svg">
<path d="M48.2869 24C48.2869 37.2548 37.4775 48 24.1435 48C10.8094 48 0 37.2548 0 24C0 10.7452 10.8094 0 24.1435 0C37.4775 0 48.2869 10.7452 48.2869 24Z" fill="#FF4F00"/>
<path d="M32.8351 27.1454C32.8351 28.845 32.6385 30.355 32.2452 31.6756C31.852 32.9839 31.2867 34.0843 30.5493 34.9769C29.8119 35.8817 28.9087 36.5664 27.8395 37.0311C26.7703 37.4957 25.5475 37.728 24.1711 37.728C22.807 37.728 21.5842 37.5018 20.5027 37.0494C19.4213 36.5848 18.5057 35.8939 17.7561 34.9769C17.0064 34.0843 16.435 32.9839 16.0417 31.6756C15.6485 30.355 15.4518 28.845 15.4518 27.1454V20.8913C15.4518 19.1917 15.6485 17.6877 16.0417 16.3794C16.435 15.0589 17.0064 13.9462 17.7561 13.0414C18.4934 12.1366 19.3967 11.4519 20.4659 10.9873C21.5473 10.5104 22.7701 10.272 24.1343 10.272C25.5107 10.272 26.7335 10.5104 27.8026 10.9873C28.8841 11.4519 29.7997 12.1366 30.5493 13.0414C31.2867 13.9462 31.852 15.0589 32.2452 16.3794C32.6385 17.6877 32.8351 19.1917 32.8351 20.8913V27.1454ZM18.8806 26.4668L29.3327 18.4886C29.2343 17.6083 29.0561 16.8318 28.7981 16.1594C28.5523 15.4746 28.2143 14.9061 27.7842 14.4537C27.3664 13.989 26.8502 13.6406 26.2357 13.4083C25.6336 13.1759 24.9331 13.0598 24.1343 13.0598C23.3232 13.0598 22.6042 13.1882 21.9775 13.4449C21.363 13.6895 20.8407 14.0502 20.4106 14.527C19.8944 15.1262 19.5073 15.9026 19.2492 16.8563C19.0034 17.7978 18.8806 18.8921 18.8806 20.1393V24.6144C18.8806 24.9201 18.8806 25.2258 18.8806 25.5314C18.8806 25.8371 18.8806 26.1489 18.8806 26.4668ZM29.4064 27.8607V24.0825C29.4064 23.8991 29.4064 23.5507 29.4064 23.0371C29.4064 22.5113 29.4064 22.0773 29.4064 21.7349L18.9727 29.6764C19.0833 30.569 19.28 31.3577 19.5626 32.0424C19.8453 32.7149 20.214 33.2712 20.6687 33.7114C21.0865 34.1271 21.5904 34.445 22.1802 34.6651C22.7701 34.873 23.4338 34.9769 24.1711 34.9769C24.9454 34.9769 25.6336 34.8607 26.2357 34.6284C26.8379 34.3961 27.3479 34.0599 27.7658 33.6197C28.3311 33.0206 28.7428 32.238 29.0008 31.2721C29.2712 30.3061 29.4064 29.169 29.4064 27.8607Z" fill="white"/>
<path d="M70.9262 13.605V34.08H67.4037V13.605H70.9262ZM77.3912 13.605V16.4175H60.9953V13.605H77.3912Z" fill="black"/>
<path d="M84.2884 34.3612C83.1567 34.3612 82.1335 34.1784 81.2186 33.8128C80.3133 33.4378 79.5399 32.9175 78.8986 32.2519C78.2667 31.5862 77.781 30.8034 77.4415 29.9034C77.102 29.0034 76.9322 28.0331 76.9322 26.9925V26.43C76.9322 25.2394 77.1067 24.1612 77.4557 23.1956C77.8046 22.23 78.2903 21.405 78.9128 20.7206C79.5352 20.0269 80.2708 19.4972 81.1196 19.1316C81.9684 18.7659 82.8879 18.5831 83.8782 18.5831C84.9722 18.5831 85.9295 18.7659 86.75 19.1316C87.5705 19.4972 88.2495 20.0128 88.7871 20.6784C89.3341 21.3347 89.7396 22.1175 90.0037 23.0269C90.2772 23.9362 90.4139 24.9394 90.4139 26.0362V27.4847H78.5874V25.0519H87.047V24.7847C87.0282 24.1753 86.9056 23.6034 86.6792 23.0691C86.4623 22.5347 86.1275 22.1034 85.6748 21.7753C85.2221 21.4472 84.6185 21.2831 83.8641 21.2831C83.2982 21.2831 82.7936 21.405 82.3504 21.6487C81.9165 21.8831 81.5534 22.2253 81.2611 22.6753C80.9687 23.1253 80.7424 23.6691 80.582 24.3066C80.4312 24.9347 80.3557 25.6425 80.3557 26.43V26.9925C80.3557 27.6581 80.4453 28.2769 80.6245 28.8487C80.8131 29.4112 81.0866 29.9034 81.445 30.3253C81.8034 30.7472 82.2372 31.08 82.7465 31.3237C83.2558 31.5581 83.8358 31.6753 84.4865 31.6753C85.307 31.6753 86.0379 31.5112 86.6792 31.1831C87.3205 30.855 87.877 30.3909 88.3485 29.7909L90.1451 31.5206C89.815 31.9987 89.3859 32.4581 88.8578 32.8987C88.3297 33.33 87.6836 33.6816 86.9197 33.9534C86.1652 34.2253 85.2881 34.3612 84.2884 34.3612Z" fill="black"/>
<path d="M95.5853 22.1128V34.08H92.176V18.8644H95.3873L95.5853 22.1128ZM94.977 25.9097L93.8736 25.8956C93.883 24.8175 94.0339 23.8284 94.3263 22.9284C94.6281 22.0284 95.043 21.255 95.5712 20.6081C96.1088 19.9612 96.7501 19.4644 97.4951 19.1175C98.2402 18.7612 99.0701 18.5831 99.9849 18.5831C100.721 18.5831 101.385 18.6862 101.98 18.8925C102.583 19.0894 103.097 19.4128 103.522 19.8628C103.955 20.3128 104.285 20.8987 104.512 21.6206C104.738 22.3331 104.851 23.2097 104.851 24.2503V34.08H101.428V24.2362C101.428 23.505 101.319 22.9284 101.102 22.5066C100.895 22.0753 100.588 21.7706 100.183 21.5925C99.7869 21.405 99.2917 21.3112 98.6976 21.3112C98.1129 21.3112 97.5894 21.4331 97.1273 21.6769C96.6652 21.9206 96.2738 22.2534 95.9531 22.6753C95.6419 23.0972 95.4014 23.5847 95.2317 24.1378C95.0619 24.6909 94.977 25.2816 94.977 25.9097Z" fill="black"/>
<path d="M116.049 29.9597C116.049 29.6222 115.964 29.3175 115.795 29.0456C115.625 28.7644 115.299 28.5112 114.818 28.2862C114.347 28.0612 113.649 27.855 112.725 27.6675C111.914 27.4894 111.169 27.2784 110.49 27.0347C109.82 26.7816 109.245 26.4769 108.764 26.1206C108.283 25.7644 107.91 25.3425 107.646 24.855C107.382 24.3675 107.25 23.805 107.25 23.1675C107.25 22.5487 107.387 21.9628 107.66 21.4097C107.934 20.8566 108.325 20.3691 108.834 19.9472C109.344 19.5253 109.961 19.1925 110.688 18.9487C111.423 18.705 112.244 18.5831 113.149 18.5831C114.432 18.5831 115.53 18.7987 116.445 19.23C117.37 19.6519 118.077 20.2284 118.567 20.9597C119.058 21.6816 119.303 22.4972 119.303 23.4066H115.894C115.894 23.0034 115.79 22.6284 115.582 22.2816C115.384 21.9253 115.083 21.6394 114.677 21.4237C114.271 21.1987 113.762 21.0862 113.149 21.0862C112.564 21.0862 112.079 21.18 111.692 21.3675C111.315 21.5456 111.032 21.78 110.843 22.0706C110.664 22.3612 110.574 22.68 110.574 23.0269C110.574 23.28 110.622 23.5097 110.716 23.7159C110.82 23.9128 110.989 24.0956 111.225 24.2644C111.461 24.4237 111.782 24.5737 112.187 24.7144C112.602 24.855 113.121 24.9909 113.743 25.1222C114.913 25.3659 115.917 25.68 116.757 26.0644C117.605 26.4394 118.256 26.9269 118.709 27.5269C119.161 28.1175 119.388 28.8675 119.388 29.7769C119.388 30.4519 119.242 31.0706 118.949 31.6331C118.666 32.1862 118.251 32.6691 117.704 33.0816C117.157 33.4847 116.502 33.7987 115.738 34.0237C114.983 34.2487 114.135 34.3612 113.192 34.3612C111.805 34.3612 110.631 34.1175 109.669 33.63C108.707 33.1331 107.976 32.5003 107.476 31.7316C106.986 30.9534 106.741 30.1472 106.741 29.3128H110.037C110.075 29.9409 110.249 30.4425 110.56 30.8175C110.881 31.1831 111.277 31.4503 111.749 31.6191C112.23 31.7784 112.725 31.8581 113.234 31.8581C113.847 31.8581 114.361 31.7784 114.776 31.6191C115.191 31.4503 115.507 31.2253 115.724 30.9441C115.941 30.6534 116.049 30.3253 116.049 29.9597Z" fill="black"/>
<path d="M120.853 26.6409V26.3175C120.853 25.2206 121.013 24.2034 121.334 23.2659C121.654 22.3191 122.117 21.4987 122.72 20.805C123.333 20.1019 124.078 19.5581 124.955 19.1737C125.842 18.78 126.842 18.5831 127.954 18.5831C129.077 18.5831 130.076 18.78 130.953 19.1737C131.84 19.5581 132.59 20.1019 133.203 20.805C133.816 21.4987 134.283 22.3191 134.603 23.2659C134.924 24.2034 135.084 25.2206 135.084 26.3175V26.6409C135.084 27.7378 134.924 28.755 134.603 29.6925C134.283 30.63 133.816 31.4503 133.203 32.1534C132.59 32.8472 131.845 33.3909 130.968 33.7847C130.091 34.1691 129.096 34.3612 127.983 34.3612C126.86 34.3612 125.856 34.1691 124.969 33.7847C124.092 33.3909 123.347 32.8472 122.734 32.1534C122.121 31.4503 121.654 30.63 121.334 29.6925C121.013 28.755 120.853 27.7378 120.853 26.6409ZM124.262 26.3175V26.6409C124.262 27.3253 124.333 27.9722 124.474 28.5816C124.616 29.1909 124.837 29.7253 125.139 30.1847C125.441 30.6441 125.828 31.005 126.299 31.2675C126.771 31.53 127.332 31.6612 127.983 31.6612C128.615 31.6612 129.162 31.53 129.624 31.2675C130.095 31.005 130.482 30.6441 130.784 30.1847C131.085 29.7253 131.307 29.1909 131.449 28.5816C131.599 27.9722 131.675 27.3253 131.675 26.6409V26.3175C131.675 25.6425 131.599 25.005 131.449 24.405C131.307 23.7956 131.081 23.2566 130.77 22.7878C130.468 22.3191 130.081 21.9534 129.61 21.6909C129.147 21.4191 128.596 21.2831 127.954 21.2831C127.313 21.2831 126.757 21.4191 126.285 21.6909C125.823 21.9534 125.441 22.3191 125.139 22.7878C124.837 23.2566 124.616 23.7956 124.474 24.405C124.333 25.005 124.262 25.6425 124.262 26.3175Z" fill="black"/>
<path d="M140.496 21.7612V34.08H137.087V18.8644H140.341L140.496 21.7612ZM145.179 18.7659L145.15 21.9159C144.943 21.8784 144.717 21.8503 144.471 21.8316C144.236 21.8128 144 21.8034 143.764 21.8034C143.179 21.8034 142.665 21.8878 142.222 22.0566C141.779 22.2159 141.406 22.4503 141.104 22.7597C140.812 23.0597 140.586 23.4253 140.425 23.8566C140.265 24.2878 140.171 24.7706 140.142 25.305L139.364 25.3612C139.364 24.405 139.459 23.5191 139.647 22.7034C139.836 21.8878 140.119 21.1706 140.496 20.5519C140.883 19.9331 141.364 19.4503 141.939 19.1034C142.524 18.7566 143.198 18.5831 143.962 18.5831C144.17 18.5831 144.391 18.6019 144.627 18.6394C144.872 18.6769 145.056 18.7191 145.179 18.7659Z" fill="black"/>
<path d="M161.186 31.2816V34.08H146.884V31.2816H161.186ZM160.861 15.7847L148.2 34.08H145.823V31.8441L158.527 13.605H160.861V15.7847ZM159.545 13.605V16.4175H145.908V13.605H159.545Z" fill="black"/>
<path d="M169.498 34.3612C168.367 34.3612 167.343 34.1784 166.429 33.8128C165.523 33.4378 164.75 32.9175 164.108 32.2519C163.477 31.5862 162.991 30.8034 162.651 29.9034C162.312 29.0034 162.142 28.0331 162.142 26.9925V26.43C162.142 25.2394 162.317 24.1612 162.666 23.1956C163.014 22.23 163.5 21.405 164.123 20.7206C164.745 20.0269 165.481 19.4972 166.329 19.1316C167.178 18.7659 168.098 18.5831 169.088 18.5831C170.182 18.5831 171.139 18.7659 171.96 19.1316C172.78 19.4972 173.459 20.0128 173.997 20.6784C174.544 21.3347 174.949 22.1175 175.214 23.0269C175.487 23.9362 175.624 24.9394 175.624 26.0362V27.4847H163.797V25.0519H172.257V24.7847C172.238 24.1753 172.115 23.6034 171.889 23.0691C171.672 22.5347 171.337 22.1034 170.885 21.7753C170.432 21.4472 169.828 21.2831 169.074 21.2831C168.508 21.2831 168.003 21.405 167.56 21.6487C167.126 21.8831 166.763 22.2253 166.471 22.6753C166.179 23.1253 165.952 23.6691 165.792 24.3066C165.641 24.9347 165.566 25.6425 165.566 26.43V26.9925C165.566 27.6581 165.655 28.2769 165.834 28.8487C166.023 29.4112 166.296 29.9034 166.655 30.3253C167.013 30.7472 167.447 31.08 167.956 31.3237C168.466 31.5581 169.046 31.6753 169.696 31.6753C170.517 31.6753 171.248 31.5112 171.889 31.1831C172.53 30.855 173.087 30.3909 173.558 29.7909L175.355 31.5206C175.025 31.9987 174.596 32.4581 174.068 32.8987C173.54 33.33 172.893 33.6816 172.13 33.9534C171.375 34.2253 170.498 34.3612 169.498 34.3612Z" fill="black"/>
<path d="M180.838 21.7612V34.08H177.428V18.8644H180.682L180.838 21.7612ZM185.52 18.7659L185.492 21.9159C185.284 21.8784 185.058 21.8503 184.813 21.8316C184.577 21.8128 184.341 21.8034 184.105 21.8034C183.521 21.8034 183.007 21.8878 182.564 22.0566C182.12 22.2159 181.748 22.4503 181.446 22.7597C181.154 23.0597 180.927 23.4253 180.767 23.8566C180.607 24.2878 180.512 24.7706 180.484 25.305L179.706 25.3612C179.706 24.405 179.8 23.5191 179.989 22.7034C180.177 21.8878 180.46 21.1706 180.838 20.5519C181.224 19.9331 181.705 19.4503 182.281 19.1034C182.865 18.7566 183.54 18.5831 184.304 18.5831C184.511 18.5831 184.733 18.6019 184.968 18.6394C185.214 18.6769 185.398 18.7191 185.52 18.7659Z" fill="black"/>
<path d="M185.769 26.6409V26.3175C185.769 25.2206 185.929 24.2034 186.25 23.2659C186.57 22.3191 187.032 21.4987 187.636 20.805C188.249 20.1019 188.994 19.5581 189.871 19.1737C190.758 18.78 191.757 18.5831 192.87 18.5831C193.992 18.5831 194.992 18.78 195.869 19.1737C196.756 19.5581 197.505 20.1019 198.119 20.805C198.732 21.4987 199.198 22.3191 199.519 23.2659C199.84 24.2034 200 25.2206 200 26.3175V26.6409C200 27.7378 199.84 28.755 199.519 29.6925C199.198 30.63 198.732 31.4503 198.119 32.1534C197.505 32.8472 196.76 33.3909 195.883 33.7847C195.006 34.1691 194.011 34.3612 192.898 34.3612C191.776 34.3612 190.772 34.1691 189.885 33.7847C189.008 33.3909 188.263 32.8472 187.65 32.1534C187.037 31.4503 186.57 30.63 186.25 29.6925C185.929 28.755 185.769 27.7378 185.769 26.6409ZM189.178 26.3175V26.6409C189.178 27.3253 189.249 27.9722 189.39 28.5816C189.532 29.1909 189.753 29.7253 190.055 30.1847C190.357 30.6441 190.743 31.005 191.215 31.2675C191.687 31.53 192.248 31.6612 192.898 31.6612C193.53 31.6612 194.077 31.53 194.539 31.2675C195.011 31.005 195.398 30.6441 195.699 30.1847C196.001 29.7253 196.223 29.1909 196.364 28.5816C196.515 27.9722 196.591 27.3253 196.591 26.6409V26.3175C196.591 25.6425 196.515 25.005 196.364 24.405C196.223 23.7956 195.997 23.2566 195.685 22.7878C195.384 22.3191 194.997 21.9534 194.525 21.6909C194.063 21.4191 193.511 21.2831 192.87 21.2831C192.229 21.2831 191.672 21.4191 191.201 21.6909C190.739 21.9534 190.357 22.3191 190.055 22.7878C189.753 23.2566 189.532 23.7956 189.39 24.405C189.249 25.005 189.178 25.6425 189.178 26.3175Z" fill="black"/>
</svg>
