<svg width="640" height="450" viewBox="0 0 640 450" fill="none" xmlns="http://www.w3.org/2000/svg">
<rect x="115.5" y="0.5" width="408" height="199" rx="4.5" fill="#FFF6EC" stroke="#FFECD3"/>
<rect y="300" width="100" height="100" rx="10" fill="url(#paint0_linear_648_357)"/>
<path d="M5 310C5 307.239 7.23858 305 10 305H90C92.7614 305 95 307.239 95 310V390C95 392.761 92.7614 395 90 395H10C7.23858 395 5 392.761 5 390V310Z" fill="white" fill-opacity="0.25"/>
<path d="M31.189 343.909V357H28.8176V343.909H31.189ZM35.9687 351.247V357H33.6547V347.182H35.8664V348.85H35.9814C36.2073 348.3 36.5674 347.864 37.0617 347.54C37.5603 347.216 38.176 347.054 38.909 347.054C39.5866 347.054 40.1768 347.199 40.6796 347.489C41.1867 347.778 41.5787 348.198 41.8557 348.748C42.137 349.298 42.2755 349.964 42.2712 350.749V357H39.9573V351.107C39.9573 350.45 39.7868 349.937 39.4459 349.566C39.1093 349.195 38.6427 349.01 38.0461 349.01C37.6412 349.01 37.2812 349.099 36.9658 349.278C36.6547 349.453 36.4097 349.707 36.2307 350.039C36.056 350.371 35.9687 350.774 35.9687 351.247ZM44.6235 360.682V347.182H46.8991V348.805H47.0333C47.1526 348.567 47.3209 348.313 47.5383 348.045C47.7556 347.772 48.0496 347.54 48.4204 347.348C48.7911 347.152 49.2641 347.054 49.8394 347.054C50.5979 347.054 51.2819 347.248 51.8912 347.636C52.5049 348.019 52.9907 348.588 53.3486 349.342C53.7109 350.092 53.892 351.013 53.892 352.104C53.892 353.182 53.7151 354.098 53.3614 354.852C53.0077 355.607 52.5262 356.182 51.9168 356.578C51.3074 356.974 50.6171 357.173 49.8458 357.173C49.2833 357.173 48.8167 357.079 48.4459 356.891C48.0752 356.704 47.7769 356.478 47.551 356.214C47.3295 355.945 47.1569 355.692 47.0333 355.453H46.9374V360.682H44.6235ZM46.8927 352.091C46.8927 352.726 46.9822 353.282 47.1611 353.759C47.3444 354.237 47.6064 354.609 47.9474 354.878C48.2925 355.142 48.7101 355.274 49.2002 355.274C49.7116 355.274 50.1398 355.138 50.485 354.865C50.8302 354.588 51.0901 354.211 51.2648 353.734C51.4438 353.252 51.5333 352.705 51.5333 352.091C51.5333 351.482 51.4459 350.94 51.2712 350.467C51.0965 349.994 50.8366 349.624 50.4914 349.355C50.1462 349.087 49.7158 348.952 49.2002 348.952C48.7059 348.952 48.2861 349.082 47.941 349.342C47.5958 349.602 47.3337 349.967 47.1547 350.435C46.98 350.904 46.8927 351.456 46.8927 352.091ZM62.1313 352.871V347.182H64.4452V357H62.2016V355.255H62.0993C61.8778 355.805 61.5134 356.254 61.0063 356.604C60.5035 356.953 59.8834 357.128 59.1462 357.128C58.5028 357.128 57.9339 356.985 57.4395 356.7C56.9495 356.41 56.566 355.99 56.289 355.44C56.012 354.886 55.8735 354.217 55.8735 353.433V347.182H58.1874V353.075C58.1874 353.697 58.3579 354.192 58.6988 354.558C59.0397 354.925 59.4871 355.108 60.0411 355.108C60.382 355.108 60.7123 355.025 61.0319 354.859C61.3515 354.692 61.6135 354.445 61.8181 354.117C62.0269 353.785 62.1313 353.369 62.1313 352.871ZM71.7274 347.182V348.972H66.0832V347.182H71.7274ZM67.4767 344.83H69.7906V354.047C69.7906 354.358 69.8374 354.597 69.9312 354.763C70.0292 354.925 70.1571 355.036 70.3147 355.095C70.4724 355.155 70.6471 355.185 70.8389 355.185C70.9838 355.185 71.1159 355.174 71.2352 355.153C71.3588 355.131 71.4525 355.112 71.5164 355.095L71.9063 356.904C71.7828 356.947 71.6059 356.994 71.3758 357.045C71.1499 357.096 70.873 357.126 70.5448 357.134C69.9653 357.151 69.4433 357.064 68.9788 356.872C68.5143 356.676 68.1457 356.374 67.873 355.964C67.6045 355.555 67.4724 355.044 67.4767 354.43V344.83Z" fill="#363636"/>
<rect x="540" y="300" width="100" height="100" rx="10" fill="url(#paint1_linear_648_357)"/>
<path d="M545 310C545 307.239 547.239 305 550 305H630C632.761 305 635 307.239 635 310V390C635 392.761 632.761 395 630 395H550C547.239 395 545 392.761 545 390V310Z" fill="white" fill-opacity="0.25"/>
<path d="M572.605 350.455C572.605 351.865 572.341 353.073 571.812 354.079C571.288 355.08 570.572 355.847 569.664 356.38C568.761 356.913 567.736 357.179 566.59 357.179C565.444 357.179 564.417 356.913 563.509 356.38C562.606 355.843 561.89 355.074 561.361 354.072C560.837 353.067 560.575 351.861 560.575 350.455C560.575 349.044 560.837 347.838 561.361 346.837C561.89 345.831 562.606 345.062 563.509 344.529C564.417 343.996 565.444 343.73 566.59 343.73C567.736 343.73 568.761 343.996 569.664 344.529C570.572 345.062 571.288 345.831 571.812 346.837C572.341 347.838 572.605 349.044 572.605 350.455ZM570.221 350.455C570.221 349.462 570.065 348.624 569.754 347.942C569.447 347.256 569.021 346.739 568.476 346.389C567.93 346.036 567.302 345.859 566.59 345.859C565.878 345.859 565.25 346.036 564.704 346.389C564.159 346.739 563.731 347.256 563.419 347.942C563.113 348.624 562.959 349.462 562.959 350.455C562.959 351.447 563.113 352.287 563.419 352.973C563.731 353.655 564.159 354.173 564.704 354.526C565.25 354.876 565.878 355.05 566.59 355.05C567.302 355.05 567.93 354.876 568.476 354.526C569.021 354.173 569.447 353.655 569.754 352.973C570.065 352.287 570.221 351.447 570.221 350.455ZM581.002 352.871V347.182H583.316V357H581.073V355.255H580.97C580.749 355.805 580.384 356.254 579.877 356.604C579.375 356.953 578.755 357.128 578.017 357.128C577.374 357.128 576.805 356.985 576.311 356.7C575.821 356.41 575.437 355.99 575.16 355.44C574.883 354.886 574.745 354.217 574.745 353.433V347.182H577.058V353.075C577.058 353.697 577.229 354.192 577.57 354.558C577.911 354.925 578.358 355.108 578.912 355.108C579.253 355.108 579.583 355.025 579.903 354.859C580.223 354.692 580.485 354.445 580.689 354.117C580.898 353.785 581.002 353.369 581.002 352.871ZM590.598 347.182V348.972H584.954V347.182H590.598ZM586.348 344.83H588.662V354.047C588.662 354.358 588.709 354.597 588.802 354.763C588.9 354.925 589.028 355.036 589.186 355.095C589.343 355.155 589.518 355.185 589.71 355.185C589.855 355.185 589.987 355.174 590.106 355.153C590.23 355.131 590.324 355.112 590.387 355.095L590.777 356.904C590.654 356.947 590.477 356.994 590.247 357.045C590.021 357.096 589.744 357.126 589.416 357.134C588.836 357.151 588.314 357.064 587.85 356.872C587.385 356.676 587.017 356.374 586.744 355.964C586.476 355.555 586.343 355.044 586.348 354.43V344.83ZM592.534 360.682V347.182H594.809V348.805H594.943C595.063 348.567 595.231 348.313 595.448 348.045C595.666 347.772 595.96 347.54 596.331 347.348C596.701 347.152 597.174 347.054 597.75 347.054C598.508 347.054 599.192 347.248 599.801 347.636C600.415 348.019 600.901 348.588 601.259 349.342C601.621 350.092 601.802 351.013 601.802 352.104C601.802 353.182 601.625 354.098 601.272 354.852C600.918 355.607 600.436 356.182 599.827 356.578C599.218 356.974 598.527 357.173 597.756 357.173C597.193 357.173 596.727 357.079 596.356 356.891C595.985 356.704 595.687 356.478 595.461 356.214C595.24 355.945 595.067 355.692 594.943 355.453H594.848V360.682H592.534ZM594.803 352.091C594.803 352.726 594.892 353.282 595.071 353.759C595.255 354.237 595.517 354.609 595.857 354.878C596.203 355.142 596.62 355.274 597.11 355.274C597.622 355.274 598.05 355.138 598.395 354.865C598.74 354.588 599 354.211 599.175 353.734C599.354 353.252 599.443 352.705 599.443 352.091C599.443 351.482 599.356 350.94 599.181 350.467C599.007 349.994 598.747 349.624 598.402 349.355C598.056 349.087 597.626 348.952 597.11 348.952C596.616 348.952 596.196 349.082 595.851 349.342C595.506 349.602 595.244 349.967 595.065 350.435C594.89 350.904 594.803 351.456 594.803 352.091ZM610.041 352.871V347.182H612.355V357H610.112V355.255H610.009C609.788 355.805 609.424 356.254 608.916 356.604C608.414 356.953 607.794 357.128 607.056 357.128C606.413 357.128 605.844 356.985 605.35 356.7C604.86 356.41 604.476 355.99 604.199 355.44C603.922 354.886 603.784 354.217 603.784 353.433V347.182H606.098V353.075C606.098 353.697 606.268 354.192 606.609 354.558C606.95 354.925 607.397 355.108 607.951 355.108C608.292 355.108 608.622 355.025 608.942 354.859C609.262 354.692 609.524 354.445 609.728 354.117C609.937 353.785 610.041 353.369 610.041 352.871ZM619.638 347.182V348.972H613.993V347.182H619.638ZM615.387 344.83H617.701V354.047C617.701 354.358 617.748 354.597 617.841 354.763C617.939 354.925 618.067 355.036 618.225 355.095C618.383 355.155 618.557 355.185 618.749 355.185C618.894 355.185 619.026 355.174 619.145 355.153C619.269 355.131 619.363 355.112 619.427 355.095L619.816 356.904C619.693 356.947 619.516 356.994 619.286 357.045C619.06 357.096 618.783 357.126 618.455 357.134C617.875 357.151 617.353 357.064 616.889 356.872C616.424 356.676 616.056 356.374 615.783 355.964C615.515 355.555 615.383 355.044 615.387 354.43V344.83Z" fill="#363636"/>
<rect x="115.5" y="250.5" width="408" height="199" rx="4.5" fill="#FFF6EC" stroke="#FFECD3"/>
<rect x="135" y="300" width="100" height="100" rx="10" fill="url(#paint2_linear_648_357)"/>
<path d="M140 310C140 307.239 142.239 305 145 305H225C227.761 305 230 307.239 230 310V390C230 392.761 227.761 395 225 395H145C142.239 395 140 392.761 140 390V310Z" fill="white" fill-opacity="0.25"/>
<path d="M161.384 356.667V343.576H163.755V354.679H169.521V356.667H161.384ZM171.579 356.667V343.576H173.95V354.679H179.716V356.667H171.579ZM181.774 343.576H184.676L188.563 353.062H188.716L192.602 343.576H195.504V356.667H193.229V347.673H193.107L189.489 356.629H187.789L184.171 347.654H184.05V356.667H181.774V343.576ZM207.748 343.576V356.667H205.377V345.884H205.3L202.238 347.84V345.666L205.492 343.576H207.748Z" fill="#363636"/>
<rect x="405" y="300" width="100" height="100" rx="10" fill="url(#paint3_linear_648_357)"/>
<path d="M410 310C410 307.239 412.239 305 415 305H495C497.761 305 500 307.239 500 310V390C500 392.761 497.761 395 495 395H415C412.239 395 410 392.761 410 390V310Z" fill="white" fill-opacity="0.25"/>
<path d="M449.784 356.808C449.396 356.808 449.064 356.671 448.787 356.399C448.51 356.126 448.373 355.793 448.378 355.401C448.373 355.018 448.51 354.69 448.787 354.417C449.064 354.144 449.396 354.008 449.784 354.008C450.159 354.008 450.485 354.144 450.762 354.417C451.043 354.69 451.186 355.018 451.19 355.401C451.186 355.661 451.118 355.898 450.986 356.111C450.858 356.324 450.687 356.494 450.474 356.622C450.265 356.746 450.035 356.808 449.784 356.808ZM455.005 356.808C454.617 356.808 454.284 356.671 454.007 356.399C453.73 356.126 453.594 355.793 453.598 355.401C453.594 355.018 453.73 354.69 454.007 354.417C454.284 354.144 454.617 354.008 455.005 354.008C455.38 354.008 455.706 354.144 455.983 354.417C456.264 354.69 456.407 355.018 456.411 355.401C456.407 355.661 456.338 355.898 456.206 356.111C456.079 356.324 455.908 356.494 455.695 356.622C455.486 356.746 455.256 356.808 455.005 356.808ZM460.225 356.808C459.838 356.808 459.505 356.671 459.228 356.399C458.951 356.126 458.815 355.793 458.819 355.401C458.815 355.018 458.951 354.69 459.228 354.417C459.505 354.144 459.838 354.008 460.225 354.008C460.6 354.008 460.926 354.144 461.203 354.417C461.485 354.69 461.627 355.018 461.632 355.401C461.627 355.661 461.559 355.898 461.427 356.111C461.299 356.324 461.129 356.494 460.916 356.622C460.707 356.746 460.477 356.808 460.225 356.808Z" fill="#363636"/>
<rect x="270" y="300" width="100" height="100" rx="10" fill="url(#paint4_linear_648_357)"/>
<path d="M275 310C275 307.239 277.239 305 280 305H360C362.761 305 365 307.239 365 310V390C365 392.761 362.761 395 360 395H280C277.239 395 275 392.761 275 390V310Z" fill="white" fill-opacity="0.25"/>
<path d="M295.118 356.667V343.576H297.489V354.679H303.255V356.667H295.118ZM305.313 356.667V343.576H307.685V354.679H313.45V356.667H305.313ZM315.509 343.576H318.411L322.297 353.062H322.45L326.337 343.576H329.239V356.667H326.963V347.673H326.842L323.224 356.629H321.524L317.906 347.654H317.784V356.667H315.509V343.576ZM336.158 356.667V354.954L340.703 350.499C341.138 350.06 341.5 349.67 341.79 349.329C342.079 348.988 342.297 348.658 342.442 348.338C342.586 348.019 342.659 347.678 342.659 347.315C342.659 346.902 342.565 346.548 342.378 346.254C342.19 345.956 341.932 345.726 341.604 345.564C341.276 345.402 340.903 345.321 340.486 345.321C340.055 345.321 339.678 345.411 339.354 345.59C339.03 345.764 338.779 346.014 338.6 346.337C338.425 346.661 338.338 347.047 338.338 347.494H336.081C336.081 346.663 336.271 345.941 336.65 345.328C337.03 344.714 337.552 344.239 338.216 343.902C338.885 343.565 339.652 343.397 340.518 343.397C341.395 343.397 342.167 343.561 342.831 343.889C343.496 344.217 344.012 344.667 344.378 345.238C344.749 345.809 344.934 346.461 344.934 347.194C344.934 347.684 344.841 348.166 344.653 348.639C344.466 349.112 344.135 349.636 343.662 350.211C343.194 350.786 342.535 351.483 341.687 352.301L339.431 354.596V354.685H345.133V356.667H336.158Z" fill="#363636"/>
<path d="M121.291 441V427.909H123.663V439.012H129.428V441H121.291ZM131.487 441V427.909H133.858V439.012H139.624V441H131.487ZM141.682 427.909H144.584L148.47 437.395H148.624L152.51 427.909H155.412V441H153.136V432.006H153.015L149.397 440.962H147.697L144.079 431.987H143.957V441H141.682V427.909ZM164.14 441H161.609L166.218 427.909H169.145L173.76 441H171.229L167.733 430.594H167.63L164.14 441ZM164.223 435.867H171.127V437.772H164.223V435.867ZM175.382 444.682V431.182H177.658V432.805H177.792C177.911 432.567 178.08 432.313 178.297 432.045C178.514 431.772 178.808 431.54 179.179 431.348C179.55 431.152 180.023 431.054 180.598 431.054C181.357 431.054 182.041 431.248 182.65 431.636C183.264 432.019 183.749 432.588 184.107 433.342C184.47 434.092 184.651 435.013 184.651 436.104C184.651 437.182 184.474 438.098 184.12 438.852C183.767 439.607 183.285 440.182 182.676 440.578C182.066 440.974 181.376 441.173 180.605 441.173C180.042 441.173 179.575 441.079 179.205 440.891C178.834 440.704 178.536 440.478 178.31 440.214C178.088 439.945 177.916 439.692 177.792 439.453H177.696V444.682H175.382ZM177.651 436.091C177.651 436.726 177.741 437.282 177.92 437.759C178.103 438.237 178.365 438.609 178.706 438.878C179.051 439.142 179.469 439.274 179.959 439.274C180.47 439.274 180.899 439.138 181.244 438.865C181.589 438.588 181.849 438.211 182.024 437.734C182.203 437.252 182.292 436.705 182.292 436.091C182.292 435.482 182.205 434.94 182.03 434.467C181.855 433.994 181.595 433.624 181.25 433.355C180.905 433.087 180.475 432.952 179.959 432.952C179.465 432.952 179.045 433.082 178.7 433.342C178.355 433.602 178.093 433.967 177.914 434.435C177.739 434.904 177.651 435.456 177.651 436.091ZM186.632 444.682V431.182H188.908V432.805H189.042C189.161 432.567 189.33 432.313 189.547 432.045C189.764 431.772 190.058 431.54 190.429 431.348C190.8 431.152 191.273 431.054 191.848 431.054C192.607 431.054 193.291 431.248 193.9 431.636C194.514 432.019 194.999 432.588 195.357 433.342C195.72 434.092 195.901 435.013 195.901 436.104C195.901 437.182 195.724 438.098 195.37 438.852C195.017 439.607 194.535 440.182 193.926 440.578C193.316 440.974 192.626 441.173 191.855 441.173C191.292 441.173 190.825 441.079 190.455 440.891C190.084 440.704 189.786 440.478 189.56 440.214C189.338 439.945 189.166 439.692 189.042 439.453H188.946V444.682H186.632ZM188.901 436.091C188.901 436.726 188.991 437.282 189.17 437.759C189.353 438.237 189.615 438.609 189.956 438.878C190.301 439.142 190.719 439.274 191.209 439.274C191.72 439.274 192.149 439.138 192.494 438.865C192.839 438.588 193.099 438.211 193.274 437.734C193.453 437.252 193.542 436.705 193.542 436.091C193.542 435.482 193.455 434.94 193.28 434.467C193.105 433.994 192.845 433.624 192.5 433.355C192.155 433.087 191.725 432.952 191.209 432.952C190.715 432.952 190.295 433.082 189.95 433.342C189.605 433.602 189.343 433.967 189.164 434.435C188.989 434.904 188.901 435.456 188.901 436.091ZM200.196 427.909V441H197.882V427.909H200.196ZM202.576 441V431.182H204.89V441H202.576ZM203.739 429.788C203.373 429.788 203.057 429.667 202.793 429.424C202.529 429.177 202.397 428.881 202.397 428.536C202.397 428.186 202.529 427.89 202.793 427.647C203.057 427.4 203.373 427.276 203.739 427.276C204.11 427.276 204.425 427.4 204.685 427.647C204.949 427.89 205.081 428.186 205.081 428.536C205.081 428.881 204.949 429.177 204.685 429.424C204.425 429.667 204.11 429.788 203.739 429.788ZM211.552 441.192C210.572 441.192 209.73 440.977 209.027 440.546C208.328 440.116 207.789 439.521 207.41 438.763C207.035 438 206.847 437.122 206.847 436.129C206.847 435.132 207.039 434.252 207.422 433.489C207.806 432.722 208.347 432.126 209.046 431.7C209.749 431.269 210.58 431.054 211.539 431.054C212.336 431.054 213.041 431.201 213.655 431.495C214.273 431.785 214.765 432.196 215.131 432.729C215.498 433.257 215.706 433.875 215.758 434.582H213.546C213.456 434.109 213.243 433.715 212.907 433.4C212.574 433.08 212.129 432.92 211.571 432.92C211.098 432.92 210.682 433.048 210.324 433.304C209.966 433.555 209.687 433.918 209.487 434.391C209.291 434.864 209.193 435.43 209.193 436.091C209.193 436.76 209.291 437.335 209.487 437.817C209.683 438.294 209.958 438.663 210.312 438.923C210.67 439.178 211.089 439.306 211.571 439.306C211.912 439.306 212.216 439.242 212.485 439.114C212.758 438.982 212.986 438.793 213.169 438.545C213.352 438.298 213.478 437.998 213.546 437.644H215.758C215.702 438.339 215.498 438.955 215.144 439.491C214.79 440.024 214.309 440.442 213.699 440.744C213.09 441.043 212.374 441.192 211.552 441.192ZM220.483 441.198C219.861 441.198 219.3 441.087 218.802 440.866C218.308 440.64 217.915 440.308 217.626 439.869C217.34 439.43 217.197 438.888 217.197 438.245C217.197 437.691 217.3 437.233 217.504 436.871C217.709 436.509 217.988 436.219 218.342 436.001C218.695 435.784 219.094 435.62 219.537 435.509C219.984 435.394 220.447 435.311 220.924 435.26C221.499 435.2 221.966 435.147 222.324 435.1C222.682 435.049 222.942 434.972 223.104 434.87C223.27 434.763 223.353 434.599 223.353 434.378V434.339C223.353 433.858 223.21 433.485 222.925 433.221C222.639 432.957 222.228 432.825 221.691 432.825C221.124 432.825 220.675 432.948 220.342 433.195C220.014 433.442 219.793 433.734 219.678 434.071L217.517 433.764C217.688 433.168 217.969 432.669 218.361 432.268C218.753 431.864 219.232 431.561 219.799 431.361C220.366 431.156 220.992 431.054 221.678 431.054C222.151 431.054 222.622 431.109 223.091 431.22C223.56 431.331 223.988 431.514 224.376 431.77C224.763 432.021 225.075 432.364 225.309 432.799C225.548 433.234 225.667 433.777 225.667 434.429V441H223.442V439.651H223.366C223.225 439.924 223.027 440.18 222.771 440.418C222.52 440.653 222.202 440.842 221.819 440.987C221.44 441.128 220.994 441.198 220.483 441.198ZM221.084 439.498C221.548 439.498 221.951 439.406 222.292 439.223C222.633 439.036 222.895 438.788 223.078 438.482C223.266 438.175 223.359 437.84 223.359 437.478V436.321C223.287 436.381 223.163 436.436 222.989 436.487C222.818 436.538 222.626 436.583 222.413 436.621C222.2 436.66 221.989 436.694 221.781 436.724C221.572 436.754 221.391 436.779 221.237 436.8C220.892 436.847 220.583 436.924 220.31 437.031C220.038 437.137 219.822 437.286 219.665 437.478C219.507 437.665 219.428 437.908 219.428 438.207C219.428 438.633 219.584 438.955 219.895 439.172C220.206 439.389 220.602 439.498 221.084 439.498ZM232.896 431.182V432.972H227.252V431.182H232.896ZM228.646 428.83H230.96V438.047C230.96 438.358 231.006 438.597 231.1 438.763C231.198 438.925 231.326 439.036 231.484 439.095C231.641 439.155 231.816 439.185 232.008 439.185C232.153 439.185 232.285 439.174 232.404 439.153C232.528 439.131 232.621 439.112 232.685 439.095L233.075 440.904C232.952 440.947 232.775 440.994 232.545 441.045C232.319 441.096 232.042 441.126 231.714 441.134C231.134 441.151 230.612 441.064 230.148 440.872C229.683 440.676 229.315 440.374 229.042 439.964C228.773 439.555 228.641 439.044 228.646 438.43V428.83ZM234.831 441V431.182H237.145V441H234.831ZM235.995 429.788C235.628 429.788 235.313 429.667 235.049 429.424C234.785 429.177 234.653 428.881 234.653 428.536C234.653 428.186 234.785 427.89 235.049 427.647C235.313 427.4 235.628 427.276 235.995 427.276C236.366 427.276 236.681 427.4 236.941 427.647C237.205 427.89 237.337 428.186 237.337 428.536C237.337 428.881 237.205 429.177 236.941 429.424C236.681 429.667 236.366 429.788 235.995 429.788ZM243.808 441.192C242.849 441.192 242.018 440.981 241.315 440.559C240.612 440.137 240.066 439.547 239.678 438.788C239.295 438.03 239.103 437.143 239.103 436.129C239.103 435.115 239.295 434.227 239.678 433.464C240.066 432.701 240.612 432.109 241.315 431.687C242.018 431.265 242.849 431.054 243.808 431.054C244.766 431.054 245.597 431.265 246.3 431.687C247.004 432.109 247.547 432.701 247.93 433.464C248.318 434.227 248.512 435.115 248.512 436.129C248.512 437.143 248.318 438.03 247.93 438.788C247.547 439.547 247.004 440.137 246.3 440.559C245.597 440.981 244.766 441.192 243.808 441.192ZM243.82 439.338C244.34 439.338 244.775 439.195 245.124 438.91C245.474 438.62 245.734 438.232 245.904 437.746C246.079 437.261 246.166 436.719 246.166 436.123C246.166 435.522 246.079 434.979 245.904 434.493C245.734 434.003 245.474 433.613 245.124 433.323C244.775 433.033 244.34 432.888 243.82 432.888C243.288 432.888 242.844 433.033 242.491 433.323C242.141 433.613 241.879 434.003 241.705 434.493C241.534 434.979 241.449 435.522 241.449 436.123C241.449 436.719 241.534 437.261 241.705 437.746C241.879 438.232 242.141 438.62 242.491 438.91C242.844 439.195 243.288 439.338 243.82 439.338ZM252.79 435.247V441H250.476V431.182H252.688V432.85H252.803C253.029 432.3 253.389 431.864 253.883 431.54C254.382 431.216 254.997 431.054 255.73 431.054C256.408 431.054 256.998 431.199 257.501 431.489C258.008 431.778 258.4 432.198 258.677 432.748C258.958 433.298 259.097 433.964 259.093 434.749V441H256.779V435.107C256.779 434.45 256.608 433.937 256.267 433.566C255.931 433.195 255.464 433.01 254.867 433.01C254.463 433.01 254.102 433.099 253.787 433.278C253.476 433.453 253.231 433.707 253.052 434.039C252.877 434.371 252.79 434.774 252.79 435.247Z" fill="#FFB56D"/>
<path d="M121.291 9.90909H124.193L128.08 19.3949H128.233L132.119 9.90909H135.021V23H132.746V14.0064H132.624L129.006 22.9616H127.306L123.688 13.9872H123.567V23H121.291V9.90909ZM139.975 9.90909V23H137.604V9.90909H139.975ZM142.543 23V9.90909H147.452C148.458 9.90909 149.302 10.0966 149.983 10.4716C150.67 10.8466 151.187 11.3622 151.537 12.0185C151.89 12.6705 152.067 13.4119 152.067 14.2429C152.067 15.0824 151.89 15.8281 151.537 16.4801C151.183 17.1321 150.661 17.6456 149.971 18.0206C149.28 18.3913 148.43 18.5767 147.42 18.5767H144.167V16.6271H147.101C147.689 16.6271 148.17 16.5249 148.545 16.3203C148.92 16.1158 149.197 15.8345 149.376 15.4766C149.559 15.1186 149.651 14.7074 149.651 14.2429C149.651 13.7784 149.559 13.3693 149.376 13.0156C149.197 12.6619 148.918 12.3871 148.539 12.1911C148.164 11.9908 147.68 11.8906 147.088 11.8906H144.915V23H142.543ZM154.127 23V9.90909H159.036C160.042 9.90909 160.886 10.0838 161.567 10.4332C162.254 10.7827 162.771 11.2727 163.121 11.9034C163.474 12.5298 163.651 13.2607 163.651 14.0959C163.651 14.9354 163.472 15.6641 163.114 16.282C162.761 16.8956 162.239 17.3707 161.548 17.7074C160.858 18.0398 160.01 18.206 159.004 18.206H155.508V16.2372H158.685C159.273 16.2372 159.754 16.1562 160.129 15.9943C160.504 15.8281 160.781 15.5874 160.96 15.272C161.143 14.9524 161.235 14.5604 161.235 14.0959C161.235 13.6314 161.143 13.2351 160.96 12.907C160.777 12.5746 160.498 12.3232 160.123 12.1527C159.748 11.978 159.264 11.8906 158.672 11.8906H156.499V23H154.127ZM160.89 17.0682L164.131 23H161.484L158.301 17.0682H160.89ZM177.532 16.4545C177.532 17.8651 177.267 19.0732 176.739 20.0788C176.215 21.0803 175.499 21.8473 174.591 22.38C173.688 22.9126 172.663 23.179 171.517 23.179C170.37 23.179 169.343 22.9126 168.436 22.38C167.532 21.843 166.816 21.0739 166.288 20.0724C165.764 19.0668 165.502 17.8608 165.502 16.4545C165.502 15.044 165.764 13.8381 166.288 12.8366C166.816 11.831 167.532 11.0618 168.436 10.5291C169.343 9.99645 170.37 9.73011 171.517 9.73011C172.663 9.73011 173.688 9.99645 174.591 10.5291C175.499 11.0618 176.215 11.831 176.739 12.8366C177.267 13.8381 177.532 15.044 177.532 16.4545ZM175.147 16.4545C175.147 15.4616 174.992 14.6243 174.681 13.9425C174.374 13.2564 173.948 12.7386 173.402 12.3892C172.857 12.0355 172.228 11.8587 171.517 11.8587C170.805 11.8587 170.176 12.0355 169.631 12.3892C169.086 12.7386 168.657 13.2564 168.346 13.9425C168.039 14.6243 167.886 15.4616 167.886 16.4545C167.886 17.4474 168.039 18.2869 168.346 18.973C168.657 19.6548 169.086 20.1726 169.631 20.5263C170.176 20.8757 170.805 21.0504 171.517 21.0504C172.228 21.0504 172.857 20.8757 173.402 20.5263C173.948 20.1726 174.374 19.6548 174.681 18.973C174.992 18.2869 175.147 17.4474 175.147 16.4545Z" fill="#FFB56D"/>
<rect x="131" y="50" width="150" height="100" rx="10" fill="url(#paint5_linear_648_357)"/>
<path d="M136 60C136 57.2386 138.239 55 141 55H271C273.761 55 276 57.2386 276 60V140C276 142.761 273.761 145 271 145H141C138.239 145 136 142.761 136 140V60Z" fill="white" fill-opacity="0.25"/>
<path d="M171.283 84.667V71.5761H176.192C177.198 71.5761 178.042 71.7636 178.724 72.1386C179.41 72.5136 179.928 73.0292 180.277 73.6855C180.631 74.3374 180.808 75.0789 180.808 75.9099C180.808 76.7494 180.631 77.4951 180.277 78.1471C179.923 78.7991 179.401 79.3126 178.711 79.6876C178.021 80.0583 177.17 80.2437 176.161 80.2437H172.907V78.2941H175.841C176.429 78.2941 176.911 78.1918 177.286 77.9873C177.661 77.7828 177.938 77.5015 178.116 77.1436C178.3 76.7856 178.391 76.3744 178.391 75.9099C178.391 75.4454 178.3 75.0363 178.116 74.6826C177.938 74.3289 177.658 74.0541 177.279 73.858C176.904 73.6578 176.42 73.5576 175.828 73.5576H173.655V84.667H171.283ZM182.765 84.667V74.8488H185.009V76.4852H185.111C185.29 75.9184 185.597 75.4816 186.031 75.1748C186.47 74.8637 186.971 74.7082 187.534 74.7082C187.661 74.7082 187.804 74.7146 187.962 74.7274C188.124 74.7359 188.258 74.7508 188.365 74.7721V76.9007C188.267 76.8666 188.111 76.8367 187.898 76.8112C187.689 76.7813 187.487 76.7664 187.291 76.7664C186.869 76.7664 186.49 76.858 186.153 77.0413C185.82 77.2203 185.558 77.4695 185.367 77.7892C185.175 78.1088 185.079 78.4774 185.079 78.895V84.667H182.765ZM193.78 84.8588C192.821 84.8588 191.99 84.6478 191.287 84.2259C190.584 83.8041 190.039 83.2139 189.651 82.4553C189.267 81.6968 189.076 80.8105 189.076 79.7963C189.076 78.782 189.267 77.8936 189.651 77.1308C190.039 76.368 190.584 75.7757 191.287 75.3538C191.99 74.9319 192.821 74.721 193.78 74.721C194.739 74.721 195.57 74.9319 196.273 75.3538C196.976 75.7757 197.52 76.368 197.903 77.1308C198.291 77.8936 198.485 78.782 198.485 79.7963C198.485 80.8105 198.291 81.6968 197.903 82.4553C197.52 83.2139 196.976 83.8041 196.273 84.2259C195.57 84.6478 194.739 84.8588 193.78 84.8588ZM193.793 83.0051C194.313 83.0051 194.748 82.8623 195.097 82.5768C195.446 82.287 195.706 81.8992 195.877 81.4134C196.051 80.9276 196.139 80.3865 196.139 79.7899C196.139 79.189 196.051 78.6457 195.877 78.1599C195.706 77.6698 195.446 77.2799 195.097 76.9901C194.748 76.7004 194.313 76.5555 193.793 76.5555C193.26 76.5555 192.817 76.7004 192.463 76.9901C192.114 77.2799 191.852 77.6698 191.677 78.1599C191.507 78.6457 191.422 79.189 191.422 79.7899C191.422 80.3865 191.507 80.9276 191.677 81.4134C191.852 81.8992 192.114 82.287 192.463 82.5768C192.817 82.8623 193.26 83.0051 193.793 83.0051ZM200.449 88.3488V74.8488H202.724V76.4724H202.858C202.978 76.2338 203.146 75.9802 203.363 75.7117C203.581 75.439 203.875 75.2068 204.246 75.015C204.616 74.819 205.089 74.721 205.665 74.721C206.423 74.721 207.107 74.9149 207.716 75.3026C208.33 75.6862 208.816 76.2551 209.174 77.0093C209.536 77.7593 209.717 78.6798 209.717 79.7707C209.717 80.8488 209.54 81.765 209.187 82.5193C208.833 83.2735 208.351 83.8488 207.742 84.2451C207.133 84.6414 206.442 84.8396 205.671 84.8396C205.108 84.8396 204.642 84.7458 204.271 84.5583C203.9 84.3708 203.602 84.145 203.376 83.8808C203.155 83.6123 202.982 83.3588 202.858 83.1201H202.763V88.3488H200.449ZM202.718 79.7579C202.718 80.3928 202.807 80.949 202.986 81.4262C203.17 81.9035 203.432 82.2764 203.773 82.5448C204.118 82.809 204.535 82.9411 205.025 82.9411C205.537 82.9411 205.965 82.8048 206.31 82.532C206.655 82.2551 206.915 81.8779 207.09 81.4007C207.269 80.9191 207.358 80.3715 207.358 79.7579C207.358 79.1485 207.271 78.6073 207.096 78.1343C206.922 77.6613 206.662 77.2906 206.317 77.0221C205.971 76.7536 205.541 76.6194 205.025 76.6194C204.531 76.6194 204.111 76.7494 203.766 77.0093C203.421 77.2693 203.159 77.6336 202.98 78.1024C202.805 78.5711 202.718 79.123 202.718 79.7579ZM215.981 84.8588C215.023 84.8588 214.192 84.6478 213.488 84.2259C212.785 83.8041 212.24 83.2139 211.852 82.4553C211.469 81.6968 211.277 80.8105 211.277 79.7963C211.277 78.782 211.469 77.8936 211.852 77.1308C212.24 76.368 212.785 75.7757 213.488 75.3538C214.192 74.9319 215.023 74.721 215.981 74.721C216.94 74.721 217.771 74.9319 218.474 75.3538C219.177 75.7757 219.721 76.368 220.104 77.1308C220.492 77.8936 220.686 78.782 220.686 79.7963C220.686 80.8105 220.492 81.6968 220.104 82.4553C219.721 83.2139 219.177 83.8041 218.474 84.2259C217.771 84.6478 216.94 84.8588 215.981 84.8588ZM215.994 83.0051C216.514 83.0051 216.949 82.8623 217.298 82.5768C217.648 82.287 217.907 81.8992 218.078 81.4134C218.253 80.9276 218.34 80.3865 218.34 79.7899C218.34 79.189 218.253 78.6457 218.078 78.1599C217.907 77.6698 217.648 77.2799 217.298 76.9901C216.949 76.7004 216.514 76.5555 215.994 76.5555C215.461 76.5555 215.018 76.7004 214.665 76.9901C214.315 77.2799 214.053 77.6698 213.878 78.1599C213.708 78.6457 213.623 79.189 213.623 79.7899C213.623 80.3865 213.708 80.9276 213.878 81.4134C214.053 81.8992 214.315 82.287 214.665 82.5768C215.018 82.8623 215.461 83.0051 215.994 83.0051ZM230.41 77.444L228.3 77.6741C228.241 77.461 228.136 77.2607 227.987 77.0732C227.842 76.8857 227.646 76.7345 227.399 76.6194C227.152 76.5043 226.849 76.4468 226.491 76.4468C226.01 76.4468 225.605 76.5512 225.277 76.76C224.953 76.9688 224.793 77.2394 224.798 77.5718C224.793 77.8573 224.898 78.0896 225.111 78.2686C225.328 78.4475 225.686 78.5945 226.185 78.7096L227.859 79.0676C228.788 79.2678 229.479 79.5853 229.93 80.02C230.386 80.4546 230.616 81.0235 230.621 81.7267C230.616 82.3445 230.435 82.89 230.077 83.363C229.724 83.8318 229.232 84.1982 228.601 84.4624C227.97 84.7267 227.246 84.8588 226.428 84.8588C225.226 84.8588 224.259 84.6073 223.526 84.1045C222.793 83.5974 222.356 82.8921 222.215 81.9887L224.472 81.7714C224.574 82.2146 224.791 82.5491 225.124 82.7749C225.456 83.0008 225.888 83.1137 226.421 83.1137C226.971 83.1137 227.412 83.0008 227.744 82.7749C228.081 82.5491 228.249 82.27 228.249 81.9376C228.249 81.6563 228.141 81.4241 227.923 81.2409C227.71 81.0576 227.378 80.917 226.926 80.819L225.251 80.4674C224.31 80.2714 223.613 79.9411 223.161 79.4767C222.71 79.0079 222.486 78.4156 222.49 77.6997C222.486 77.0945 222.65 76.5704 222.982 76.1272C223.319 75.6798 223.786 75.3346 224.382 75.0917C224.983 74.8445 225.675 74.721 226.46 74.721C227.61 74.721 228.516 74.966 229.176 75.4561C229.841 75.9461 230.252 76.6088 230.41 77.444ZM236.875 84.8588C235.891 84.8588 235.041 84.6542 234.325 84.2451C233.613 83.8318 233.066 83.248 232.682 82.4937C232.299 81.7352 232.107 80.8424 232.107 79.8154C232.107 78.8055 232.299 77.9191 232.682 77.1563C233.07 76.3893 233.611 75.7927 234.306 75.3666C235 74.9362 235.816 74.721 236.754 74.721C237.359 74.721 237.93 74.819 238.467 75.015C239.008 75.2068 239.485 75.5051 239.899 75.9099C240.316 76.3147 240.645 76.8303 240.883 77.4568C241.122 78.0789 241.241 78.8204 241.241 79.6812V80.3907H233.194V78.8311H239.023C239.019 78.3879 238.923 77.9937 238.735 77.6485C238.548 77.2991 238.286 77.0242 237.949 76.824C237.617 76.6237 237.229 76.5235 236.786 76.5235C236.313 76.5235 235.897 76.6386 235.539 76.8687C235.181 77.0945 234.902 77.3928 234.702 77.7636C234.506 78.1301 234.406 78.5328 234.402 78.9717V80.3332C234.402 80.9042 234.506 81.3943 234.715 81.8034C234.924 82.2082 235.216 82.5193 235.591 82.7366C235.966 82.9497 236.404 83.0562 236.907 83.0562C237.244 83.0562 237.549 83.0093 237.821 82.9156C238.094 82.8176 238.331 82.6748 238.531 82.4873C238.731 82.2998 238.882 82.0676 238.985 81.7906L241.145 82.0335C241.009 82.6045 240.749 83.1031 240.365 83.5292C239.986 83.9511 239.5 84.2792 238.908 84.5136C238.316 84.7437 237.638 84.8588 236.875 84.8588ZM168.165 105.94V114.667H166.584V105.94H168.165ZM171.352 110.832V114.667H169.809V108.122H171.284V109.234H171.36C171.511 108.867 171.751 108.576 172.081 108.36C172.413 108.144 172.823 108.036 173.312 108.036C173.764 108.036 174.157 108.133 174.492 108.326C174.831 108.519 175.092 108.799 175.277 109.166C175.464 109.532 175.556 109.977 175.554 110.499V114.667H174.011V110.738C174.011 110.301 173.897 109.958 173.67 109.711C173.446 109.464 173.134 109.34 172.737 109.34C172.467 109.34 172.227 109.4 172.017 109.519C171.809 109.636 171.646 109.805 171.527 110.026C171.41 110.248 171.352 110.516 171.352 110.832ZM182.295 109.852L180.889 110.005C180.849 109.863 180.779 109.729 180.68 109.604C180.583 109.479 180.453 109.379 180.288 109.302C180.123 109.225 179.921 109.187 179.683 109.187C179.362 109.187 179.092 109.256 178.873 109.396C178.657 109.535 178.551 109.715 178.554 109.937C178.551 110.127 178.62 110.282 178.762 110.401C178.907 110.521 179.146 110.619 179.478 110.695L180.595 110.934C181.214 111.068 181.674 111.279 181.975 111.569C182.279 111.859 182.433 112.238 182.436 112.707C182.433 113.119 182.312 113.482 182.073 113.798C181.838 114.11 181.509 114.354 181.089 114.531C180.669 114.707 180.186 114.795 179.64 114.795C178.839 114.795 178.194 114.627 177.706 114.292C177.217 113.954 176.926 113.484 176.832 112.881L178.336 112.737C178.404 113.032 178.549 113.255 178.771 113.406C178.992 113.556 179.281 113.631 179.636 113.631C180.002 113.631 180.296 113.556 180.518 113.406C180.742 113.255 180.855 113.069 180.855 112.847C180.855 112.66 180.782 112.505 180.637 112.383C180.495 112.261 180.274 112.167 179.973 112.102L178.856 111.867C178.228 111.737 177.764 111.516 177.463 111.207C177.161 110.894 177.012 110.499 177.015 110.022C177.012 109.619 177.122 109.269 177.343 108.974C177.568 108.676 177.879 108.445 178.277 108.283C178.677 108.119 179.139 108.036 179.661 108.036C180.429 108.036 181.032 108.2 181.473 108.526C181.916 108.853 182.19 109.295 182.295 109.852ZM186.976 108.122V109.315H183.213V108.122H186.976ZM184.142 106.553H185.685V112.698C185.685 112.906 185.716 113.065 185.779 113.176C185.844 113.283 185.929 113.357 186.034 113.397C186.139 113.437 186.256 113.457 186.384 113.457C186.48 113.457 186.568 113.45 186.648 113.435C186.73 113.421 186.793 113.408 186.835 113.397L187.095 114.603C187.013 114.631 186.895 114.663 186.742 114.697C186.591 114.731 186.407 114.751 186.188 114.756C185.801 114.768 185.453 114.71 185.144 114.582C184.834 114.451 184.588 114.249 184.407 113.977C184.228 113.704 184.139 113.363 184.142 112.954V106.553ZM188.266 114.667V108.122H189.762V109.212H189.83C189.949 108.835 190.154 108.543 190.444 108.339C190.736 108.131 191.07 108.028 191.445 108.028C191.53 108.028 191.626 108.032 191.731 108.041C191.839 108.046 191.928 108.056 191.999 108.07V109.489C191.934 109.467 191.83 109.447 191.688 109.43C191.549 109.41 191.414 109.4 191.283 109.4C191.002 109.4 190.749 109.461 190.525 109.583C190.303 109.703 190.128 109.869 190.001 110.082C189.873 110.295 189.809 110.541 189.809 110.819V114.667H188.266ZM197.196 111.914V108.122H198.739V114.667H197.243V113.504H197.175C197.027 113.87 196.784 114.17 196.446 114.403C196.111 114.636 195.697 114.752 195.206 114.752C194.777 114.752 194.398 114.657 194.068 114.467C193.741 114.274 193.486 113.994 193.301 113.627C193.116 113.258 193.024 112.812 193.024 112.289V108.122H194.567V112.051C194.567 112.465 194.68 112.795 194.908 113.039C195.135 113.283 195.433 113.406 195.802 113.406C196.03 113.406 196.25 113.35 196.463 113.239C196.676 113.129 196.851 112.964 196.987 112.745C197.126 112.524 197.196 112.247 197.196 111.914ZM203.18 114.795C202.527 114.795 201.965 114.651 201.497 114.364C201.031 114.078 200.671 113.681 200.419 113.176C200.169 112.667 200.044 112.082 200.044 111.42C200.044 110.755 200.171 110.168 200.427 109.66C200.683 109.149 201.044 108.751 201.509 108.467C201.978 108.18 202.532 108.036 203.171 108.036C203.703 108.036 204.173 108.134 204.582 108.33C204.994 108.524 205.322 108.798 205.566 109.153C205.811 109.505 205.95 109.917 205.984 110.389H204.509C204.45 110.073 204.308 109.81 204.083 109.6C203.862 109.387 203.565 109.281 203.193 109.281C202.877 109.281 202.6 109.366 202.362 109.536C202.123 109.704 201.937 109.945 201.804 110.261C201.673 110.576 201.608 110.954 201.608 111.394C201.608 111.84 201.673 112.224 201.804 112.545C201.934 112.863 202.117 113.109 202.353 113.282C202.592 113.453 202.872 113.538 203.193 113.538C203.42 113.538 203.623 113.495 203.802 113.41C203.984 113.322 204.136 113.195 204.258 113.031C204.38 112.866 204.464 112.666 204.509 112.43H205.984C205.947 112.893 205.811 113.303 205.575 113.661C205.339 114.016 205.018 114.295 204.612 114.497C204.206 114.695 203.728 114.795 203.18 114.795ZM210.519 108.122V109.315H206.756V108.122H210.519ZM207.685 106.553H209.228V112.698C209.228 112.906 209.259 113.065 209.322 113.176C209.387 113.283 209.472 113.357 209.577 113.397C209.682 113.437 209.799 113.457 209.927 113.457C210.023 113.457 210.111 113.45 210.191 113.435C210.273 113.421 210.336 113.408 210.378 113.397L210.638 114.603C210.556 114.631 210.438 114.663 210.285 114.697C210.134 114.731 209.949 114.751 209.731 114.756C209.344 114.768 208.996 114.71 208.687 114.582C208.377 114.451 208.131 114.249 207.949 113.977C207.771 113.704 207.682 113.363 207.685 112.954V106.553ZM211.809 114.667V108.122H213.352V114.667H211.809ZM212.585 107.193C212.34 107.193 212.13 107.112 211.954 106.95C211.778 106.785 211.69 106.587 211.69 106.357C211.69 106.124 211.778 105.927 211.954 105.765C212.13 105.6 212.34 105.518 212.585 105.518C212.832 105.518 213.042 105.6 213.215 105.765C213.392 105.927 213.48 106.124 213.48 106.357C213.48 106.587 213.392 106.785 213.215 106.95C213.042 107.112 212.832 107.193 212.585 107.193ZM217.793 114.795C217.154 114.795 216.6 114.654 216.131 114.373C215.663 114.092 215.299 113.698 215.04 113.193C214.785 112.687 214.657 112.096 214.657 111.42C214.657 110.744 214.785 110.151 215.04 109.643C215.299 109.134 215.663 108.739 216.131 108.458C216.6 108.177 217.154 108.036 217.793 108.036C218.432 108.036 218.986 108.177 219.455 108.458C219.924 108.739 220.286 109.134 220.542 109.643C220.8 110.151 220.93 110.744 220.93 111.42C220.93 112.096 220.8 112.687 220.542 113.193C220.286 113.698 219.924 114.092 219.455 114.373C218.986 114.654 218.432 114.795 217.793 114.795ZM217.802 113.559C218.148 113.559 218.438 113.464 218.671 113.274C218.904 113.08 219.077 112.822 219.191 112.498C219.307 112.174 219.366 111.813 219.366 111.416C219.366 111.015 219.307 110.653 219.191 110.329C219.077 110.002 218.904 109.742 218.671 109.549C218.438 109.356 218.148 109.259 217.802 109.259C217.447 109.259 217.151 109.356 216.915 109.549C216.682 109.742 216.508 110.002 216.391 110.329C216.278 110.653 216.221 111.015 216.221 111.416C216.221 111.813 216.278 112.174 216.391 112.498C216.508 112.822 216.682 113.08 216.915 113.274C217.151 113.464 217.447 113.559 217.802 113.559ZM223.782 110.832V114.667H222.239V108.122H223.713V109.234H223.79C223.941 108.867 224.181 108.576 224.51 108.36C224.843 108.144 225.253 108.036 225.742 108.036C226.193 108.036 226.587 108.133 226.922 108.326C227.26 108.519 227.522 108.799 227.706 109.166C227.894 109.532 227.986 109.977 227.983 110.499V114.667H226.441V110.738C226.441 110.301 226.327 109.958 226.1 109.711C225.875 109.464 225.564 109.34 225.166 109.34C224.897 109.34 224.657 109.4 224.446 109.519C224.239 109.636 224.076 109.805 223.956 110.026C223.84 110.248 223.782 110.516 223.782 110.832ZM234.725 109.852L233.318 110.005C233.279 109.863 233.209 109.729 233.11 109.604C233.013 109.479 232.882 109.379 232.718 109.302C232.553 109.225 232.351 109.187 232.112 109.187C231.791 109.187 231.522 109.256 231.303 109.396C231.087 109.535 230.98 109.715 230.983 109.937C230.98 110.127 231.05 110.282 231.192 110.401C231.337 110.521 231.576 110.619 231.908 110.695L233.024 110.934C233.644 111.068 234.104 111.279 234.405 111.569C234.709 111.859 234.862 112.238 234.865 112.707C234.862 113.119 234.742 113.482 234.503 113.798C234.267 114.11 233.939 114.354 233.519 114.531C233.098 114.707 232.615 114.795 232.07 114.795C231.269 114.795 230.624 114.627 230.135 114.292C229.647 113.954 229.355 113.484 229.262 112.881L230.766 112.737C230.834 113.032 230.979 113.255 231.201 113.406C231.422 113.556 231.71 113.631 232.066 113.631C232.432 113.631 232.726 113.556 232.948 113.406C233.172 113.255 233.284 113.069 233.284 112.847C233.284 112.66 233.212 112.505 233.067 112.383C232.925 112.261 232.703 112.167 232.402 112.102L231.286 111.867C230.658 111.737 230.193 111.516 229.892 111.207C229.591 110.894 229.442 110.499 229.445 110.022C229.442 109.619 229.551 109.269 229.773 108.974C229.997 108.676 230.309 108.445 230.706 108.283C231.107 108.119 231.568 108.036 232.091 108.036C232.858 108.036 233.462 108.2 233.902 108.526C234.345 108.853 234.62 109.295 234.725 109.852ZM241.722 114.795C241.125 114.795 240.612 114.687 240.184 114.471C239.755 114.255 239.424 113.964 239.191 113.597C238.96 113.228 238.845 112.812 238.845 112.349C238.845 111.999 238.916 111.69 239.059 111.42C239.203 111.15 239.402 110.9 239.655 110.67C239.911 110.44 240.206 110.211 240.541 109.984L242.088 108.931C242.316 108.783 242.487 108.627 242.604 108.462C242.723 108.298 242.783 108.104 242.783 107.883C242.783 107.695 242.703 107.518 242.544 107.35C242.388 107.183 242.172 107.099 241.897 107.099C241.712 107.099 241.549 107.143 241.407 107.231C241.267 107.316 241.158 107.428 241.078 107.568C241.002 107.707 240.963 107.854 240.963 108.011C240.963 108.201 241.016 108.394 241.121 108.59C241.229 108.786 241.368 108.989 241.539 109.2C241.712 109.41 241.897 109.633 242.093 109.869L246.188 114.667H244.517L241.117 110.772C240.864 110.477 240.62 110.185 240.384 109.899C240.151 109.612 239.959 109.313 239.809 109.004C239.661 108.691 239.587 108.353 239.587 107.989C239.587 107.578 239.682 107.21 239.872 106.886C240.063 106.559 240.328 106.302 240.669 106.114C241.013 105.927 241.415 105.833 241.875 105.833C242.335 105.833 242.73 105.924 243.06 106.106C243.389 106.288 243.644 106.529 243.823 106.83C244.002 107.131 244.091 107.46 244.091 107.815C244.091 108.227 243.989 108.596 243.784 108.923C243.58 109.247 243.296 109.541 242.932 109.805L241.168 111.096C240.878 111.306 240.671 111.519 240.546 111.735C240.421 111.948 240.358 112.13 240.358 112.281C240.358 112.511 240.416 112.72 240.533 112.907C240.649 113.095 240.813 113.245 241.023 113.359C241.236 113.47 241.485 113.525 241.769 113.525C242.081 113.525 242.389 113.455 242.693 113.316C242.997 113.174 243.274 112.972 243.524 112.711C243.774 112.45 243.973 112.137 244.121 111.774C244.269 111.407 244.343 111.001 244.343 110.555H245.668C245.668 111.106 245.607 111.586 245.485 111.995C245.362 112.401 245.205 112.745 245.012 113.026C244.818 113.305 244.614 113.528 244.398 113.695C244.33 113.744 244.264 113.792 244.202 113.84C244.139 113.889 244.074 113.937 244.006 113.985C243.699 114.264 243.34 114.468 242.928 114.599C242.519 114.729 242.117 114.795 241.722 114.795ZM163.442 129.667H160.485V120.94H163.502C164.368 120.94 165.113 121.114 165.735 121.464C166.36 121.81 166.84 122.309 167.175 122.96C167.51 123.61 167.678 124.389 167.678 125.295C167.678 126.204 167.509 126.985 167.171 127.639C166.836 128.292 166.351 128.793 165.718 129.143C165.087 129.492 164.329 129.667 163.442 129.667ZM162.066 128.299H163.366C163.973 128.299 164.481 128.188 164.887 127.967C165.293 127.742 165.598 127.408 165.803 126.965C166.008 126.519 166.11 125.962 166.11 125.295C166.11 124.627 166.008 124.073 165.803 123.633C165.598 123.19 165.296 122.859 164.895 122.64C164.498 122.418 164.003 122.308 163.412 122.308H162.066V128.299ZM172.01 129.795C171.353 129.795 170.787 129.658 170.309 129.386C169.835 129.11 169.47 128.721 169.214 128.218C168.959 127.712 168.831 127.117 168.831 126.433C168.831 125.759 168.959 125.168 169.214 124.66C169.473 124.149 169.834 123.751 170.297 123.467C170.76 123.18 171.304 123.036 171.929 123.036C172.332 123.036 172.713 123.102 173.071 123.232C173.432 123.36 173.75 123.559 174.025 123.829C174.304 124.099 174.522 124.443 174.682 124.86C174.841 125.275 174.92 125.769 174.92 126.343V126.816H169.555V125.776H173.441C173.439 125.481 173.375 125.218 173.25 124.988C173.125 124.755 172.95 124.572 172.726 124.438C172.504 124.305 172.245 124.238 171.95 124.238C171.635 124.238 171.358 124.315 171.119 124.468C170.88 124.619 170.694 124.818 170.561 125.065C170.43 125.309 170.363 125.578 170.361 125.87V126.778C170.361 127.158 170.43 127.485 170.569 127.758C170.709 128.028 170.903 128.235 171.153 128.38C171.403 128.522 171.696 128.593 172.031 128.593C172.255 128.593 172.459 128.562 172.64 128.499C172.822 128.434 172.98 128.339 173.113 128.214C173.247 128.089 173.348 127.934 173.416 127.749L174.856 127.911C174.765 128.292 174.592 128.624 174.336 128.908C174.084 129.19 173.76 129.408 173.365 129.565C172.97 129.718 172.518 129.795 172.01 129.795ZM176.225 129.667V123.122H177.7V124.234H177.776C177.913 123.859 178.139 123.566 178.454 123.356C178.769 123.143 179.146 123.036 179.583 123.036C180.026 123.036 180.4 123.144 180.704 123.36C181.011 123.573 181.227 123.864 181.352 124.234H181.42C181.565 123.87 181.809 123.58 182.153 123.364C182.499 123.146 182.91 123.036 183.384 123.036C183.987 123.036 184.478 123.227 184.859 123.607C185.239 123.988 185.43 124.543 185.43 125.274V129.667H183.883V125.512C183.883 125.106 183.775 124.809 183.559 124.622C183.343 124.431 183.079 124.336 182.766 124.336C182.394 124.336 182.103 124.453 181.893 124.685C181.685 124.916 181.582 125.215 181.582 125.585V129.667H180.069V125.448C180.069 125.11 179.967 124.84 179.762 124.639C179.56 124.437 179.296 124.336 178.97 124.336C178.748 124.336 178.546 124.393 178.364 124.506C178.183 124.617 178.038 124.775 177.93 124.979C177.822 125.181 177.768 125.417 177.768 125.687V129.667H176.225ZM189.85 129.795C189.211 129.795 188.657 129.654 188.188 129.373C187.719 129.092 187.356 128.698 187.097 128.193C186.841 127.687 186.714 127.096 186.714 126.42C186.714 125.744 186.841 125.151 187.097 124.643C187.356 124.134 187.719 123.739 188.188 123.458C188.657 123.177 189.211 123.036 189.85 123.036C190.489 123.036 191.043 123.177 191.512 123.458C191.981 123.739 192.343 124.134 192.598 124.643C192.857 125.151 192.986 125.744 192.986 126.42C192.986 127.096 192.857 127.687 192.598 128.193C192.343 128.698 191.981 129.092 191.512 129.373C191.043 129.654 190.489 129.795 189.85 129.795ZM189.858 128.559C190.205 128.559 190.495 128.464 190.728 128.274C190.961 128.08 191.134 127.822 191.248 127.498C191.364 127.174 191.422 126.813 191.422 126.416C191.422 126.015 191.364 125.653 191.248 125.329C191.134 125.002 190.961 124.742 190.728 124.549C190.495 124.356 190.205 124.259 189.858 124.259C189.503 124.259 189.208 124.356 188.972 124.549C188.739 124.742 188.564 125.002 188.448 125.329C188.334 125.653 188.277 126.015 188.277 126.416C188.277 126.813 188.334 127.174 188.448 127.498C188.564 127.822 188.739 128.08 188.972 128.274C189.208 128.464 189.503 128.559 189.858 128.559ZM195.838 125.832V129.667H194.296V123.122H195.77V124.234H195.847C195.997 123.867 196.237 123.576 196.567 123.36C196.899 123.144 197.31 123.036 197.798 123.036C198.25 123.036 198.644 123.133 198.979 123.326C199.317 123.519 199.578 123.799 199.763 124.166C199.95 124.532 200.043 124.977 200.04 125.499V129.667H198.497V125.738C198.497 125.301 198.384 124.958 198.156 124.711C197.932 124.464 197.621 124.34 197.223 124.34C196.953 124.34 196.713 124.4 196.503 124.519C196.296 124.636 196.132 124.805 196.013 125.026C195.896 125.248 195.838 125.516 195.838 125.832ZM206.781 124.852L205.375 125.005C205.335 124.863 205.266 124.729 205.166 124.604C205.07 124.479 204.939 124.379 204.774 124.302C204.609 124.225 204.408 124.187 204.169 124.187C203.848 124.187 203.578 124.256 203.359 124.396C203.144 124.535 203.037 124.715 203.04 124.937C203.037 125.127 203.107 125.282 203.249 125.401C203.394 125.521 203.632 125.619 203.965 125.695L205.081 125.934C205.7 126.068 206.161 126.279 206.462 126.569C206.766 126.859 206.919 127.238 206.922 127.707C206.919 128.119 206.798 128.482 206.56 128.798C206.324 129.11 205.996 129.354 205.575 129.531C205.155 129.707 204.672 129.795 204.127 129.795C203.325 129.795 202.68 129.627 202.192 129.292C201.703 128.954 201.412 128.484 201.318 127.881L202.823 127.737C202.891 128.032 203.036 128.255 203.257 128.406C203.479 128.556 203.767 128.631 204.122 128.631C204.489 128.631 204.783 128.556 205.004 128.406C205.229 128.255 205.341 128.069 205.341 127.847C205.341 127.66 205.269 127.505 205.124 127.383C204.982 127.261 204.76 127.167 204.459 127.102L203.342 126.867C202.715 126.737 202.25 126.516 201.949 126.207C201.648 125.894 201.499 125.499 201.502 125.022C201.499 124.619 201.608 124.269 201.83 123.974C202.054 123.676 202.365 123.445 202.763 123.283C203.163 123.119 203.625 123.036 204.148 123.036C204.915 123.036 205.519 123.2 205.959 123.526C206.402 123.853 206.676 124.295 206.781 124.852ZM211.462 123.122V124.315H207.7V123.122H211.462ZM208.629 121.553H210.171V127.698C210.171 127.906 210.203 128.065 210.265 128.176C210.33 128.283 210.416 128.357 210.521 128.397C210.626 128.437 210.742 128.457 210.87 128.457C210.967 128.457 211.055 128.45 211.134 128.435C211.217 128.421 211.279 128.408 211.322 128.397L211.582 129.603C211.499 129.631 211.381 129.663 211.228 129.697C211.078 129.731 210.893 129.751 210.674 129.756C210.288 129.768 209.94 129.71 209.63 129.582C209.32 129.451 209.075 129.249 208.893 128.977C208.714 128.704 208.626 128.363 208.629 127.954V121.553ZM212.753 129.667V123.122H214.248V124.212H214.316C214.436 123.835 214.64 123.543 214.93 123.339C215.223 123.131 215.557 123.028 215.932 123.028C216.017 123.028 216.112 123.032 216.217 123.041C216.325 123.046 216.415 123.056 216.486 123.07V124.489C216.42 124.467 216.316 124.447 216.174 124.43C216.035 124.41 215.9 124.4 215.77 124.4C215.488 124.4 215.236 124.461 215.011 124.583C214.79 124.703 214.615 124.869 214.487 125.082C214.359 125.295 214.295 125.541 214.295 125.819V129.667H212.753ZM219.277 129.799C218.862 129.799 218.488 129.725 218.156 129.578C217.826 129.427 217.565 129.205 217.372 128.913C217.182 128.62 217.086 128.259 217.086 127.83C217.086 127.461 217.155 127.156 217.291 126.914C217.427 126.673 217.613 126.479 217.849 126.335C218.085 126.19 218.351 126.08 218.646 126.006C218.944 125.93 219.253 125.874 219.571 125.84C219.954 125.801 220.265 125.765 220.504 125.734C220.743 125.7 220.916 125.649 221.024 125.58C221.135 125.509 221.19 125.4 221.19 125.252V125.227C221.19 124.906 221.095 124.657 220.905 124.481C220.714 124.305 220.44 124.217 220.082 124.217C219.704 124.217 219.405 124.299 219.183 124.464C218.964 124.629 218.816 124.823 218.74 125.048L217.299 124.843C217.413 124.445 217.601 124.113 217.862 123.846C218.123 123.576 218.443 123.374 218.821 123.241C219.199 123.104 219.616 123.036 220.074 123.036C220.389 123.036 220.703 123.073 221.015 123.147C221.328 123.221 221.613 123.343 221.872 123.514C222.13 123.681 222.338 123.91 222.494 124.2C222.653 124.489 222.733 124.852 222.733 125.286V129.667H221.25V128.768H221.199C221.105 128.95 220.973 129.12 220.802 129.279C220.635 129.435 220.423 129.562 220.167 129.658C219.915 129.752 219.618 129.799 219.277 129.799ZM219.677 128.666C219.987 128.666 220.255 128.604 220.483 128.482C220.71 128.357 220.885 128.193 221.007 127.988C221.132 127.783 221.194 127.56 221.194 127.319V126.548C221.146 126.587 221.064 126.624 220.947 126.658C220.834 126.693 220.706 126.722 220.564 126.748C220.422 126.774 220.281 126.796 220.142 126.816C220.003 126.836 219.882 126.853 219.78 126.867C219.549 126.899 219.343 126.95 219.162 127.021C218.98 127.092 218.836 127.191 218.731 127.319C218.626 127.444 218.574 127.606 218.574 127.805C218.574 128.089 218.677 128.303 218.885 128.448C219.092 128.593 219.356 128.666 219.677 128.666ZM227.552 123.122V124.315H223.79V123.122H227.552ZM224.718 121.553H226.261V127.698C226.261 127.906 226.292 128.065 226.355 128.176C226.42 128.283 226.505 128.357 226.611 128.397C226.716 128.437 226.832 128.457 226.96 128.457C227.057 128.457 227.145 128.45 227.224 128.435C227.307 128.421 227.369 128.408 227.412 128.397L227.672 129.603C227.589 129.631 227.471 129.663 227.318 129.697C227.167 129.731 226.983 129.751 226.764 129.756C226.378 129.768 226.03 129.71 225.72 129.582C225.41 129.451 225.165 129.249 224.983 128.977C224.804 128.704 224.716 128.363 224.718 127.954V121.553ZM228.842 129.667V123.122H230.385V129.667H228.842ZM229.618 122.193C229.374 122.193 229.163 122.112 228.987 121.95C228.811 121.785 228.723 121.587 228.723 121.357C228.723 121.124 228.811 120.927 228.987 120.765C229.163 120.6 229.374 120.518 229.618 120.518C229.865 120.518 230.075 120.6 230.249 120.765C230.425 120.927 230.513 121.124 230.513 121.357C230.513 121.587 230.425 121.785 230.249 121.95C230.075 122.112 229.865 122.193 229.618 122.193ZM234.826 129.795C234.187 129.795 233.633 129.654 233.165 129.373C232.696 129.092 232.332 128.698 232.074 128.193C231.818 127.687 231.69 127.096 231.69 126.42C231.69 125.744 231.818 125.151 232.074 124.643C232.332 124.134 232.696 123.739 233.165 123.458C233.633 123.177 234.187 123.036 234.826 123.036C235.466 123.036 236.02 123.177 236.488 123.458C236.957 123.739 237.319 124.134 237.575 124.643C237.834 125.151 237.963 125.744 237.963 126.42C237.963 127.096 237.834 127.687 237.575 128.193C237.319 128.698 236.957 129.092 236.488 129.373C236.02 129.654 235.466 129.795 234.826 129.795ZM234.835 128.559C235.182 128.559 235.471 128.464 235.704 128.274C235.937 128.08 236.111 127.822 236.224 127.498C236.341 127.174 236.399 126.813 236.399 126.416C236.399 126.015 236.341 125.653 236.224 125.329C236.111 125.002 235.937 124.742 235.704 124.549C235.471 124.356 235.182 124.259 234.835 124.259C234.48 124.259 234.184 124.356 233.949 124.549C233.716 124.742 233.541 125.002 233.424 125.329C233.311 125.653 233.254 126.015 233.254 126.416C233.254 126.813 233.311 127.174 233.424 127.498C233.541 127.822 233.716 128.08 233.949 128.274C234.184 128.464 234.48 128.559 234.835 128.559ZM240.815 125.832V129.667H239.272V123.122H240.747V124.234H240.823C240.974 123.867 241.214 123.576 241.543 123.36C241.876 123.144 242.286 123.036 242.775 123.036C243.227 123.036 243.62 123.133 243.955 123.326C244.293 123.519 244.555 123.799 244.739 124.166C244.927 124.532 245.019 124.977 245.016 125.499V129.667H243.474V125.738C243.474 125.301 243.36 124.958 243.133 124.711C242.908 124.464 242.597 124.34 242.2 124.34C241.93 124.34 241.69 124.4 241.479 124.519C241.272 124.636 241.109 124.805 240.989 125.026C240.873 125.248 240.815 125.516 240.815 125.832ZM251.758 124.852L250.352 125.005C250.312 124.863 250.242 124.729 250.143 124.604C250.046 124.479 249.916 124.379 249.751 124.302C249.586 124.225 249.384 124.187 249.146 124.187C248.825 124.187 248.555 124.256 248.336 124.396C248.12 124.535 248.014 124.715 248.016 124.937C248.014 125.127 248.083 125.282 248.225 125.401C248.37 125.521 248.609 125.619 248.941 125.695L250.058 125.934C250.677 126.068 251.137 126.279 251.438 126.569C251.742 126.859 251.896 127.238 251.899 127.707C251.896 128.119 251.775 128.482 251.536 128.798C251.301 129.11 250.972 129.354 250.552 129.531C250.131 129.707 249.649 129.795 249.103 129.795C248.302 129.795 247.657 129.627 247.168 129.292C246.68 128.954 246.389 128.484 246.295 127.881L247.799 127.737C247.867 128.032 248.012 128.255 248.234 128.406C248.455 128.556 248.744 128.631 249.099 128.631C249.465 128.631 249.759 128.556 249.981 128.406C250.205 128.255 250.318 128.069 250.318 127.847C250.318 127.66 250.245 127.505 250.1 127.383C249.958 127.261 249.737 127.167 249.435 127.102L248.319 126.867C247.691 126.737 247.227 126.516 246.926 126.207C246.624 125.894 246.475 125.499 246.478 125.022C246.475 124.619 246.585 124.269 246.806 123.974C247.031 123.676 247.342 123.445 247.739 123.283C248.14 123.119 248.602 123.036 249.124 123.036C249.891 123.036 250.495 123.2 250.935 123.526C251.379 123.853 251.653 124.295 251.758 124.852Z" fill="#363636"/>
<path d="M142.8 211.273V220H141.394L137.282 214.055H137.209V220H135.628V211.273H137.043L141.151 217.222H141.228V211.273H142.8ZM147.352 220.128C146.696 220.128 146.129 219.991 145.652 219.719C145.178 219.443 144.813 219.054 144.557 218.551C144.301 218.045 144.173 217.45 144.173 216.766C144.173 216.092 144.301 215.501 144.557 214.993C144.816 214.482 145.176 214.084 145.639 213.8C146.102 213.513 146.646 213.369 147.271 213.369C147.675 213.369 148.056 213.435 148.414 213.565C148.774 213.693 149.093 213.892 149.368 214.162C149.646 214.432 149.865 214.776 150.024 215.193C150.183 215.608 150.263 216.102 150.263 216.676V217.149H144.898V216.109H148.784C148.781 215.814 148.718 215.551 148.593 215.321C148.468 215.088 148.293 214.905 148.068 214.771C147.847 214.638 147.588 214.571 147.293 214.571C146.977 214.571 146.7 214.648 146.462 214.801C146.223 214.952 146.037 215.151 145.904 215.398C145.773 215.642 145.706 215.911 145.703 216.203V217.111C145.703 217.491 145.773 217.818 145.912 218.091C146.051 218.361 146.246 218.568 146.496 218.713C146.746 218.855 147.039 218.926 147.374 218.926C147.598 218.926 147.801 218.895 147.983 218.832C148.165 218.767 148.323 218.672 148.456 218.547C148.59 218.422 148.691 218.267 148.759 218.082L150.199 218.244C150.108 218.625 149.935 218.957 149.679 219.241C149.426 219.523 149.102 219.741 148.708 219.898C148.313 220.051 147.861 220.128 147.352 220.128ZM152.884 220L151.034 213.455H152.607L153.757 218.057H153.817L154.993 213.455H156.548L157.725 218.031H157.789L158.922 213.455H160.499L158.645 220H157.039L155.811 215.577H155.722L154.494 220H152.884ZM169.363 213.672C169.324 213.3 169.156 213.01 168.861 212.803C168.568 212.595 168.187 212.491 167.719 212.491C167.389 212.491 167.106 212.541 166.871 212.641C166.635 212.74 166.454 212.875 166.329 213.045C166.204 213.216 166.14 213.411 166.138 213.629C166.138 213.811 166.179 213.969 166.261 214.102C166.346 214.236 166.461 214.349 166.606 214.443C166.751 214.534 166.912 214.611 167.088 214.673C167.264 214.736 167.442 214.788 167.621 214.831L168.439 215.036C168.768 215.112 169.085 215.216 169.389 215.347C169.696 215.477 169.97 215.642 170.211 215.841C170.456 216.04 170.649 216.28 170.791 216.561C170.933 216.842 171.004 217.172 171.004 217.55C171.004 218.061 170.873 218.511 170.612 218.901C170.351 219.287 169.973 219.589 169.479 219.808C168.987 220.024 168.392 220.132 167.693 220.132C167.014 220.132 166.425 220.027 165.925 219.817C165.427 219.607 165.038 219.3 164.757 218.896C164.479 218.493 164.328 218.001 164.305 217.422H165.861C165.883 217.726 165.977 217.979 166.142 218.18C166.307 218.382 166.521 218.533 166.785 218.632C167.052 218.732 167.351 218.781 167.68 218.781C168.024 218.781 168.325 218.73 168.584 218.628C168.845 218.523 169.05 218.378 169.197 218.193C169.345 218.006 169.42 217.787 169.423 217.537C169.42 217.31 169.354 217.122 169.223 216.974C169.092 216.824 168.909 216.699 168.673 216.599C168.44 216.497 168.167 216.406 167.855 216.327L166.862 216.071C166.143 215.886 165.575 215.607 165.157 215.232C164.743 214.854 164.535 214.352 164.535 213.727C164.535 213.213 164.675 212.763 164.953 212.376C165.234 211.99 165.616 211.69 166.099 211.477C166.582 211.261 167.129 211.153 167.74 211.153C168.359 211.153 168.902 211.261 169.368 211.477C169.836 211.69 170.204 211.987 170.471 212.368C170.738 212.746 170.876 213.18 170.885 213.672H169.363ZM173.304 222.455C173.094 222.455 172.899 222.438 172.72 222.403C172.544 222.372 172.404 222.335 172.298 222.293L172.656 221.091C172.881 221.156 173.081 221.188 173.257 221.185C173.433 221.182 173.588 221.126 173.722 221.018C173.858 220.913 173.973 220.737 174.067 220.49L174.199 220.136L171.825 213.455H173.462L174.97 218.398H175.039L176.551 213.455H178.192L175.571 220.793C175.449 221.139 175.287 221.436 175.085 221.683C174.884 221.933 174.637 222.124 174.344 222.254C174.054 222.388 173.708 222.455 173.304 222.455ZM184.433 215.185L183.026 215.338C182.987 215.196 182.917 215.062 182.818 214.938C182.721 214.812 182.59 214.712 182.426 214.635C182.261 214.558 182.059 214.52 181.82 214.52C181.499 214.52 181.23 214.589 181.011 214.729C180.795 214.868 180.688 215.048 180.691 215.27C180.688 215.46 180.758 215.615 180.9 215.734C181.045 215.854 181.284 215.952 181.616 216.028L182.732 216.267C183.352 216.401 183.812 216.612 184.113 216.902C184.417 217.192 184.57 217.571 184.573 218.04C184.57 218.452 184.45 218.815 184.211 219.131C183.975 219.443 183.647 219.687 183.227 219.864C182.806 220.04 182.323 220.128 181.778 220.128C180.977 220.128 180.332 219.96 179.843 219.625C179.355 219.287 179.063 218.817 178.97 218.214L180.474 218.07C180.542 218.365 180.687 218.588 180.909 218.739C181.13 218.889 181.419 218.964 181.774 218.964C182.14 218.964 182.434 218.889 182.656 218.739C182.88 218.588 182.992 218.402 182.992 218.18C182.992 217.993 182.92 217.838 182.775 217.716C182.633 217.594 182.411 217.5 182.11 217.435L180.994 217.2C180.366 217.07 179.901 216.849 179.6 216.54C179.299 216.227 179.15 215.832 179.153 215.355C179.15 214.952 179.259 214.602 179.481 214.307C179.705 214.009 180.017 213.778 180.414 213.616C180.815 213.452 181.276 213.369 181.799 213.369C182.566 213.369 183.17 213.533 183.61 213.859C184.053 214.186 184.328 214.628 184.433 215.185ZM189.114 213.455V214.648H185.351V213.455H189.114ZM186.28 211.886H187.823V218.031C187.823 218.239 187.854 218.398 187.916 218.509C187.982 218.616 188.067 218.69 188.172 218.73C188.277 218.77 188.394 218.79 188.521 218.79C188.618 218.79 188.706 218.783 188.786 218.768C188.868 218.754 188.931 218.741 188.973 218.73L189.233 219.936C189.151 219.964 189.033 219.996 188.879 220.03C188.729 220.064 188.544 220.084 188.325 220.089C187.939 220.101 187.591 220.043 187.281 219.915C186.972 219.784 186.726 219.582 186.544 219.31C186.365 219.037 186.277 218.696 186.28 218.287V211.886ZM193.231 220.128C192.575 220.128 192.008 219.991 191.531 219.719C191.057 219.443 190.692 219.054 190.436 218.551C190.18 218.045 190.052 217.45 190.052 216.766C190.052 216.092 190.18 215.501 190.436 214.993C190.694 214.482 191.055 214.084 191.518 213.8C191.981 213.513 192.525 213.369 193.15 213.369C193.554 213.369 193.934 213.435 194.292 213.565C194.653 213.693 194.971 213.892 195.247 214.162C195.525 214.432 195.744 214.776 195.903 215.193C196.062 215.608 196.142 216.102 196.142 216.676V217.149H190.777V216.109H194.663C194.66 215.814 194.596 215.551 194.471 215.321C194.346 215.088 194.172 214.905 193.947 214.771C193.726 214.638 193.467 214.571 193.172 214.571C192.856 214.571 192.579 214.648 192.341 214.801C192.102 214.952 191.916 215.151 191.782 215.398C191.652 215.642 191.585 215.911 191.582 216.203V217.111C191.582 217.491 191.652 217.818 191.791 218.091C191.93 218.361 192.125 218.568 192.375 218.713C192.625 218.855 192.917 218.926 193.253 218.926C193.477 218.926 193.68 218.895 193.862 218.832C194.044 218.767 194.202 218.672 194.335 218.547C194.469 218.422 194.569 218.267 194.638 218.082L196.078 218.244C195.987 218.625 195.814 218.957 195.558 219.241C195.305 219.523 194.981 219.741 194.586 219.898C194.192 220.051 193.74 220.128 193.231 220.128ZM197.447 220V213.455H198.921V214.567H198.998C199.134 214.192 199.36 213.899 199.676 213.689C199.991 213.476 200.367 213.369 200.805 213.369C201.248 213.369 201.622 213.477 201.926 213.693C202.232 213.906 202.448 214.197 202.573 214.567H202.642C202.786 214.203 203.031 213.913 203.374 213.697C203.721 213.479 204.132 213.369 204.606 213.369C205.208 213.369 205.7 213.56 206.08 213.94C206.461 214.321 206.651 214.876 206.651 215.607V220H205.105V215.845C205.105 215.439 204.997 215.142 204.781 214.955C204.565 214.764 204.301 214.669 203.988 214.669C203.616 214.669 203.325 214.786 203.115 215.018C202.907 215.249 202.803 215.548 202.803 215.918V220H201.291V215.781C201.291 215.443 201.188 215.173 200.984 214.972C200.782 214.77 200.518 214.669 200.191 214.669C199.97 214.669 199.768 214.726 199.586 214.839C199.404 214.95 199.259 215.108 199.151 215.312C199.044 215.514 198.99 215.75 198.99 216.02V220H197.447ZM211.261 220V211.273H214.534C215.204 211.273 215.767 211.398 216.221 211.648C216.679 211.898 217.024 212.241 217.257 212.679C217.493 213.114 217.611 213.608 217.611 214.162C217.611 214.722 217.493 215.219 217.257 215.653C217.021 216.088 216.673 216.43 216.213 216.68C215.753 216.928 215.186 217.051 214.513 217.051H212.344V215.751H214.3C214.692 215.751 215.013 215.683 215.263 215.547C215.513 215.411 215.697 215.223 215.817 214.984C215.939 214.746 216 214.472 216 214.162C216 213.852 215.939 213.58 215.817 213.344C215.697 213.108 215.511 212.925 215.258 212.794C215.008 212.661 214.686 212.594 214.291 212.594H212.842V220H211.261ZM218.916 220V213.455H220.411V214.545H220.48C220.599 214.168 220.803 213.876 221.093 213.672C221.386 213.464 221.72 213.361 222.095 213.361C222.18 213.361 222.275 213.365 222.38 213.374C222.488 213.379 222.578 213.389 222.649 213.403V214.822C222.583 214.8 222.48 214.78 222.338 214.763C222.198 214.743 222.063 214.733 221.933 214.733C221.651 214.733 221.399 214.794 221.174 214.916C220.953 215.036 220.778 215.202 220.65 215.415C220.522 215.628 220.458 215.874 220.458 216.152V220H218.916ZM226.259 220.128C225.62 220.128 225.066 219.987 224.597 219.706C224.128 219.425 223.765 219.031 223.506 218.526C223.251 218.02 223.123 217.429 223.123 216.753C223.123 216.077 223.251 215.484 223.506 214.976C223.765 214.467 224.128 214.072 224.597 213.791C225.066 213.51 225.62 213.369 226.259 213.369C226.898 213.369 227.452 213.51 227.921 213.791C228.39 214.072 228.752 214.467 229.008 214.976C229.266 215.484 229.395 216.077 229.395 216.753C229.395 217.429 229.266 218.02 229.008 218.526C228.752 219.031 228.39 219.425 227.921 219.706C227.452 219.987 226.898 220.128 226.259 220.128ZM226.268 218.892C226.614 218.892 226.904 218.797 227.137 218.607C227.37 218.413 227.543 218.155 227.657 217.831C227.773 217.507 227.831 217.146 227.831 216.749C227.831 216.348 227.773 215.986 227.657 215.662C227.543 215.335 227.37 215.075 227.137 214.882C226.904 214.689 226.614 214.592 226.268 214.592C225.912 214.592 225.617 214.689 225.381 214.882C225.148 215.075 224.974 215.335 224.857 215.662C224.743 215.986 224.687 216.348 224.687 216.749C224.687 217.146 224.743 217.507 224.857 217.831C224.974 218.155 225.148 218.413 225.381 218.607C225.617 218.797 225.912 218.892 226.268 218.892ZM230.705 220V213.455H232.179V214.567H232.256C232.392 214.192 232.618 213.899 232.933 213.689C233.249 213.476 233.625 213.369 234.063 213.369C234.506 213.369 234.879 213.477 235.183 213.693C235.49 213.906 235.706 214.197 235.831 214.567H235.899C236.044 214.203 236.289 213.913 236.632 213.697C236.979 213.479 237.389 213.369 237.864 213.369C238.466 213.369 238.958 213.56 239.338 213.94C239.719 214.321 239.909 214.876 239.909 215.607V220H238.362V215.845C238.362 215.439 238.254 215.142 238.039 214.955C237.823 214.764 237.558 214.669 237.246 214.669C236.874 214.669 236.583 214.786 236.372 215.018C236.165 215.249 236.061 215.548 236.061 215.918V220H234.548V215.781C234.548 215.443 234.446 215.173 234.242 214.972C234.04 214.77 233.776 214.669 233.449 214.669C233.227 214.669 233.026 214.726 232.844 214.839C232.662 214.95 232.517 215.108 232.409 215.312C232.301 215.514 232.247 215.75 232.247 216.02V220H230.705ZM241.474 222.455V213.455H242.991V214.537H243.081C243.16 214.378 243.273 214.209 243.417 214.03C243.562 213.848 243.758 213.693 244.006 213.565C244.253 213.435 244.568 213.369 244.952 213.369C245.457 213.369 245.913 213.499 246.319 213.757C246.729 214.013 247.052 214.392 247.291 214.895C247.532 215.395 247.653 216.009 247.653 216.736C247.653 217.455 247.535 218.065 247.3 218.568C247.064 219.071 246.743 219.455 246.336 219.719C245.93 219.983 245.47 220.115 244.956 220.115C244.581 220.115 244.27 220.053 244.023 219.928C243.775 219.803 243.577 219.652 243.426 219.476C243.278 219.297 243.163 219.128 243.081 218.969H243.017V222.455H241.474ZM242.987 216.727C242.987 217.151 243.047 217.521 243.166 217.839C243.288 218.158 243.463 218.406 243.69 218.585C243.92 218.761 244.199 218.849 244.525 218.849C244.866 218.849 245.152 218.759 245.382 218.577C245.612 218.392 245.785 218.141 245.902 217.822C246.021 217.501 246.081 217.136 246.081 216.727C246.081 216.321 246.023 215.96 245.906 215.645C245.79 215.33 245.616 215.082 245.386 214.903C245.156 214.724 244.869 214.635 244.525 214.635C244.196 214.635 243.916 214.722 243.686 214.895C243.456 215.068 243.281 215.311 243.162 215.624C243.045 215.936 242.987 216.304 242.987 216.727ZM252.243 213.455V214.648H248.48V213.455H252.243ZM249.409 211.886H250.952V218.031C250.952 218.239 250.983 218.398 251.045 218.509C251.111 218.616 251.196 218.69 251.301 218.73C251.406 218.77 251.523 218.79 251.65 218.79C251.747 218.79 251.835 218.783 251.915 218.768C251.997 218.754 252.059 218.741 252.102 218.73L252.362 219.936C252.28 219.964 252.162 219.996 252.008 220.03C251.858 220.064 251.673 220.084 251.454 220.089C251.068 220.101 250.72 220.043 250.41 219.915C250.101 219.784 249.855 219.582 249.673 219.31C249.494 219.037 249.406 218.696 249.409 218.287V211.886ZM258.612 215.185L257.206 215.338C257.166 215.196 257.097 215.062 256.997 214.938C256.901 214.812 256.77 214.712 256.605 214.635C256.441 214.558 256.239 214.52 256 214.52C255.679 214.52 255.409 214.589 255.191 214.729C254.975 214.868 254.868 215.048 254.871 215.27C254.868 215.46 254.938 215.615 255.08 215.734C255.225 215.854 255.463 215.952 255.796 216.028L256.912 216.267C257.531 216.401 257.992 216.612 258.293 216.902C258.597 217.192 258.75 217.571 258.753 218.04C258.75 218.452 258.629 218.815 258.391 219.131C258.155 219.443 257.827 219.687 257.406 219.864C256.986 220.04 256.503 220.128 255.958 220.128C255.156 220.128 254.512 219.96 254.023 219.625C253.534 219.287 253.243 218.817 253.149 218.214L254.654 218.07C254.722 218.365 254.867 218.588 255.088 218.739C255.31 218.889 255.598 218.964 255.953 218.964C256.32 218.964 256.614 218.889 256.835 218.739C257.06 218.588 257.172 218.402 257.172 218.18C257.172 217.993 257.1 217.838 256.955 217.716C256.813 217.594 256.591 217.5 256.29 217.435L255.173 217.2C254.546 217.07 254.081 216.849 253.78 216.54C253.479 216.227 253.33 215.832 253.333 215.355C253.33 214.952 253.439 214.602 253.661 214.307C253.885 214.009 254.196 213.778 254.594 213.616C254.994 213.452 255.456 213.369 255.979 213.369C256.746 213.369 257.35 213.533 257.79 213.859C258.233 214.186 258.507 214.628 258.612 215.185Z" fill="#363636"/>
<rect x="355" y="50" width="150" height="100" rx="10" fill="url(#paint6_linear_648_357)"/>
<path d="M360 60C360 57.2386 362.239 55 365 55H495C497.761 55 500 57.2386 500 60V140C500 142.761 497.761 145 495 145H365C362.239 145 360 142.761 360 140V60Z" fill="white" fill-opacity="0.25"/>
<path d="M393.921 106.667V93.5761H402.435V95.564H396.293V99.118H401.994V101.106H396.293V104.679H402.486V106.667H393.921ZM413.522 96.8488L410.026 106.667H407.469L403.973 96.8488H406.44L408.696 104.142H408.799L411.061 96.8488H413.522ZM417.668 106.865C417.045 106.865 416.485 106.754 415.986 106.533C415.492 106.307 415.1 105.975 414.81 105.536C414.525 105.097 414.382 104.555 414.382 103.912C414.382 103.358 414.484 102.9 414.689 102.538C414.893 102.176 415.172 101.886 415.526 101.668C415.88 101.451 416.278 101.287 416.722 101.176C417.169 101.061 417.631 100.978 418.109 100.927C418.684 100.867 419.15 100.814 419.508 100.767C419.866 100.716 420.126 100.639 420.288 100.537C420.454 100.43 420.538 100.266 420.538 100.045V100.006C420.538 99.5249 420.395 99.1521 420.109 98.8879C419.824 98.6237 419.413 98.4916 418.876 98.4916C418.309 98.4916 417.859 98.6151 417.527 98.8623C417.199 99.1095 416.977 99.4014 416.862 99.738L414.702 99.4312C414.872 98.8346 415.153 98.336 415.545 97.9355C415.937 97.5306 416.417 97.2281 416.984 97.0278C417.55 96.8232 418.177 96.721 418.863 96.721C419.336 96.721 419.807 96.7764 420.275 96.8872C420.744 96.998 421.172 97.1812 421.56 97.4369C421.948 97.6883 422.259 98.0313 422.494 98.466C422.732 98.9007 422.851 99.444 422.851 100.096V106.667H420.627V105.318H420.55C420.41 105.591 420.212 105.847 419.956 106.085C419.704 106.32 419.387 106.509 419.003 106.654C418.624 106.795 418.179 106.865 417.668 106.865ZM418.268 105.165C418.733 105.165 419.136 105.073 419.476 104.89C419.817 104.703 420.079 104.455 420.263 104.149C420.45 103.842 420.544 103.507 420.544 103.145V101.988C420.472 102.048 420.348 102.103 420.173 102.154C420.003 102.205 419.811 102.25 419.598 102.288C419.385 102.327 419.174 102.361 418.965 102.391C418.756 102.421 418.575 102.446 418.422 102.467C418.077 102.514 417.768 102.591 417.495 102.698C417.222 102.804 417.007 102.953 416.849 103.145C416.692 103.332 416.613 103.575 416.613 103.874C416.613 104.3 416.768 104.622 417.079 104.839C417.391 105.056 417.787 105.165 418.268 105.165ZM427.492 93.5761V106.667H425.178V93.5761H427.492ZM436.129 102.538V96.8488H438.443V106.667H436.2V104.922H436.097C435.876 105.472 435.511 105.921 435.004 106.271C434.502 106.62 433.881 106.795 433.144 106.795C432.501 106.795 431.932 106.652 431.438 106.367C430.948 106.077 430.564 105.657 430.287 105.107C430.01 104.553 429.872 103.884 429.872 103.1V96.8488H432.185V102.742C432.185 103.364 432.356 103.859 432.697 104.225C433.038 104.592 433.485 104.775 434.039 104.775C434.38 104.775 434.71 104.692 435.03 104.526C435.35 104.359 435.612 104.112 435.816 103.784C436.025 103.452 436.129 103.036 436.129 102.538ZM443.648 106.865C443.026 106.865 442.465 106.754 441.967 106.533C441.473 106.307 441.081 105.975 440.791 105.536C440.505 105.097 440.362 104.555 440.362 103.912C440.362 103.358 440.465 102.9 440.669 102.538C440.874 102.176 441.153 101.886 441.507 101.668C441.86 101.451 442.259 101.287 442.702 101.176C443.149 101.061 443.612 100.978 444.089 100.927C444.664 100.867 445.131 100.814 445.489 100.767C445.847 100.716 446.107 100.639 446.269 100.537C446.435 100.43 446.518 100.266 446.518 100.045V100.006C446.518 99.5249 446.375 99.1521 446.09 98.8879C445.804 98.6237 445.393 98.4916 444.856 98.4916C444.289 98.4916 443.84 98.6151 443.507 98.8623C443.179 99.1095 442.958 99.4014 442.843 99.738L440.682 99.4312C440.853 98.8346 441.134 98.336 441.526 97.9355C441.918 97.5306 442.397 97.2281 442.964 97.0278C443.531 96.8232 444.157 96.721 444.843 96.721C445.316 96.721 445.787 96.7764 446.256 96.8872C446.725 96.998 447.153 97.1812 447.541 97.4369C447.929 97.6883 448.24 98.0313 448.474 98.466C448.713 98.9007 448.832 99.444 448.832 100.096V106.667H446.608V105.318H446.531C446.39 105.591 446.192 105.847 445.936 106.085C445.685 106.32 445.367 106.509 444.984 106.654C444.605 106.795 444.159 106.865 443.648 106.865ZM444.249 105.165C444.713 105.165 445.116 105.073 445.457 104.89C445.798 104.703 446.06 104.455 446.243 104.149C446.431 103.842 446.524 103.507 446.524 103.145V101.988C446.452 102.048 446.328 102.103 446.154 102.154C445.983 102.205 445.791 102.25 445.578 102.288C445.365 102.327 445.154 102.361 444.946 102.391C444.737 102.421 444.556 102.446 444.402 102.467C444.057 102.514 443.748 102.591 443.475 102.698C443.203 102.804 442.987 102.953 442.83 103.145C442.672 103.332 442.593 103.575 442.593 103.874C442.593 104.3 442.749 104.622 443.06 104.839C443.371 105.056 443.767 105.165 444.249 105.165ZM456.061 96.8488V98.6386H450.417V96.8488H456.061ZM451.811 94.4965H454.125V103.714C454.125 104.025 454.171 104.264 454.265 104.43C454.363 104.592 454.491 104.703 454.649 104.762C454.806 104.822 454.981 104.852 455.173 104.852C455.318 104.852 455.45 104.841 455.569 104.82C455.693 104.798 455.786 104.779 455.85 104.762L456.24 106.571C456.117 106.614 455.94 106.661 455.71 106.712C455.484 106.763 455.207 106.793 454.879 106.801C454.299 106.818 453.777 106.731 453.313 106.539C452.848 106.343 452.48 106.041 452.207 105.631C451.938 105.222 451.806 104.711 451.811 104.097V94.4965ZM462.238 106.859C461.253 106.859 460.403 106.654 459.687 106.245C458.976 105.832 458.428 105.248 458.044 104.494C457.661 103.735 457.469 102.842 457.469 101.815C457.469 100.805 457.661 99.9191 458.044 99.1563C458.432 98.3893 458.973 97.7927 459.668 97.3666C460.363 96.9362 461.179 96.721 462.116 96.721C462.721 96.721 463.292 96.819 463.829 97.015C464.37 97.2068 464.848 97.5051 465.261 97.9099C465.679 98.3147 466.007 98.8303 466.245 99.4568C466.484 100.079 466.603 100.82 466.603 101.681V102.391H458.556V100.831H464.385C464.381 100.388 464.285 99.9937 464.098 99.6485C463.91 99.2991 463.648 99.0242 463.312 98.824C462.979 98.6237 462.591 98.5235 462.148 98.5235C461.675 98.5235 461.26 98.6386 460.902 98.8687C460.544 99.0945 460.265 99.3928 460.064 99.7636C459.868 100.13 459.768 100.533 459.764 100.972V102.333C459.764 102.904 459.868 103.394 460.077 103.803C460.286 104.208 460.578 104.519 460.953 104.737C461.328 104.95 461.767 105.056 462.27 105.056C462.606 105.056 462.911 105.009 463.184 104.916C463.456 104.818 463.693 104.675 463.893 104.487C464.093 104.3 464.245 104.068 464.347 103.791L466.508 104.033C466.371 104.604 466.111 105.103 465.728 105.529C465.348 105.951 464.863 106.279 464.27 106.514C463.678 106.744 463 106.859 462.238 106.859Z" fill="#363636"/>
<path d="M430 224C433.283 224 436.534 224.647 439.567 225.903C442.6 227.159 445.356 229.001 447.678 231.322C449.999 233.644 451.841 236.4 453.097 239.433C454.353 242.466 455 245.717 455 249" stroke="#363636" stroke-width="2"/>
<path d="M455 300L449.226 290L460.774 290L455 300ZM454 291L454 249L456 249L456 291L454 291Z" fill="#363636"/>
<path d="M295 224C298.283 224 301.534 224.647 304.567 225.903C307.6 227.159 310.356 229.001 312.678 231.322C314.999 233.644 316.841 236.4 318.097 239.433C319.353 242.466 320 245.717 320 249" stroke="#363636" stroke-width="2"/>
<path d="M160 224C163.283 224 166.534 224.647 169.567 225.903C172.6 227.159 175.356 229.001 177.678 231.322C179.999 233.644 181.841 236.4 183.097 239.433C184.353 242.466 185 245.717 185 249" stroke="#363636" stroke-width="2"/>
<path d="M99 125C99 121.717 99.6466 118.466 100.903 115.433C102.159 112.4 104.001 109.644 106.322 107.322C108.644 105.001 111.4 103.159 114.433 101.903C117.466 100.647 120.717 100 124 100" stroke="#363636" stroke-width="2"/>
<path d="M320 300L314.226 290L325.774 290L320 300ZM319 291L319 249L321 249L321 291L319 291Z" fill="#363636"/>
<path d="M185 300L179.226 290L190.774 290L185 300ZM184 291L184 249L186 249L186 291L184 291Z" fill="#363636"/>
<line x1="431" y1="224" x2="124" y2="224" stroke="#363636" stroke-width="2"/>
<line x1="589" y1="300" x2="589" y2="125" stroke="#363636" stroke-width="2"/>
<line x1="131" y1="100" x2="124" y2="100" stroke="#363636" stroke-width="2"/>
<path d="M564 100C567.283 100 570.534 100.647 573.567 101.903C576.6 103.159 579.356 105.001 581.678 107.322C583.999 109.644 585.841 112.4 587.097 115.433C588.353 118.466 589 121.717 589 125" stroke="#363636" stroke-width="2"/>
<line x1="556" y1="100" x2="549" y2="100" stroke="#363636" stroke-width="2"/>
<line x1="99" y1="199" x2="99" y2="124" stroke="#363636" stroke-width="2"/>
<path d="M99 199C99 202.283 99.6466 205.534 100.903 208.567C102.159 211.6 104.001 214.356 106.322 216.678C108.644 218.999 111.4 220.841 114.433 222.097C117.466 223.353 120.717 224 124 224" stroke="#363636" stroke-width="2"/>
<path d="M281 100L291 94.2265L291 105.774L281 100ZM290 99L355 99L355 101L290 101L290 99Z" fill="#363636"/>
<path d="M505 100L515 105.774L515 94.2265L505 100ZM514 101L564 101L564 99L514 99L514 101Z" fill="#363636"/>
<path d="M135 350L125 355.774L125 344.226L135 350ZM126 351L100 351L100 349L126 349L126 351Z" fill="#363636"/>
<path d="M270 350L260 355.774L260 344.226L270 350ZM261 351L235 351L235 349L261 349L261 351Z" fill="#363636"/>
<path d="M405 350L395 355.774L395 344.226L405 350ZM396 351L370 351L370 349L396 349L396 351Z" fill="#363636"/>
<path d="M540 350L530 355.774L530 344.226L540 350ZM531 351L505 351L505 349L531 349L531 351Z" fill="#363636"/>
<defs>
<linearGradient id="paint0_linear_648_357" x1="-1.35595e-06" y1="299.833" x2="99.82" y2="400.055" gradientUnits="userSpaceOnUse">
<stop stop-color="#D9D9D9"/>
<stop offset="1" stop-color="#C8C8C8"/>
</linearGradient>
<linearGradient id="paint1_linear_648_357" x1="540" y1="299.833" x2="639.82" y2="400.055" gradientUnits="userSpaceOnUse">
<stop stop-color="#D9D9D9"/>
<stop offset="1" stop-color="#C8C8C8"/>
</linearGradient>
<linearGradient id="paint2_linear_648_357" x1="135.042" y1="299.833" x2="226.41" y2="400.055" gradientUnits="userSpaceOnUse">
<stop stop-color="#FFB56D"/>
<stop offset="1" stop-color="#FF8A32"/>
</linearGradient>
<linearGradient id="paint3_linear_648_357" x1="405.042" y1="299.833" x2="496.41" y2="400.055" gradientUnits="userSpaceOnUse">
<stop stop-color="#FFB56D"/>
<stop offset="1" stop-color="#FF8A32"/>
</linearGradient>
<linearGradient id="paint4_linear_648_357" x1="270.042" y1="299.833" x2="361.41" y2="400.055" gradientUnits="userSpaceOnUse">
<stop stop-color="#FFB56D"/>
<stop offset="1" stop-color="#FF8A32"/>
</linearGradient>
<linearGradient id="paint5_linear_648_357" x1="131.064" y1="49.8325" x2="212.513" y2="183.848" gradientUnits="userSpaceOnUse">
<stop stop-color="#FFB56D"/>
<stop offset="1" stop-color="#FF8A32"/>
</linearGradient>
<linearGradient id="paint6_linear_648_357" x1="355.064" y1="49.8325" x2="436.513" y2="183.848" gradientUnits="userSpaceOnUse">
<stop stop-color="#FFB56D"/>
<stop offset="1" stop-color="#FF8A32"/>
</linearGradient>
</defs>
</svg>
