<svg width="640" height="640" viewBox="0 0 640 640" fill="none" xmlns="http://www.w3.org/2000/svg">
<rect width="640" height="640" fill="white"/>
<rect x="65" y="321" width="200" height="100" rx="10" fill="url(#paint0_linear_665_211)"/>
<path d="M70 331C70 328.239 72.2386 326 75 326H255C257.761 326 260 328.239 260 331V411C260 413.761 257.761 416 255 416H75C72.2386 416 70 413.761 70 411V331Z" fill="white" fill-opacity="0.25"/>
<path d="M128.314 378V364.909H133.223C134.228 364.909 135.072 365.084 135.754 365.433C136.44 365.783 136.958 366.273 137.307 366.903C137.661 367.53 137.838 368.261 137.838 369.096C137.838 369.935 137.659 370.664 137.301 371.282C136.947 371.896 136.425 372.371 135.735 372.707C135.044 373.04 134.196 373.206 133.191 373.206H129.694V371.237H132.871C133.459 371.237 133.941 371.156 134.316 370.994C134.691 370.828 134.968 370.587 135.147 370.272C135.33 369.952 135.422 369.56 135.422 369.096C135.422 368.631 135.33 368.235 135.147 367.907C134.964 367.575 134.684 367.323 134.309 367.153C133.934 366.978 133.451 366.891 132.858 366.891H130.685V378H128.314ZM135.076 372.068L138.317 378H135.671L132.488 372.068H135.076ZM144.124 378.192C143.14 378.192 142.29 377.987 141.574 377.578C140.862 377.165 140.315 376.581 139.931 375.827C139.548 375.068 139.356 374.175 139.356 373.148C139.356 372.138 139.548 371.252 139.931 370.489C140.319 369.722 140.86 369.126 141.555 368.7C142.249 368.269 143.065 368.054 144.003 368.054C144.608 368.054 145.179 368.152 145.716 368.348C146.257 368.54 146.734 368.838 147.148 369.243C147.565 369.648 147.894 370.163 148.132 370.79C148.371 371.412 148.49 372.153 148.49 373.014V373.724H140.443V372.164H146.272C146.268 371.721 146.172 371.327 145.984 370.982C145.797 370.632 145.535 370.357 145.198 370.157C144.866 369.957 144.478 369.857 144.035 369.857C143.562 369.857 143.146 369.972 142.788 370.202C142.43 370.428 142.151 370.726 141.951 371.097C141.755 371.463 141.655 371.866 141.651 372.305V373.666C141.651 374.237 141.755 374.727 141.964 375.136C142.173 375.541 142.465 375.852 142.84 376.07C143.215 376.283 143.653 376.389 144.156 376.389C144.493 376.389 144.798 376.342 145.07 376.249C145.343 376.151 145.58 376.008 145.78 375.82C145.98 375.633 146.131 375.401 146.234 375.124L148.394 375.366C148.258 375.937 147.998 376.436 147.614 376.862C147.235 377.284 146.749 377.612 146.157 377.847C145.565 378.077 144.887 378.192 144.124 378.192ZM158.208 370.777L156.098 371.007C156.039 370.794 155.934 370.594 155.785 370.406C155.64 370.219 155.444 370.067 155.197 369.952C154.95 369.837 154.647 369.78 154.289 369.78C153.808 369.78 153.403 369.884 153.075 370.093C152.751 370.302 152.591 370.572 152.595 370.905C152.591 371.19 152.696 371.423 152.909 371.602C153.126 371.781 153.484 371.928 153.983 372.043L155.657 372.401C156.586 372.601 157.277 372.918 157.728 373.353C158.184 373.788 158.414 374.357 158.419 375.06C158.414 375.678 158.233 376.223 157.875 376.696C157.522 377.165 157.029 377.531 156.399 377.795C155.768 378.06 155.044 378.192 154.225 378.192C153.024 378.192 152.056 377.94 151.323 377.438C150.59 376.93 150.154 376.225 150.013 375.322L152.269 375.104C152.372 375.548 152.589 375.882 152.921 376.108C153.254 376.334 153.686 376.447 154.219 376.447C154.769 376.447 155.21 376.334 155.542 376.108C155.879 375.882 156.047 375.603 156.047 375.271C156.047 374.989 155.938 374.757 155.721 374.574C155.508 374.391 155.176 374.25 154.724 374.152L153.049 373.8C152.108 373.604 151.411 373.274 150.959 372.81C150.507 372.341 150.284 371.749 150.288 371.033C150.284 370.428 150.448 369.903 150.78 369.46C151.117 369.013 151.583 368.668 152.18 368.425C152.781 368.178 153.473 368.054 154.257 368.054C155.408 368.054 156.313 368.299 156.974 368.789C157.639 369.279 158.05 369.942 158.208 370.777ZM160.327 381.682V368.182H162.602V369.805H162.736C162.856 369.567 163.024 369.313 163.241 369.045C163.459 368.772 163.753 368.54 164.123 368.348C164.494 368.152 164.967 368.054 165.543 368.054C166.301 368.054 166.985 368.248 167.594 368.636C168.208 369.019 168.694 369.588 169.052 370.342C169.414 371.092 169.595 372.013 169.595 373.104C169.595 374.182 169.418 375.098 169.065 375.852C168.711 376.607 168.229 377.182 167.62 377.578C167.011 377.974 166.32 378.173 165.549 378.173C164.986 378.173 164.52 378.079 164.149 377.891C163.778 377.704 163.48 377.478 163.254 377.214C163.033 376.945 162.86 376.692 162.736 376.453H162.641V381.682H160.327ZM162.596 373.091C162.596 373.726 162.685 374.282 162.864 374.759C163.047 375.237 163.31 375.609 163.65 375.878C163.996 376.142 164.413 376.274 164.903 376.274C165.415 376.274 165.843 376.138 166.188 375.865C166.533 375.588 166.793 375.211 166.968 374.734C167.147 374.252 167.236 373.705 167.236 373.091C167.236 372.482 167.149 371.94 166.974 371.467C166.8 370.994 166.54 370.624 166.195 370.355C165.849 370.087 165.419 369.952 164.903 369.952C164.409 369.952 163.989 370.082 163.644 370.342C163.299 370.602 163.037 370.967 162.858 371.435C162.683 371.904 162.596 372.456 162.596 373.091ZM175.859 378.192C174.9 378.192 174.07 377.981 173.366 377.559C172.663 377.137 172.118 376.547 171.73 375.788C171.347 375.03 171.155 374.143 171.155 373.129C171.155 372.115 171.347 371.227 171.73 370.464C172.118 369.701 172.663 369.109 173.366 368.687C174.07 368.265 174.9 368.054 175.859 368.054C176.818 368.054 177.649 368.265 178.352 368.687C179.055 369.109 179.599 369.701 179.982 370.464C180.37 371.227 180.564 372.115 180.564 373.129C180.564 374.143 180.37 375.03 179.982 375.788C179.599 376.547 179.055 377.137 178.352 377.559C177.649 377.981 176.818 378.192 175.859 378.192ZM175.872 376.338C176.392 376.338 176.827 376.195 177.176 375.91C177.525 375.62 177.785 375.232 177.956 374.746C178.131 374.261 178.218 373.719 178.218 373.123C178.218 372.522 178.131 371.979 177.956 371.493C177.785 371.003 177.525 370.613 177.176 370.323C176.827 370.033 176.392 369.888 175.872 369.888C175.339 369.888 174.896 370.033 174.543 370.323C174.193 370.613 173.931 371.003 173.756 371.493C173.586 371.979 173.501 372.522 173.501 373.123C173.501 373.719 173.586 374.261 173.756 374.746C173.931 375.232 174.193 375.62 174.543 375.91C174.896 376.195 175.339 376.338 175.872 376.338ZM184.842 372.247V378H182.528V368.182H184.739V369.85H184.854C185.08 369.3 185.44 368.864 185.935 368.54C186.433 368.216 187.049 368.054 187.782 368.054C188.46 368.054 189.05 368.199 189.553 368.489C190.06 368.778 190.452 369.198 190.729 369.748C191.01 370.298 191.149 370.964 191.144 371.749V378H188.83V372.107C188.83 371.45 188.66 370.937 188.319 370.566C187.982 370.195 187.516 370.01 186.919 370.01C186.514 370.01 186.154 370.099 185.839 370.278C185.528 370.453 185.283 370.707 185.104 371.039C184.929 371.371 184.842 371.774 184.842 372.247ZM197.843 378.192C196.859 378.192 196.009 377.987 195.293 377.578C194.581 377.165 194.033 376.581 193.65 375.827C193.266 375.068 193.075 374.175 193.075 373.148C193.075 372.138 193.266 371.252 193.65 370.489C194.038 369.722 194.579 369.126 195.274 368.7C195.968 368.269 196.784 368.054 197.722 368.054C198.327 368.054 198.898 368.152 199.435 368.348C199.976 368.54 200.453 368.838 200.867 369.243C201.284 369.648 201.612 370.163 201.851 370.79C202.09 371.412 202.209 372.153 202.209 373.014V373.724H194.161V372.164H199.991C199.987 371.721 199.891 371.327 199.703 370.982C199.516 370.632 199.254 370.357 198.917 370.157C198.585 369.957 198.197 369.857 197.754 369.857C197.281 369.857 196.865 369.972 196.507 370.202C196.149 370.428 195.87 370.726 195.67 371.097C195.474 371.463 195.374 371.866 195.369 372.305V373.666C195.369 374.237 195.474 374.727 195.683 375.136C195.891 375.541 196.183 375.852 196.558 376.07C196.933 376.283 197.372 376.389 197.875 376.389C198.212 376.389 198.516 376.342 198.789 376.249C199.062 376.151 199.298 376.008 199.499 375.82C199.699 375.633 199.85 375.401 199.953 375.124L202.113 375.366C201.977 375.937 201.717 376.436 201.333 376.862C200.954 377.284 200.468 377.612 199.876 377.847C199.283 378.077 198.606 378.192 197.843 378.192Z" fill="#363636"/>
<rect x="65" y="171" width="200" height="100" rx="10" fill="url(#paint1_linear_665_211)"/>
<path d="M70 181C70 178.239 72.2386 176 75 176H255C257.761 176 260 178.239 260 181V261C260 263.761 257.761 266 255 266H75C72.2386 266 70 263.761 70 261V181Z" fill="white" fill-opacity="0.25"/>
<path d="M144.476 223.602H146.624L147.896 225.251L148.803 226.325L150.983 229.125H148.682L147.199 227.246L146.566 226.351L144.476 223.602ZM151.296 221.455C151.296 222.865 151.032 224.073 150.504 225.079C149.979 226.08 149.264 226.847 148.356 227.38C147.453 227.913 146.428 228.179 145.281 228.179C144.135 228.179 143.108 227.913 142.2 227.38C141.297 226.843 140.581 226.074 140.053 225.072C139.528 224.067 139.266 222.861 139.266 221.455C139.266 220.044 139.528 218.838 140.053 217.837C140.581 216.831 141.297 216.062 142.2 215.529C143.108 214.996 144.135 214.73 145.281 214.73C146.428 214.73 147.453 214.996 148.356 215.529C149.264 216.062 149.979 216.831 150.504 217.837C151.032 218.838 151.296 220.044 151.296 221.455ZM148.912 221.455C148.912 220.462 148.756 219.624 148.445 218.942C148.139 218.256 147.712 217.739 147.167 217.389C146.622 217.036 145.993 216.859 145.281 216.859C144.57 216.859 143.941 217.036 143.396 217.389C142.85 217.739 142.422 218.256 142.111 218.942C141.804 219.624 141.651 220.462 141.651 221.455C141.651 222.447 141.804 223.287 142.111 223.973C142.422 224.655 142.85 225.173 143.396 225.526C143.941 225.876 144.57 226.05 145.281 226.05C145.993 226.05 146.622 225.876 147.167 225.526C147.712 225.173 148.139 224.655 148.445 223.973C148.756 223.287 148.912 222.447 148.912 221.455ZM159.711 223.871V218.182H162.025V228H159.782V226.255H159.679C159.458 226.805 159.093 227.254 158.586 227.604C158.084 227.953 157.464 228.128 156.726 228.128C156.083 228.128 155.514 227.985 155.02 227.7C154.53 227.41 154.146 226.99 153.869 226.44C153.592 225.886 153.454 225.217 153.454 224.433V218.182H155.767V224.075C155.767 224.697 155.938 225.192 156.279 225.558C156.62 225.925 157.067 226.108 157.621 226.108C157.962 226.108 158.292 226.025 158.612 225.859C158.932 225.692 159.194 225.445 159.398 225.117C159.607 224.785 159.711 224.369 159.711 223.871ZM168.751 228.192C167.767 228.192 166.917 227.987 166.201 227.578C165.489 227.165 164.942 226.581 164.558 225.827C164.175 225.068 163.983 224.175 163.983 223.148C163.983 222.138 164.175 221.252 164.558 220.489C164.946 219.722 165.487 219.126 166.182 218.7C166.876 218.269 167.692 218.054 168.63 218.054C169.235 218.054 169.806 218.152 170.343 218.348C170.884 218.54 171.361 218.838 171.775 219.243C172.192 219.648 172.521 220.163 172.759 220.79C172.998 221.412 173.117 222.153 173.117 223.014V223.724H165.07V222.164H170.899C170.895 221.721 170.799 221.327 170.611 220.982C170.424 220.632 170.162 220.357 169.825 220.157C169.493 219.957 169.105 219.857 168.662 219.857C168.189 219.857 167.773 219.972 167.415 220.202C167.057 220.428 166.778 220.726 166.578 221.097C166.382 221.463 166.282 221.866 166.278 222.305V223.666C166.278 224.237 166.382 224.727 166.591 225.136C166.8 225.541 167.092 225.852 167.467 226.07C167.842 226.283 168.28 226.389 168.783 226.389C169.12 226.389 169.425 226.342 169.697 226.249C169.97 226.151 170.207 226.008 170.407 225.82C170.607 225.633 170.758 225.401 170.861 225.124L173.021 225.366C172.885 225.937 172.625 226.436 172.241 226.862C171.862 227.284 171.376 227.612 170.784 227.847C170.192 228.077 169.514 228.192 168.751 228.192ZM175.075 228V218.182H177.318V219.818H177.421C177.6 219.251 177.906 218.815 178.341 218.508C178.78 218.197 179.281 218.041 179.843 218.041C179.971 218.041 180.114 218.048 180.271 218.06C180.433 218.069 180.568 218.084 180.674 218.105V220.234C180.576 220.2 180.421 220.17 180.207 220.144C179.999 220.114 179.796 220.099 179.6 220.099C179.178 220.099 178.799 220.191 178.462 220.374C178.13 220.553 177.868 220.803 177.676 221.122C177.484 221.442 177.389 221.81 177.389 222.228V228H175.075ZM183.948 231.682C183.633 231.682 183.341 231.656 183.073 231.605C182.809 231.558 182.598 231.503 182.44 231.439L182.977 229.636C183.313 229.734 183.614 229.781 183.878 229.777C184.142 229.773 184.375 229.69 184.575 229.528C184.779 229.37 184.952 229.106 185.093 228.735L185.291 228.205L181.73 218.182H184.185L186.448 225.597H186.55L188.819 218.182H191.28L187.349 229.189C187.166 229.709 186.923 230.154 186.62 230.525C186.318 230.9 185.947 231.185 185.508 231.381C185.073 231.582 184.554 231.682 183.948 231.682Z" fill="#363636"/>
<path d="M165 321L159.226 311L170.774 311L165 321ZM165 312L164 312L164 271L165 271L166 271L166 312L165 312Z" fill="#363636"/>
<rect x="365" y="171" width="200" height="100" rx="10" fill="url(#paint2_linear_665_211)"/>
<path d="M370 181C370 178.239 372.239 176 375 176H555C557.761 176 560 178.239 560 181V261C560 263.761 557.761 266 555 266H375C372.239 266 370 263.761 370 261V181Z" fill="white" fill-opacity="0.25"/>
<path d="M444.476 223.602H446.624L447.896 225.251L448.803 226.325L450.983 229.125H448.682L447.199 227.246L446.566 226.351L444.476 223.602ZM451.296 221.455C451.296 222.865 451.032 224.073 450.504 225.079C449.979 226.08 449.264 226.847 448.356 227.38C447.453 227.913 446.428 228.179 445.281 228.179C444.135 228.179 443.108 227.913 442.2 227.38C441.297 226.843 440.581 226.074 440.053 225.072C439.528 224.067 439.266 222.861 439.266 221.455C439.266 220.044 439.528 218.838 440.053 217.837C440.581 216.831 441.297 216.062 442.2 215.529C443.108 214.996 444.135 214.73 445.281 214.73C446.428 214.73 447.453 214.996 448.356 215.529C449.264 216.062 449.979 216.831 450.504 217.837C451.032 218.838 451.296 220.044 451.296 221.455ZM448.912 221.455C448.912 220.462 448.756 219.624 448.445 218.942C448.139 218.256 447.712 217.739 447.167 217.389C446.622 217.036 445.993 216.859 445.281 216.859C444.57 216.859 443.941 217.036 443.396 217.389C442.85 217.739 442.422 218.256 442.111 218.942C441.804 219.624 441.651 220.462 441.651 221.455C441.651 222.447 441.804 223.287 442.111 223.973C442.422 224.655 442.85 225.173 443.396 225.526C443.941 225.876 444.57 226.05 445.281 226.05C445.993 226.05 446.622 225.876 447.167 225.526C447.712 225.173 448.139 224.655 448.445 223.973C448.756 223.287 448.912 222.447 448.912 221.455ZM459.711 223.871V218.182H462.025V228H459.782V226.255H459.679C459.458 226.805 459.093 227.254 458.586 227.604C458.084 227.953 457.464 228.128 456.726 228.128C456.083 228.128 455.514 227.985 455.02 227.7C454.53 227.41 454.146 226.99 453.869 226.44C453.592 225.886 453.454 225.217 453.454 224.433V218.182H455.767V224.075C455.767 224.697 455.938 225.192 456.279 225.558C456.62 225.925 457.067 226.108 457.621 226.108C457.962 226.108 458.292 226.025 458.612 225.859C458.932 225.692 459.194 225.445 459.398 225.117C459.607 224.785 459.711 224.369 459.711 223.871ZM468.751 228.192C467.767 228.192 466.917 227.987 466.201 227.578C465.489 227.165 464.942 226.581 464.558 225.827C464.175 225.068 463.983 224.175 463.983 223.148C463.983 222.138 464.175 221.252 464.558 220.489C464.946 219.722 465.487 219.126 466.182 218.7C466.876 218.269 467.692 218.054 468.63 218.054C469.235 218.054 469.806 218.152 470.343 218.348C470.884 218.54 471.361 218.838 471.775 219.243C472.192 219.648 472.521 220.163 472.759 220.79C472.998 221.412 473.117 222.153 473.117 223.014V223.724H465.07V222.164H470.899C470.895 221.721 470.799 221.327 470.611 220.982C470.424 220.632 470.162 220.357 469.825 220.157C469.493 219.957 469.105 219.857 468.662 219.857C468.189 219.857 467.773 219.972 467.415 220.202C467.057 220.428 466.778 220.726 466.578 221.097C466.382 221.463 466.282 221.866 466.278 222.305V223.666C466.278 224.237 466.382 224.727 466.591 225.136C466.8 225.541 467.092 225.852 467.467 226.07C467.842 226.283 468.28 226.389 468.783 226.389C469.12 226.389 469.425 226.342 469.697 226.249C469.97 226.151 470.207 226.008 470.407 225.82C470.607 225.633 470.758 225.401 470.861 225.124L473.021 225.366C472.885 225.937 472.625 226.436 472.241 226.862C471.862 227.284 471.376 227.612 470.784 227.847C470.192 228.077 469.514 228.192 468.751 228.192ZM475.075 228V218.182H477.318V219.818H477.421C477.6 219.251 477.906 218.815 478.341 218.508C478.78 218.197 479.281 218.041 479.843 218.041C479.971 218.041 480.114 218.048 480.271 218.06C480.433 218.069 480.568 218.084 480.674 218.105V220.234C480.576 220.2 480.421 220.17 480.207 220.144C479.999 220.114 479.796 220.099 479.6 220.099C479.178 220.099 478.799 220.191 478.462 220.374C478.13 220.553 477.868 220.803 477.676 221.122C477.484 221.442 477.389 221.81 477.389 222.228V228H475.075ZM483.948 231.682C483.633 231.682 483.341 231.656 483.073 231.605C482.809 231.558 482.598 231.503 482.44 231.439L482.977 229.636C483.313 229.734 483.614 229.781 483.878 229.777C484.142 229.773 484.375 229.69 484.575 229.528C484.779 229.37 484.952 229.106 485.093 228.735L485.291 228.205L481.73 218.182H484.185L486.448 225.597H486.55L488.819 218.182H491.28L487.349 229.189C487.166 229.709 486.923 230.154 486.62 230.525C486.318 230.9 485.947 231.185 485.508 231.381C485.073 231.582 484.554 231.682 483.948 231.682Z" fill="#363636"/>
<rect x="365" y="471" width="200" height="100" rx="10" fill="url(#paint3_linear_665_211)"/>
<path d="M370 481C370 478.239 372.239 476 375 476H555C557.761 476 560 478.239 560 481V561C560 563.761 557.761 566 555 566H375C372.239 566 370 563.761 370 561V481Z" fill="white" fill-opacity="0.25"/>
<path d="M423.374 528V514.909H428.283C429.289 514.909 430.133 515.084 430.815 515.433C431.501 515.783 432.018 516.273 432.368 516.903C432.722 517.53 432.898 518.261 432.898 519.096C432.898 519.935 432.719 520.664 432.361 521.282C432.008 521.896 431.486 522.371 430.795 522.707C430.105 523.04 429.257 523.206 428.251 523.206H424.755V521.237H427.932C428.52 521.237 429.001 521.156 429.376 520.994C429.751 520.828 430.028 520.587 430.207 520.272C430.391 519.952 430.482 519.56 430.482 519.096C430.482 518.631 430.391 518.235 430.207 517.907C430.024 517.575 429.745 517.323 429.37 517.153C428.995 516.978 428.511 516.891 427.919 516.891H425.746V528H423.374ZM430.137 522.068L433.378 528H430.731L427.548 522.068H430.137ZM439.185 528.192C438.201 528.192 437.35 527.987 436.634 527.578C435.923 527.165 435.375 526.581 434.992 525.827C434.608 525.068 434.416 524.175 434.416 523.148C434.416 522.138 434.608 521.252 434.992 520.489C435.38 519.722 435.921 519.126 436.615 518.7C437.31 518.269 438.126 518.054 439.063 518.054C439.669 518.054 440.24 518.152 440.777 518.348C441.318 518.54 441.795 518.838 442.208 519.243C442.626 519.648 442.954 520.163 443.193 520.79C443.431 521.412 443.551 522.153 443.551 523.014V523.724H435.503V522.164H441.333C441.328 521.721 441.233 521.327 441.045 520.982C440.858 520.632 440.595 520.357 440.259 520.157C439.926 519.957 439.539 519.857 439.095 519.857C438.622 519.857 438.207 519.972 437.849 520.202C437.491 520.428 437.212 520.726 437.012 521.097C436.816 521.463 436.715 521.866 436.711 522.305V523.666C436.711 524.237 436.816 524.727 437.024 525.136C437.233 525.541 437.525 525.852 437.9 526.07C438.275 526.283 438.714 526.389 439.217 526.389C439.554 526.389 439.858 526.342 440.131 526.249C440.404 526.151 440.64 526.008 440.84 525.82C441.041 525.633 441.192 525.401 441.294 525.124L443.455 525.366C443.318 525.937 443.059 526.436 442.675 526.862C442.296 527.284 441.81 527.612 441.218 527.847C440.625 528.077 439.948 528.192 439.185 528.192ZM453.268 520.777L451.159 521.007C451.099 520.794 450.995 520.594 450.846 520.406C450.701 520.219 450.505 520.067 450.258 519.952C450.01 519.837 449.708 519.78 449.35 519.78C448.868 519.78 448.464 519.884 448.135 520.093C447.812 520.302 447.652 520.572 447.656 520.905C447.652 521.19 447.756 521.423 447.969 521.602C448.187 521.781 448.544 521.928 449.043 522.043L450.718 522.401C451.647 522.601 452.337 522.918 452.789 523.353C453.245 523.788 453.475 524.357 453.479 525.06C453.475 525.678 453.294 526.223 452.936 526.696C452.582 527.165 452.09 527.531 451.459 527.795C450.829 528.06 450.104 528.192 449.286 528.192C448.084 528.192 447.117 527.94 446.384 527.438C445.651 526.93 445.214 526.225 445.074 525.322L447.33 525.104C447.432 525.548 447.65 525.882 447.982 526.108C448.314 526.334 448.747 526.447 449.28 526.447C449.829 526.447 450.27 526.334 450.603 526.108C450.939 525.882 451.108 525.603 451.108 525.271C451.108 524.989 450.999 524.757 450.782 524.574C450.569 524.391 450.236 524.25 449.785 524.152L448.11 523.8C447.168 523.604 446.471 523.274 446.02 522.81C445.568 522.341 445.344 521.749 445.348 521.033C445.344 520.428 445.508 519.903 445.841 519.46C446.177 519.013 446.644 518.668 447.241 518.425C447.841 518.178 448.534 518.054 449.318 518.054C450.468 518.054 451.374 518.299 452.035 518.789C452.699 519.279 453.111 519.942 453.268 520.777ZM455.387 531.682V518.182H457.663V519.805H457.797C457.916 519.567 458.085 519.313 458.302 519.045C458.519 518.772 458.813 518.54 459.184 518.348C459.555 518.152 460.028 518.054 460.603 518.054C461.362 518.054 462.046 518.248 462.655 518.636C463.269 519.019 463.754 519.588 464.112 520.342C464.475 521.092 464.656 522.013 464.656 523.104C464.656 524.182 464.479 525.098 464.125 525.852C463.771 526.607 463.29 527.182 462.68 527.578C462.071 527.974 461.381 528.173 460.609 528.173C460.047 528.173 459.58 528.079 459.21 527.891C458.839 527.704 458.541 527.478 458.315 527.214C458.093 526.945 457.921 526.692 457.797 526.453H457.701V531.682H455.387ZM457.656 523.091C457.656 523.726 457.746 524.282 457.925 524.759C458.108 525.237 458.37 525.609 458.711 525.878C459.056 526.142 459.474 526.274 459.964 526.274C460.475 526.274 460.903 526.138 461.249 525.865C461.594 525.588 461.854 525.211 462.028 524.734C462.207 524.252 462.297 523.705 462.297 523.091C462.297 522.482 462.21 521.94 462.035 521.467C461.86 520.994 461.6 520.624 461.255 520.355C460.91 520.087 460.479 519.952 459.964 519.952C459.47 519.952 459.05 520.082 458.705 520.342C458.359 520.602 458.097 520.967 457.918 521.435C457.744 521.904 457.656 522.456 457.656 523.091ZM470.92 528.192C469.961 528.192 469.13 527.981 468.427 527.559C467.724 527.137 467.178 526.547 466.791 525.788C466.407 525.03 466.215 524.143 466.215 523.129C466.215 522.115 466.407 521.227 466.791 520.464C467.178 519.701 467.724 519.109 468.427 518.687C469.13 518.265 469.961 518.054 470.92 518.054C471.879 518.054 472.71 518.265 473.413 518.687C474.116 519.109 474.659 519.701 475.043 520.464C475.43 521.227 475.624 522.115 475.624 523.129C475.624 524.143 475.43 525.03 475.043 525.788C474.659 526.547 474.116 527.137 473.413 527.559C472.71 527.981 471.879 528.192 470.92 528.192ZM470.933 526.338C471.453 526.338 471.887 526.195 472.237 525.91C472.586 525.62 472.846 525.232 473.016 524.746C473.191 524.261 473.278 523.719 473.278 523.123C473.278 522.522 473.191 521.979 473.016 521.493C472.846 521.003 472.586 520.613 472.237 520.323C471.887 520.033 471.453 519.888 470.933 519.888C470.4 519.888 469.957 520.033 469.603 520.323C469.254 520.613 468.992 521.003 468.817 521.493C468.646 521.979 468.561 522.522 468.561 523.123C468.561 523.719 468.646 524.261 468.817 524.746C468.992 525.232 469.254 525.62 469.603 525.91C469.957 526.195 470.4 526.338 470.933 526.338ZM479.902 522.247V528H477.588V518.182H479.8V519.85H479.915C480.141 519.3 480.501 518.864 480.995 518.54C481.494 518.216 482.11 518.054 482.843 518.054C483.52 518.054 484.11 518.199 484.613 518.489C485.12 518.778 485.512 519.198 485.789 519.748C486.071 520.298 486.209 520.964 486.205 521.749V528H483.891V522.107C483.891 521.45 483.72 520.937 483.38 520.566C483.043 520.195 482.576 520.01 481.98 520.01C481.575 520.01 481.215 520.099 480.899 520.278C480.588 520.453 480.343 520.707 480.164 521.039C479.99 521.371 479.902 521.774 479.902 522.247ZM496.317 520.777L494.208 521.007C494.148 520.794 494.044 520.594 493.894 520.406C493.75 520.219 493.554 520.067 493.306 519.952C493.059 519.837 492.757 519.78 492.399 519.78C491.917 519.78 491.512 519.884 491.184 520.093C490.86 520.302 490.701 520.572 490.705 520.905C490.701 521.19 490.805 521.423 491.018 521.602C491.235 521.781 491.593 521.928 492.092 522.043L493.767 522.401C494.696 522.601 495.386 522.918 495.838 523.353C496.294 523.788 496.524 524.357 496.528 525.06C496.524 525.678 496.343 526.223 495.985 526.696C495.631 527.165 495.139 527.531 494.508 527.795C493.877 528.06 493.153 528.192 492.335 528.192C491.133 528.192 490.166 527.94 489.433 527.438C488.7 526.93 488.263 526.225 488.122 525.322L490.379 525.104C490.481 525.548 490.698 525.882 491.031 526.108C491.363 526.334 491.796 526.447 492.328 526.447C492.878 526.447 493.319 526.334 493.652 526.108C493.988 525.882 494.157 525.603 494.157 525.271C494.157 524.989 494.048 524.757 493.831 524.574C493.617 524.391 493.285 524.25 492.833 524.152L491.159 523.8C490.217 523.604 489.52 523.274 489.068 522.81C488.617 522.341 488.393 521.749 488.397 521.033C488.393 520.428 488.557 519.903 488.889 519.46C489.226 519.013 489.693 518.668 490.289 518.425C490.89 518.178 491.583 518.054 492.367 518.054C493.517 518.054 494.423 518.299 495.083 518.789C495.748 519.279 496.159 519.942 496.317 520.777ZM502.783 528.192C501.798 528.192 500.948 527.987 500.232 527.578C499.521 527.165 498.973 526.581 498.589 525.827C498.206 525.068 498.014 524.175 498.014 523.148C498.014 522.138 498.206 521.252 498.589 520.489C498.977 519.722 499.518 519.126 500.213 518.7C500.908 518.269 501.724 518.054 502.661 518.054C503.266 518.054 503.837 518.152 504.374 518.348C504.915 518.54 505.393 518.838 505.806 519.243C506.224 519.648 506.552 520.163 506.79 520.79C507.029 521.412 507.148 522.153 507.148 523.014V523.724H499.101V522.164H504.93C504.926 521.721 504.83 521.327 504.643 520.982C504.455 520.632 504.193 520.357 503.856 520.157C503.524 519.957 503.136 519.857 502.693 519.857C502.22 519.857 501.805 519.972 501.447 520.202C501.089 520.428 500.81 520.726 500.609 521.097C500.413 521.463 500.313 521.866 500.309 522.305V523.666C500.309 524.237 500.413 524.727 500.622 525.136C500.831 525.541 501.123 525.852 501.498 526.07C501.873 526.283 502.312 526.389 502.815 526.389C503.151 526.389 503.456 526.342 503.729 526.249C504.001 526.151 504.238 526.008 504.438 525.82C504.638 525.633 504.79 525.401 504.892 525.124L507.052 525.366C506.916 525.937 506.656 526.436 506.273 526.862C505.893 527.284 505.408 527.612 504.815 527.847C504.223 528.077 503.545 528.192 502.783 528.192Z" fill="#363636"/>
<rect x="365" y="321" width="200" height="100" rx="10" fill="url(#paint4_linear_665_211)"/>
<path d="M370 331C370 328.239 372.239 326 375 326H555C557.761 326 560 328.239 560 331V411C560 413.761 557.761 416 555 416H375C372.239 416 370 413.761 370 411V331Z" fill="white" fill-opacity="0.25"/>
<path d="M420.65 378V364.909H425.559C426.564 364.909 427.408 365.084 428.09 365.433C428.776 365.783 429.294 366.273 429.643 366.903C429.997 367.53 430.174 368.261 430.174 369.096C430.174 369.935 429.995 370.664 429.637 371.282C429.283 371.896 428.761 372.371 428.071 372.707C427.38 373.04 426.532 373.206 425.527 373.206H422.03V371.237H425.207C425.795 371.237 426.277 371.156 426.652 370.994C427.027 370.828 427.304 370.587 427.483 370.272C427.666 369.952 427.758 369.56 427.758 369.096C427.758 368.631 427.666 368.235 427.483 367.907C427.299 367.575 427.02 367.323 426.645 367.153C426.27 366.978 425.787 366.891 425.194 366.891H423.021V378H420.65ZM427.412 372.068L430.653 378H428.007L424.824 372.068H427.412ZM436.46 378.192C435.476 378.192 434.626 377.987 433.91 377.578C433.198 377.165 432.651 376.581 432.267 375.827C431.884 375.068 431.692 374.175 431.692 373.148C431.692 372.138 431.884 371.252 432.267 370.489C432.655 369.722 433.196 369.126 433.891 368.7C434.585 368.269 435.401 368.054 436.339 368.054C436.944 368.054 437.515 368.152 438.052 368.348C438.593 368.54 439.07 368.838 439.484 369.243C439.901 369.648 440.229 370.163 440.468 370.79C440.707 371.412 440.826 372.153 440.826 373.014V373.724H432.778V372.164H438.608C438.604 371.721 438.508 371.327 438.32 370.982C438.133 370.632 437.871 370.357 437.534 370.157C437.202 369.957 436.814 369.857 436.371 369.857C435.898 369.857 435.482 369.972 435.124 370.202C434.766 370.428 434.487 370.726 434.287 371.097C434.091 371.463 433.991 371.866 433.987 372.305V373.666C433.987 374.237 434.091 374.727 434.3 375.136C434.509 375.541 434.801 375.852 435.176 376.07C435.551 376.283 435.989 376.389 436.492 376.389C436.829 376.389 437.134 376.342 437.406 376.249C437.679 376.151 437.916 376.008 438.116 375.82C438.316 375.633 438.467 375.401 438.57 375.124L440.73 375.366C440.594 375.937 440.334 376.436 439.95 376.862C439.571 377.284 439.085 377.612 438.493 377.847C437.901 378.077 437.223 378.192 436.46 378.192ZM445.609 378.198C444.987 378.198 444.426 378.087 443.928 377.866C443.434 377.64 443.041 377.308 442.752 376.869C442.466 376.43 442.323 375.888 442.323 375.245C442.323 374.691 442.426 374.233 442.63 373.871C442.835 373.509 443.114 373.219 443.468 373.001C443.821 372.784 444.22 372.62 444.663 372.509C445.11 372.394 445.573 372.311 446.05 372.26C446.625 372.2 447.092 372.147 447.45 372.1C447.808 372.049 448.068 371.972 448.23 371.87C448.396 371.763 448.479 371.599 448.479 371.378V371.339C448.479 370.858 448.336 370.485 448.051 370.221C447.765 369.957 447.354 369.825 446.817 369.825C446.25 369.825 445.801 369.948 445.468 370.195C445.14 370.442 444.919 370.734 444.804 371.071L442.643 370.764C442.813 370.168 443.095 369.669 443.487 369.268C443.879 368.864 444.358 368.561 444.925 368.361C445.492 368.156 446.118 368.054 446.804 368.054C447.277 368.054 447.748 368.109 448.217 368.22C448.686 368.331 449.114 368.514 449.502 368.77C449.889 369.021 450.201 369.364 450.435 369.799C450.674 370.234 450.793 370.777 450.793 371.429V378H448.568V376.651H448.492C448.351 376.924 448.153 377.18 447.897 377.418C447.646 377.653 447.328 377.842 446.945 377.987C446.566 378.128 446.12 378.198 445.609 378.198ZM446.21 376.498C446.674 376.498 447.077 376.406 447.418 376.223C447.759 376.036 448.021 375.788 448.204 375.482C448.392 375.175 448.485 374.84 448.485 374.478V373.321C448.413 373.381 448.289 373.436 448.115 373.487C447.944 373.538 447.752 373.583 447.539 373.621C447.326 373.66 447.115 373.694 446.907 373.724C446.698 373.754 446.517 373.779 446.363 373.8C446.018 373.847 445.709 373.924 445.436 374.031C445.164 374.137 444.948 374.286 444.791 374.478C444.633 374.665 444.554 374.908 444.554 375.207C444.554 375.633 444.71 375.955 445.021 376.172C445.332 376.389 445.728 376.498 446.21 376.498ZM460.88 370.777L458.77 371.007C458.71 370.794 458.606 370.594 458.457 370.406C458.312 370.219 458.116 370.067 457.869 369.952C457.622 369.837 457.319 369.78 456.961 369.78C456.48 369.78 456.075 369.884 455.747 370.093C455.423 370.302 455.263 370.572 455.267 370.905C455.263 371.19 455.367 371.423 455.581 371.602C455.798 371.781 456.156 371.928 456.654 372.043L458.329 372.401C459.258 372.601 459.948 372.918 460.4 373.353C460.856 373.788 461.086 374.357 461.09 375.06C461.086 375.678 460.905 376.223 460.547 376.696C460.193 377.165 459.701 377.531 459.071 377.795C458.44 378.06 457.715 378.192 456.897 378.192C455.696 378.192 454.728 377.94 453.995 377.438C453.262 376.93 452.826 376.225 452.685 375.322L454.941 375.104C455.044 375.548 455.261 375.882 455.593 376.108C455.926 376.334 456.358 376.447 456.891 376.447C457.441 376.447 457.882 376.334 458.214 376.108C458.551 375.882 458.719 375.603 458.719 375.271C458.719 374.989 458.61 374.757 458.393 374.574C458.18 374.391 457.848 374.25 457.396 374.152L455.721 373.8C454.779 373.604 454.083 373.274 453.631 372.81C453.179 372.341 452.956 371.749 452.96 371.033C452.956 370.428 453.12 369.903 453.452 369.46C453.789 369.013 454.255 368.668 454.852 368.425C455.453 368.178 456.145 368.054 456.929 368.054C458.08 368.054 458.985 368.299 459.646 368.789C460.311 369.279 460.722 369.942 460.88 370.777ZM467.281 378.192C466.322 378.192 465.491 377.981 464.788 377.559C464.085 377.137 463.54 376.547 463.152 375.788C462.768 375.03 462.577 374.143 462.577 373.129C462.577 372.115 462.768 371.227 463.152 370.464C463.54 369.701 464.085 369.109 464.788 368.687C465.491 368.265 466.322 368.054 467.281 368.054C468.24 368.054 469.071 368.265 469.774 368.687C470.477 369.109 471.021 369.701 471.404 370.464C471.792 371.227 471.986 372.115 471.986 373.129C471.986 374.143 471.792 375.03 471.404 375.788C471.021 376.547 470.477 377.137 469.774 377.559C469.071 377.981 468.24 378.192 467.281 378.192ZM467.294 376.338C467.814 376.338 468.248 376.195 468.598 375.91C468.947 375.62 469.207 375.232 469.378 374.746C469.552 374.261 469.64 373.719 469.64 373.123C469.64 372.522 469.552 371.979 469.378 371.493C469.207 371.003 468.947 370.613 468.598 370.323C468.248 370.033 467.814 369.888 467.294 369.888C466.761 369.888 466.318 370.033 465.964 370.323C465.615 370.613 465.353 371.003 465.178 371.493C465.008 371.979 464.922 372.522 464.922 373.123C464.922 373.719 465.008 374.261 465.178 374.746C465.353 375.232 465.615 375.62 465.964 375.91C466.318 376.195 466.761 376.338 467.294 376.338ZM476.264 372.247V378H473.95V368.182H476.161V369.85H476.276C476.502 369.3 476.862 368.864 477.357 368.54C477.855 368.216 478.471 368.054 479.204 368.054C479.881 368.054 480.472 368.199 480.975 368.489C481.482 368.778 481.874 369.198 482.151 369.748C482.432 370.298 482.57 370.964 482.566 371.749V378H480.252V372.107C480.252 371.45 480.082 370.937 479.741 370.566C479.404 370.195 478.938 370.01 478.341 370.01C477.936 370.01 477.576 370.099 477.261 370.278C476.95 370.453 476.705 370.707 476.526 371.039C476.351 371.371 476.264 371.774 476.264 372.247ZM484.918 378V368.182H487.232V378H484.918ZM486.082 366.788C485.715 366.788 485.4 366.667 485.136 366.424C484.872 366.177 484.739 365.881 484.739 365.536C484.739 365.186 484.872 364.89 485.136 364.647C485.4 364.4 485.715 364.276 486.082 364.276C486.453 364.276 486.768 364.4 487.028 364.647C487.292 364.89 487.424 365.186 487.424 365.536C487.424 365.881 487.292 366.177 487.028 366.424C486.768 366.667 486.453 366.788 486.082 366.788ZM491.926 372.247V378H489.612V368.182H491.823V369.85H491.938C492.164 369.3 492.524 368.864 493.019 368.54C493.517 368.216 494.133 368.054 494.866 368.054C495.544 368.054 496.134 368.199 496.637 368.489C497.144 368.778 497.536 369.198 497.813 369.748C498.094 370.298 498.233 370.964 498.228 371.749V378H495.914V372.107C495.914 371.45 495.744 370.937 495.403 370.566C495.066 370.195 494.6 370.01 494.003 370.01C493.598 370.01 493.238 370.099 492.923 370.278C492.612 370.453 492.367 370.707 492.188 371.039C492.013 371.371 491.926 371.774 491.926 372.247ZM504.85 381.886C504.019 381.886 503.306 381.773 502.709 381.548C502.112 381.326 501.633 381.028 501.271 380.653C500.909 380.278 500.657 379.862 500.517 379.406L502.6 378.901C502.694 379.093 502.831 379.283 503.009 379.47C503.188 379.662 503.429 379.82 503.732 379.943C504.039 380.071 504.424 380.135 504.889 380.135C505.545 380.135 506.088 379.975 506.519 379.656C506.949 379.34 507.164 378.82 507.164 378.096V376.236H507.049C506.93 376.474 506.755 376.719 506.525 376.971C506.299 377.222 505.999 377.433 505.624 377.604C505.253 377.774 504.786 377.859 504.224 377.859C503.47 377.859 502.786 377.683 502.172 377.329C501.563 376.971 501.077 376.438 500.715 375.731C500.357 375.019 500.178 374.129 500.178 373.059C500.178 371.981 500.357 371.071 500.715 370.33C501.077 369.584 501.565 369.019 502.179 368.636C502.792 368.248 503.476 368.054 504.23 368.054C504.806 368.054 505.279 368.152 505.649 368.348C506.024 368.54 506.323 368.772 506.544 369.045C506.766 369.313 506.934 369.567 507.049 369.805H507.177V368.182H509.459V378.16C509.459 378.999 509.259 379.694 508.858 380.244C508.458 380.793 507.91 381.205 507.215 381.477C506.521 381.75 505.733 381.886 504.85 381.886ZM504.87 376.044C505.36 376.044 505.777 375.925 506.122 375.686C506.468 375.447 506.73 375.104 506.909 374.657C507.088 374.21 507.177 373.673 507.177 373.046C507.177 372.428 507.088 371.887 506.909 371.423C506.734 370.958 506.474 370.598 506.129 370.342C505.788 370.082 505.368 369.952 504.87 369.952C504.354 369.952 503.924 370.087 503.578 370.355C503.233 370.624 502.973 370.992 502.799 371.461C502.624 371.925 502.536 372.454 502.536 373.046C502.536 373.647 502.624 374.173 502.799 374.625C502.978 375.072 503.24 375.422 503.585 375.673C503.934 375.92 504.362 376.044 504.87 376.044Z" fill="#363636"/>
<path d="M465 471L459.226 461L470.774 461L465 471ZM465 462L464 462L464 421L465 421L466 421L466 462L465 462Z" fill="#363636"/>
<path d="M465 321L459.226 311L470.774 311L465 321ZM465 312L464 312L464 271L465 271L466 271L466 312L465 312Z" fill="#363636"/>
<path d="M83.4276 79.4347H80.2401C80.1491 78.9119 79.9815 78.4489 79.7372 78.0455C79.4929 77.6364 79.1889 77.2898 78.8253 77.0057C78.4616 76.7216 78.0469 76.5085 77.581 76.3665C77.1207 76.2188 76.6236 76.1449 76.0895 76.1449C75.1406 76.1449 74.2997 76.3835 73.5668 76.8608C72.8338 77.3324 72.2599 78.0256 71.8452 78.9403C71.4304 79.8494 71.223 80.9602 71.223 82.2727C71.223 83.608 71.4304 84.733 71.8452 85.6477C72.2656 86.5568 72.8395 87.2443 73.5668 87.7102C74.2997 88.1705 75.1378 88.4006 76.081 88.4006C76.6037 88.4006 77.0923 88.3324 77.5469 88.196C78.0071 88.054 78.419 87.8466 78.7827 87.5739C79.152 87.3011 79.4616 86.9659 79.7116 86.5682C79.9673 86.1705 80.1435 85.7159 80.2401 85.2045L83.4276 85.2216C83.3082 86.0511 83.0497 86.8295 82.652 87.5568C82.2599 88.2841 81.7457 88.9261 81.1094 89.483C80.473 90.0341 79.7287 90.4659 78.8764 90.7784C78.0241 91.0852 77.0781 91.2386 76.0384 91.2386C74.5043 91.2386 73.1349 90.8835 71.9304 90.1733C70.7259 89.4631 69.777 88.4375 69.0838 87.0966C68.3906 85.7557 68.044 84.1477 68.044 82.2727C68.044 80.392 68.3935 78.7841 69.0923 77.4489C69.7912 76.108 70.7429 75.0824 71.9474 74.3722C73.152 73.6619 74.5156 73.3068 76.0384 73.3068C77.0099 73.3068 77.9134 73.4432 78.7486 73.7159C79.5838 73.9886 80.3281 74.3892 80.9815 74.9176C81.6349 75.4403 82.1719 76.0824 82.5923 76.8438C83.0185 77.5994 83.2969 78.4631 83.4276 79.4347ZM89.272 83.3295V91H86.1868V73.5455H89.2038V80.1335H89.3572C89.6641 79.3949 90.1385 78.8125 90.7805 78.3864C91.4283 77.9545 92.2521 77.7386 93.2521 77.7386C94.1612 77.7386 94.9538 77.929 95.63 78.3097C96.3061 78.6903 96.8288 79.2472 97.1982 79.9801C97.5732 80.7131 97.7607 81.608 97.7607 82.6648V91H94.6754V83.142C94.6754 82.2614 94.4482 81.5767 93.9936 81.0881C93.5447 80.5937 92.9141 80.3466 92.1016 80.3466C91.5561 80.3466 91.0675 80.4659 90.6357 80.7045C90.2095 80.9375 89.8743 81.2756 89.63 81.7188C89.3913 82.1619 89.272 82.6989 89.272 83.3295ZM104.673 91.2642C103.843 91.2642 103.096 91.1165 102.431 90.821C101.772 90.5199 101.249 90.0767 100.863 89.4915C100.482 88.9062 100.292 88.1847 100.292 87.3267C100.292 86.5881 100.428 85.9773 100.701 85.4943C100.974 85.0114 101.346 84.625 101.817 84.3352C102.289 84.0455 102.82 83.8267 103.411 83.679C104.008 83.5256 104.624 83.4148 105.261 83.3466C106.028 83.267 106.65 83.196 107.127 83.1335C107.604 83.0653 107.951 82.9631 108.167 82.8267C108.388 82.6847 108.499 82.4659 108.499 82.1705V82.1193C108.499 81.4773 108.309 80.9801 107.928 80.6278C107.548 80.2756 106.999 80.0994 106.283 80.0994C105.528 80.0994 104.928 80.2642 104.485 80.5938C104.048 80.9233 103.752 81.3125 103.599 81.7614L100.718 81.3523C100.945 80.5568 101.32 79.892 101.843 79.358C102.366 78.8182 103.005 78.4148 103.761 78.1477C104.516 77.875 105.352 77.7386 106.266 77.7386C106.897 77.7386 107.525 77.8125 108.15 77.9602C108.775 78.108 109.346 78.3523 109.863 78.6932C110.38 79.0284 110.795 79.4858 111.107 80.0653C111.425 80.6449 111.585 81.3693 111.585 82.2386V91H108.619V89.2017H108.516C108.329 89.5653 108.065 89.9062 107.724 90.2244C107.388 90.5369 106.965 90.7898 106.454 90.983C105.948 91.1705 105.354 91.2642 104.673 91.2642ZM105.474 88.9972C106.093 88.9972 106.63 88.875 107.085 88.6307C107.539 88.3807 107.888 88.0511 108.133 87.642C108.383 87.233 108.508 86.7869 108.508 86.304V84.7614C108.411 84.8409 108.246 84.9148 108.013 84.983C107.786 85.0511 107.531 85.1108 107.246 85.1619C106.962 85.2131 106.681 85.2585 106.403 85.2983C106.124 85.3381 105.883 85.3722 105.678 85.4006C105.218 85.4631 104.806 85.5653 104.442 85.7074C104.079 85.8494 103.792 86.0483 103.582 86.304C103.371 86.554 103.266 86.8778 103.266 87.2756C103.266 87.8438 103.474 88.2727 103.888 88.5625C104.303 88.8523 104.832 88.9972 105.474 88.9972ZM121.224 77.9091V80.2955H113.698V77.9091H121.224ZM115.556 74.7727H118.641V87.0625C118.641 87.4773 118.704 87.7955 118.829 88.017C118.96 88.233 119.13 88.3807 119.34 88.4602C119.55 88.5398 119.783 88.5795 120.039 88.5795C120.232 88.5795 120.408 88.5653 120.567 88.5369C120.732 88.5085 120.857 88.483 120.942 88.4602L121.462 90.8722C121.298 90.929 121.062 90.9915 120.755 91.0597C120.454 91.1278 120.085 91.1676 119.647 91.179C118.874 91.2017 118.178 91.0852 117.559 90.8295C116.94 90.5682 116.448 90.1648 116.085 89.6193C115.727 89.0739 115.55 88.392 115.556 87.5739V74.7727ZM144.834 79.4347H141.646C141.555 78.9119 141.388 78.4489 141.143 78.0455C140.899 77.6364 140.595 77.2898 140.232 77.0057C139.868 76.7216 139.453 76.5085 138.987 76.3665C138.527 76.2188 138.03 76.1449 137.496 76.1449C136.547 76.1449 135.706 76.3835 134.973 76.8608C134.24 77.3324 133.666 78.0256 133.251 78.9403C132.837 79.8494 132.629 80.9602 132.629 82.2727C132.629 83.608 132.837 84.733 133.251 85.6477C133.672 86.5568 134.246 87.2443 134.973 87.7102C135.706 88.1705 136.544 88.4006 137.487 88.4006C138.01 88.4006 138.499 88.3324 138.953 88.196C139.413 88.054 139.825 87.8466 140.189 87.5739C140.558 87.3011 140.868 86.9659 141.118 86.5682C141.374 86.1705 141.55 85.7159 141.646 85.2045L144.834 85.2216C144.714 86.0511 144.456 86.8295 144.058 87.5568C143.666 88.2841 143.152 88.9261 142.516 89.483C141.879 90.0341 141.135 90.4659 140.283 90.7784C139.43 91.0852 138.484 91.2386 137.445 91.2386C135.911 91.2386 134.541 90.8835 133.337 90.1733C132.132 89.4631 131.183 88.4375 130.49 87.0966C129.797 85.7557 129.45 84.1477 129.45 82.2727C129.45 80.392 129.8 78.7841 130.499 77.4489C131.197 76.108 132.149 75.0824 133.354 74.3722C134.558 73.6619 135.922 73.3068 137.445 73.3068C138.416 73.3068 139.32 73.4432 140.155 73.7159C140.99 73.9886 141.734 74.3892 142.388 74.9176C143.041 75.4403 143.578 76.0824 143.999 76.8438C144.425 77.5994 144.703 78.4631 144.834 79.4347ZM153.303 91.2557C152.025 91.2557 150.917 90.9744 149.979 90.4119C149.042 89.8494 148.315 89.0625 147.798 88.0511C147.286 87.0398 147.031 85.858 147.031 84.5057C147.031 83.1534 147.286 81.9687 147.798 80.9517C148.315 79.9347 149.042 79.1449 149.979 78.5824C150.917 78.0199 152.025 77.7386 153.303 77.7386C154.582 77.7386 155.69 78.0199 156.627 78.5824C157.565 79.1449 158.289 79.9347 158.8 80.9517C159.317 81.9687 159.576 83.1534 159.576 84.5057C159.576 85.858 159.317 87.0398 158.8 88.0511C158.289 89.0625 157.565 89.8494 156.627 90.4119C155.69 90.9744 154.582 91.2557 153.303 91.2557ZM153.32 88.7841C154.013 88.7841 154.593 88.5937 155.059 88.2131C155.525 87.8267 155.871 87.3097 156.099 86.6619C156.332 86.0142 156.448 85.2926 156.448 84.4972C156.448 83.696 156.332 82.9716 156.099 82.3239C155.871 81.6705 155.525 81.1506 155.059 80.7642C154.593 80.3778 154.013 80.1847 153.32 80.1847C152.61 80.1847 152.019 80.3778 151.548 80.7642C151.082 81.1506 150.732 81.6705 150.499 82.3239C150.272 82.9716 150.158 83.696 150.158 84.4972C150.158 85.2926 150.272 86.0142 150.499 86.6619C150.732 87.3097 151.082 87.8267 151.548 88.2131C152.019 88.5937 152.61 88.7841 153.32 88.7841ZM162.195 91V77.9091H165.143V80.1335H165.297C165.57 79.3835 166.021 78.7983 166.652 78.3778C167.283 77.9517 168.036 77.7386 168.911 77.7386C169.797 77.7386 170.544 77.9545 171.152 78.3864C171.766 78.8125 172.197 79.3949 172.447 80.1335H172.584C172.874 79.4062 173.362 78.8267 174.05 78.3949C174.743 77.9574 175.564 77.7386 176.513 77.7386C177.717 77.7386 178.7 78.1193 179.462 78.8807C180.223 79.642 180.604 80.7528 180.604 82.2131V91H177.51V82.6903C177.51 81.8778 177.294 81.2841 176.862 80.9091C176.43 80.5284 175.902 80.3381 175.277 80.3381C174.533 80.3381 173.95 80.571 173.53 81.0369C173.115 81.4972 172.908 82.0966 172.908 82.8352V91H169.882V82.5625C169.882 81.8864 169.678 81.3466 169.268 80.9432C168.865 80.5398 168.337 80.3381 167.683 80.3381C167.24 80.3381 166.837 80.4517 166.473 80.679C166.109 80.9006 165.82 81.2159 165.604 81.625C165.388 82.0284 165.28 82.5 165.28 83.0398V91H162.195ZM183.734 95.9091V77.9091H186.768V80.0739H186.947C187.106 79.7557 187.33 79.4176 187.62 79.0597C187.91 78.696 188.302 78.3864 188.796 78.1307C189.29 77.8693 189.921 77.7386 190.688 77.7386C191.7 77.7386 192.612 77.9972 193.424 78.5142C194.242 79.0256 194.89 79.7841 195.367 80.7898C195.85 81.7898 196.092 83.017 196.092 84.4716C196.092 85.9091 195.856 87.1307 195.384 88.1364C194.913 89.142 194.271 89.9091 193.458 90.4375C192.646 90.9659 191.725 91.2301 190.697 91.2301C189.947 91.2301 189.325 91.1051 188.83 90.8551C188.336 90.6051 187.938 90.304 187.637 89.9517C187.342 89.5937 187.112 89.2557 186.947 88.9375H186.819V95.9091H183.734ZM186.759 84.4545C186.759 85.3011 186.879 86.0426 187.117 86.679C187.362 87.3153 187.711 87.8125 188.165 88.1705C188.626 88.5227 189.183 88.6989 189.836 88.6989C190.518 88.6989 191.089 88.517 191.549 88.1534C192.009 87.7841 192.356 87.2812 192.589 86.6449C192.827 86.0028 192.947 85.2727 192.947 84.4545C192.947 83.642 192.83 82.9205 192.597 82.2898C192.364 81.6591 192.018 81.1648 191.558 80.8068C191.097 80.4489 190.523 80.2699 189.836 80.2699C189.177 80.2699 188.617 80.4432 188.157 80.7898C187.697 81.1364 187.347 81.6222 187.109 82.2472C186.876 82.8722 186.759 83.608 186.759 84.4545ZM201.819 73.5455V91H198.734V73.5455H201.819ZM210.787 91.2557C209.474 91.2557 208.341 90.983 207.386 90.4375C206.438 89.8864 205.707 89.108 205.196 88.1023C204.685 87.0909 204.429 85.9006 204.429 84.5312C204.429 83.1847 204.685 82.0028 205.196 80.9858C205.713 79.9631 206.435 79.1676 207.361 78.5994C208.287 78.0256 209.375 77.7386 210.625 77.7386C211.432 77.7386 212.193 77.8693 212.909 78.1307C213.631 78.3864 214.267 78.7841 214.818 79.3239C215.375 79.8636 215.813 80.5511 216.131 81.3864C216.449 82.2159 216.608 83.2045 216.608 84.3523V85.2983H205.878V83.2188H213.651C213.645 82.6278 213.517 82.1023 213.267 81.642C213.017 81.1761 212.668 80.8097 212.219 80.5426C211.776 80.2756 211.259 80.142 210.668 80.142C210.037 80.142 209.483 80.2955 209.006 80.6023C208.528 80.9034 208.156 81.3011 207.889 81.7955C207.628 82.2841 207.494 82.821 207.489 83.4062V85.2216C207.489 85.983 207.628 86.6364 207.906 87.1818C208.185 87.7216 208.574 88.1364 209.074 88.4261C209.574 88.7102 210.159 88.8523 210.83 88.8523C211.278 88.8523 211.685 88.7898 212.048 88.6648C212.412 88.5341 212.727 88.3438 212.994 88.0938C213.261 87.8438 213.463 87.5341 213.599 87.1648L216.48 87.4886C216.298 88.25 215.952 88.9148 215.44 89.483C214.935 90.0455 214.287 90.483 213.497 90.7955C212.707 91.1023 211.804 91.2557 210.787 91.2557ZM225.755 77.9091V80.2955H218.229V77.9091H225.755ZM220.087 74.7727H223.173V87.0625C223.173 87.4773 223.235 87.7955 223.36 88.017C223.491 88.233 223.661 88.3807 223.871 88.4602C224.082 88.5398 224.315 88.5795 224.57 88.5795C224.763 88.5795 224.94 88.5653 225.099 88.5369C225.263 88.5085 225.388 88.483 225.474 88.4602L225.994 90.8722C225.829 90.929 225.593 90.9915 225.286 91.0597C224.985 91.1278 224.616 91.1676 224.178 91.179C223.406 91.2017 222.71 91.0852 222.09 90.8295C221.471 90.5682 220.979 90.1648 220.616 89.6193C220.258 89.0739 220.082 88.392 220.087 87.5739V74.7727ZM228.335 91V77.9091H231.42V91H228.335ZM229.886 76.0511C229.398 76.0511 228.977 75.8892 228.625 75.5653C228.273 75.2358 228.097 74.8409 228.097 74.3807C228.097 73.9148 228.273 73.5199 228.625 73.196C228.977 72.8665 229.398 72.7017 229.886 72.7017C230.381 72.7017 230.801 72.8665 231.148 73.196C231.5 73.5199 231.676 73.9148 231.676 74.3807C231.676 74.8409 231.5 75.2358 231.148 75.5653C230.801 75.8892 230.381 76.0511 229.886 76.0511ZM240.303 91.2557C239.025 91.2557 237.917 90.9744 236.979 90.4119C236.042 89.8494 235.315 89.0625 234.798 88.0511C234.286 87.0398 234.031 85.858 234.031 84.5057C234.031 83.1534 234.286 81.9687 234.798 80.9517C235.315 79.9347 236.042 79.1449 236.979 78.5824C237.917 78.0199 239.025 77.7386 240.303 77.7386C241.582 77.7386 242.69 78.0199 243.627 78.5824C244.565 79.1449 245.289 79.9347 245.8 80.9517C246.317 81.9687 246.576 83.1534 246.576 84.5057C246.576 85.858 246.317 87.0398 245.8 88.0511C245.289 89.0625 244.565 89.8494 243.627 90.4119C242.69 90.9744 241.582 91.2557 240.303 91.2557ZM240.32 88.7841C241.013 88.7841 241.593 88.5937 242.059 88.2131C242.525 87.8267 242.871 87.3097 243.099 86.6619C243.332 86.0142 243.448 85.2926 243.448 84.4972C243.448 83.696 243.332 82.9716 243.099 82.3239C242.871 81.6705 242.525 81.1506 242.059 80.7642C241.593 80.3778 241.013 80.1847 240.32 80.1847C239.61 80.1847 239.019 80.3778 238.548 80.7642C238.082 81.1506 237.732 81.6705 237.499 82.3239C237.272 82.9716 237.158 83.696 237.158 84.4972C237.158 85.2926 237.272 86.0142 237.499 86.6619C237.732 87.3097 238.082 87.8267 238.548 88.2131C239.019 88.5937 239.61 88.7841 240.32 88.7841ZM252.28 83.3295V91H249.195V77.9091H252.143V80.1335H252.297C252.598 79.4006 253.078 78.8182 253.737 78.3864C254.402 77.9545 255.223 77.7386 256.2 77.7386C257.104 77.7386 257.891 77.9318 258.561 78.3182C259.237 78.7045 259.76 79.2642 260.129 79.9972C260.504 80.7301 260.689 81.6193 260.683 82.6648V91H257.598V83.142C257.598 82.267 257.371 81.5824 256.916 81.0881C256.467 80.5937 255.845 80.3466 255.05 80.3466C254.51 80.3466 254.03 80.4659 253.609 80.7045C253.195 80.9375 252.868 81.2756 252.629 81.7188C252.396 82.1619 252.28 82.6989 252.28 83.3295ZM114.434 102.545V120H111.272V102.545H114.434ZM120.807 112.33V120H117.722V106.909H120.671V109.134H120.824C121.125 108.401 121.605 107.818 122.265 107.386C122.929 106.955 123.75 106.739 124.728 106.739C125.631 106.739 126.418 106.932 127.088 107.318C127.765 107.705 128.287 108.264 128.657 108.997C129.032 109.73 129.216 110.619 129.211 111.665V120H126.125V112.142C126.125 111.267 125.898 110.582 125.444 110.088C124.995 109.594 124.373 109.347 123.577 109.347C123.037 109.347 122.557 109.466 122.137 109.705C121.722 109.937 121.395 110.276 121.157 110.719C120.924 111.162 120.807 111.699 120.807 112.33ZM138.978 106.909V109.295H131.239V106.909H138.978ZM133.174 120V105.673C133.174 104.793 133.355 104.06 133.719 103.474C134.088 102.889 134.583 102.452 135.202 102.162C135.821 101.872 136.509 101.727 137.265 101.727C137.799 101.727 138.273 101.77 138.688 101.855C139.103 101.94 139.409 102.017 139.608 102.085L138.995 104.472C138.864 104.432 138.699 104.392 138.5 104.352C138.301 104.307 138.08 104.284 137.836 104.284C137.262 104.284 136.855 104.423 136.617 104.702C136.384 104.974 136.267 105.366 136.267 105.878V120H133.174ZM146.697 120.256C145.385 120.256 144.251 119.983 143.297 119.438C142.348 118.886 141.618 118.108 141.106 117.102C140.595 116.091 140.339 114.901 140.339 113.531C140.339 112.185 140.595 111.003 141.106 109.986C141.623 108.963 142.345 108.168 143.271 107.599C144.197 107.026 145.285 106.739 146.535 106.739C147.342 106.739 148.103 106.869 148.819 107.131C149.541 107.386 150.177 107.784 150.728 108.324C151.285 108.864 151.723 109.551 152.041 110.386C152.359 111.216 152.518 112.205 152.518 113.352V114.298H141.788V112.219H149.561C149.555 111.628 149.427 111.102 149.177 110.642C148.927 110.176 148.578 109.81 148.129 109.543C147.686 109.276 147.169 109.142 146.578 109.142C145.947 109.142 145.393 109.295 144.916 109.602C144.439 109.903 144.066 110.301 143.799 110.795C143.538 111.284 143.404 111.821 143.399 112.406V114.222C143.399 114.983 143.538 115.636 143.816 116.182C144.095 116.722 144.484 117.136 144.984 117.426C145.484 117.71 146.069 117.852 146.74 117.852C147.189 117.852 147.595 117.79 147.958 117.665C148.322 117.534 148.637 117.344 148.904 117.094C149.172 116.844 149.373 116.534 149.51 116.165L152.39 116.489C152.208 117.25 151.862 117.915 151.35 118.483C150.845 119.045 150.197 119.483 149.407 119.795C148.618 120.102 147.714 120.256 146.697 120.256ZM155.128 120V106.909H158.12V109.091H158.256C158.495 108.335 158.904 107.753 159.483 107.344C160.069 106.929 160.736 106.722 161.486 106.722C161.657 106.722 161.847 106.73 162.057 106.747C162.273 106.759 162.452 106.778 162.594 106.807V109.645C162.463 109.599 162.256 109.56 161.972 109.526C161.694 109.486 161.424 109.466 161.162 109.466C160.6 109.466 160.094 109.588 159.645 109.832C159.202 110.071 158.853 110.403 158.597 110.83C158.341 111.256 158.213 111.747 158.213 112.304V120H155.128ZM169.9 120.256C168.588 120.256 167.454 119.983 166.5 119.438C165.551 118.886 164.821 118.108 164.309 117.102C163.798 116.091 163.542 114.901 163.542 113.531C163.542 112.185 163.798 111.003 164.309 109.986C164.826 108.963 165.548 108.168 166.474 107.599C167.4 107.026 168.488 106.739 169.738 106.739C170.545 106.739 171.306 106.869 172.022 107.131C172.744 107.386 173.38 107.784 173.931 108.324C174.488 108.864 174.926 109.551 175.244 110.386C175.562 111.216 175.721 112.205 175.721 113.352V114.298H164.991V112.219H172.764C172.758 111.628 172.63 111.102 172.38 110.642C172.13 110.176 171.781 109.81 171.332 109.543C170.889 109.276 170.372 109.142 169.781 109.142C169.15 109.142 168.596 109.295 168.119 109.602C167.642 109.903 167.27 110.301 167.002 110.795C166.741 111.284 166.608 111.821 166.602 112.406V114.222C166.602 114.983 166.741 115.636 167.02 116.182C167.298 116.722 167.687 117.136 168.187 117.426C168.687 117.71 169.272 117.852 169.943 117.852C170.392 117.852 170.798 117.79 171.162 117.665C171.525 117.534 171.841 117.344 172.108 117.094C172.375 116.844 172.576 116.534 172.713 116.165L175.593 116.489C175.412 117.25 175.065 117.915 174.554 118.483C174.048 119.045 173.4 119.483 172.61 119.795C171.821 120.102 170.917 120.256 169.9 120.256ZM181.417 112.33V120H178.331V106.909H181.28V109.134H181.434C181.735 108.401 182.215 107.818 182.874 107.386C183.539 106.955 184.36 106.739 185.337 106.739C186.24 106.739 187.027 106.932 187.698 107.318C188.374 107.705 188.897 108.264 189.266 108.997C189.641 109.73 189.826 110.619 189.82 111.665V120H186.735V112.142C186.735 111.267 186.507 110.582 186.053 110.088C185.604 109.594 184.982 109.347 184.186 109.347C183.647 109.347 183.167 109.466 182.746 109.705C182.331 109.937 182.005 110.276 181.766 110.719C181.533 111.162 181.417 111.699 181.417 112.33ZM198.667 120.256C197.36 120.256 196.238 119.969 195.3 119.395C194.368 118.821 193.65 118.028 193.144 117.017C192.644 116 192.394 114.83 192.394 113.506C192.394 112.176 192.65 111.003 193.161 109.986C193.672 108.963 194.394 108.168 195.326 107.599C196.263 107.026 197.371 106.739 198.65 106.739C199.712 106.739 200.652 106.935 201.471 107.327C202.294 107.713 202.951 108.261 203.439 108.972C203.928 109.676 204.206 110.5 204.275 111.443H201.326C201.206 110.812 200.922 110.287 200.473 109.866C200.03 109.44 199.436 109.227 198.692 109.227C198.061 109.227 197.507 109.398 197.03 109.739C196.553 110.074 196.181 110.557 195.914 111.188C195.652 111.818 195.522 112.574 195.522 113.455C195.522 114.347 195.652 115.114 195.914 115.756C196.175 116.392 196.542 116.884 197.013 117.23C197.49 117.571 198.05 117.741 198.692 117.741C199.147 117.741 199.553 117.656 199.911 117.486C200.275 117.31 200.578 117.057 200.823 116.727C201.067 116.398 201.235 115.997 201.326 115.526H204.275C204.201 116.452 203.928 117.273 203.456 117.989C202.985 118.699 202.343 119.256 201.53 119.659C200.718 120.057 199.763 120.256 198.667 120.256ZM212.603 120.256C211.291 120.256 210.157 119.983 209.203 119.438C208.254 118.886 207.524 118.108 207.012 117.102C206.501 116.091 206.245 114.901 206.245 113.531C206.245 112.185 206.501 111.003 207.012 109.986C207.529 108.963 208.251 108.168 209.177 107.599C210.103 107.026 211.191 106.739 212.441 106.739C213.248 106.739 214.01 106.869 214.725 107.131C215.447 107.386 216.083 107.784 216.635 108.324C217.191 108.864 217.629 109.551 217.947 110.386C218.265 111.216 218.424 112.205 218.424 113.352V114.298H207.694V112.219H215.467C215.461 111.628 215.333 111.102 215.083 110.642C214.833 110.176 214.484 109.81 214.035 109.543C213.592 109.276 213.075 109.142 212.484 109.142C211.853 109.142 211.299 109.295 210.822 109.602C210.345 109.903 209.973 110.301 209.706 110.795C209.444 111.284 209.311 111.821 209.305 112.406V114.222C209.305 114.983 209.444 115.636 209.723 116.182C210.001 116.722 210.39 117.136 210.89 117.426C211.39 117.71 211.975 117.852 212.646 117.852C213.095 117.852 213.501 117.79 213.865 117.665C214.228 117.534 214.544 117.344 214.811 117.094C215.078 116.844 215.279 116.534 215.416 116.165L218.297 116.489C218.115 117.25 217.768 117.915 217.257 118.483C216.751 119.045 216.103 119.483 215.314 119.795C214.524 120.102 213.62 120.256 212.603 120.256Z" fill="#363636"/>
<path d="M376.056 79.4347H372.869C372.778 78.9119 372.61 78.4489 372.366 78.0455C372.122 77.6364 371.818 77.2898 371.454 77.0057C371.091 76.7216 370.676 76.5085 370.21 76.3665C369.75 76.2188 369.252 76.1449 368.718 76.1449C367.77 76.1449 366.929 76.3835 366.196 76.8608C365.463 77.3324 364.889 78.0256 364.474 78.9403C364.059 79.8494 363.852 80.9602 363.852 82.2727C363.852 83.608 364.059 84.733 364.474 85.6477C364.895 86.5568 365.468 87.2443 366.196 87.7102C366.929 88.1705 367.767 88.4006 368.71 88.4006C369.233 88.4006 369.721 88.3324 370.176 88.196C370.636 88.054 371.048 87.8466 371.412 87.5739C371.781 87.3011 372.091 86.9659 372.341 86.5682C372.596 86.1705 372.772 85.7159 372.869 85.2045L376.056 85.2216C375.937 86.0511 375.679 86.8295 375.281 87.5568C374.889 88.2841 374.375 88.9261 373.738 89.483C373.102 90.0341 372.358 90.4659 371.505 90.7784C370.653 91.0852 369.707 91.2386 368.667 91.2386C367.133 91.2386 365.764 90.8835 364.559 90.1733C363.355 89.4631 362.406 88.4375 361.713 87.0966C361.02 85.7557 360.673 84.1477 360.673 82.2727C360.673 80.392 361.022 78.7841 361.721 77.4489C362.42 76.108 363.372 75.0824 364.576 74.3722C365.781 73.6619 367.145 73.3068 368.667 73.3068C369.639 73.3068 370.542 73.4432 371.377 73.7159C372.213 73.9886 372.957 74.3892 373.61 74.9176C374.264 75.4403 374.801 76.0824 375.221 76.8438C375.647 77.5994 375.926 78.4631 376.056 79.4347ZM381.901 83.3295V91H378.816V73.5455H381.833V80.1335H381.986C382.293 79.3949 382.767 78.8125 383.409 78.3864C384.057 77.9545 384.881 77.7386 385.881 77.7386C386.79 77.7386 387.583 77.929 388.259 78.3097C388.935 78.6903 389.458 79.2472 389.827 79.9801C390.202 80.7131 390.39 81.608 390.39 82.6648V91H387.304V83.142C387.304 82.2614 387.077 81.5767 386.623 81.0881C386.174 80.5937 385.543 80.3466 384.73 80.3466C384.185 80.3466 383.696 80.4659 383.265 80.7045C382.838 80.9375 382.503 81.2756 382.259 81.7188C382.02 82.1619 381.901 82.6989 381.901 83.3295ZM397.301 91.2642C396.472 91.2642 395.725 91.1165 395.06 90.821C394.401 90.5199 393.878 90.0767 393.492 89.4915C393.111 88.9062 392.921 88.1847 392.921 87.3267C392.921 86.5881 393.057 85.9773 393.33 85.4943C393.603 85.0114 393.975 84.625 394.446 84.3352C394.918 84.0455 395.449 83.8267 396.04 83.679C396.637 83.5256 397.253 83.4148 397.89 83.3466C398.657 83.267 399.279 83.196 399.756 83.1335C400.233 83.0653 400.58 82.9631 400.796 82.8267C401.017 82.6847 401.128 82.4659 401.128 82.1705V82.1193C401.128 81.4773 400.938 80.9801 400.557 80.6278C400.176 80.2756 399.628 80.0994 398.912 80.0994C398.157 80.0994 397.557 80.2642 397.114 80.5938C396.676 80.9233 396.381 81.3125 396.228 81.7614L393.347 81.3523C393.574 80.5568 393.949 79.892 394.472 79.358C394.995 78.8182 395.634 78.4148 396.39 78.1477C397.145 77.875 397.98 77.7386 398.895 77.7386C399.526 77.7386 400.154 77.8125 400.779 77.9602C401.404 78.108 401.975 78.3523 402.492 78.6932C403.009 79.0284 403.424 79.4858 403.736 80.0653C404.054 80.6449 404.213 81.3693 404.213 82.2386V91H401.248V89.2017H401.145C400.958 89.5653 400.694 89.9062 400.353 90.2244C400.017 90.5369 399.594 90.7898 399.083 90.983C398.577 91.1705 397.983 91.2642 397.301 91.2642ZM398.103 88.9972C398.722 88.9972 399.259 88.875 399.713 88.6307C400.168 88.3807 400.517 88.0511 400.762 87.642C401.012 87.233 401.137 86.7869 401.137 86.304V84.7614C401.04 84.8409 400.875 84.9148 400.642 84.983C400.415 85.0511 400.159 85.1108 399.875 85.1619C399.591 85.2131 399.31 85.2585 399.032 85.2983C398.753 85.3381 398.512 85.3722 398.307 85.4006C397.847 85.4631 397.435 85.5653 397.071 85.7074C396.708 85.8494 396.421 86.0483 396.211 86.304C396 86.554 395.895 86.8778 395.895 87.2756C395.895 87.8438 396.103 88.2727 396.517 88.5625C396.932 88.8523 397.461 88.9972 398.103 88.9972ZM407.316 91V77.9091H410.401V91H407.316ZM408.867 76.0511C408.378 76.0511 407.958 75.8892 407.605 75.5653C407.253 75.2358 407.077 74.8409 407.077 74.3807C407.077 73.9148 407.253 73.5199 407.605 73.196C407.958 72.8665 408.378 72.7017 408.867 72.7017C409.361 72.7017 409.782 72.8665 410.128 73.196C410.48 73.5199 410.657 73.9148 410.657 74.3807C410.657 74.8409 410.48 75.2358 410.128 75.5653C409.782 75.8892 409.361 76.0511 408.867 76.0511ZM416.659 83.3295V91H413.574V77.9091H416.522V80.1335H416.676C416.977 79.4006 417.457 78.8182 418.116 78.3864C418.781 77.9545 419.602 77.7386 420.579 77.7386C421.483 77.7386 422.27 77.9318 422.94 78.3182C423.616 78.7045 424.139 79.2642 424.508 79.9972C424.883 80.7301 425.068 81.6193 425.062 82.6648V91H421.977V83.142C421.977 82.267 421.75 81.5824 421.295 81.0881C420.846 80.5937 420.224 80.3466 419.429 80.3466C418.889 80.3466 418.409 80.4659 417.988 80.7045C417.574 80.9375 417.247 81.2756 417.008 81.7188C416.775 82.1619 416.659 82.6989 416.659 83.3295ZM436.133 82.4602V85H428.275V82.4602H436.133ZM445.088 91.2557C443.81 91.2557 442.702 90.9744 441.765 90.4119C440.827 89.8494 440.1 89.0625 439.583 88.0511C439.071 87.0398 438.816 85.858 438.816 84.5057C438.816 83.1534 439.071 81.9687 439.583 80.9517C440.1 79.9347 440.827 79.1449 441.765 78.5824C442.702 78.0199 443.81 77.7386 445.088 77.7386C446.367 77.7386 447.475 78.0199 448.412 78.5824C449.35 79.1449 450.074 79.9347 450.586 80.9517C451.103 81.9687 451.361 83.1534 451.361 84.5057C451.361 85.858 451.103 87.0398 450.586 88.0511C450.074 89.0625 449.35 89.8494 448.412 90.4119C447.475 90.9744 446.367 91.2557 445.088 91.2557ZM445.105 88.7841C445.799 88.7841 446.378 88.5937 446.844 88.2131C447.31 87.8267 447.657 87.3097 447.884 86.6619C448.117 86.0142 448.233 85.2926 448.233 84.4972C448.233 83.696 448.117 82.9716 447.884 82.3239C447.657 81.6705 447.31 81.1506 446.844 80.7642C446.378 80.3778 445.799 80.1847 445.105 80.1847C444.395 80.1847 443.804 80.3778 443.333 80.7642C442.867 81.1506 442.517 81.6705 442.284 82.3239C442.057 82.9716 441.944 83.696 441.944 84.4972C441.944 85.2926 442.057 86.0142 442.284 86.6619C442.517 87.3097 442.867 87.8267 443.333 88.2131C443.804 88.5937 444.395 88.7841 445.105 88.7841ZM460.61 77.9091V80.2955H452.872V77.9091H460.61ZM454.806 91V76.6733C454.806 75.7926 454.988 75.0597 455.352 74.4744C455.721 73.8892 456.216 73.4517 456.835 73.1619C457.454 72.8722 458.142 72.7273 458.897 72.7273C459.431 72.7273 459.906 72.7699 460.321 72.8551C460.735 72.9403 461.042 73.017 461.241 73.0852L460.627 75.4716C460.497 75.4318 460.332 75.392 460.133 75.3523C459.934 75.3068 459.713 75.2841 459.468 75.2841C458.895 75.2841 458.488 75.4233 458.25 75.7017C458.017 75.9744 457.9 76.3665 457.9 76.8778V91H454.806ZM470.422 82.4602V85H462.564V82.4602H470.422ZM471.958 76.196V73.5455H485.885V76.196H480.49V91H477.353V76.196H471.958ZM491.518 83.3295V91H488.433V73.5455H491.45V80.1335H491.603C491.91 79.3949 492.385 78.8125 493.027 78.3864C493.674 77.9545 494.498 77.7386 495.498 77.7386C496.407 77.7386 497.2 77.929 497.876 78.3097C498.552 78.6903 499.075 79.2472 499.444 79.9801C499.819 80.7131 500.007 81.608 500.007 82.6648V91H496.922V83.142C496.922 82.2614 496.694 81.5767 496.24 81.0881C495.791 80.5937 495.16 80.3466 494.348 80.3466C493.802 80.3466 493.314 80.4659 492.882 80.7045C492.456 80.9375 492.12 81.2756 491.876 81.7188C491.637 82.1619 491.518 82.6989 491.518 83.3295ZM508.862 91.2557C507.583 91.2557 506.475 90.9744 505.538 90.4119C504.6 89.8494 503.873 89.0625 503.356 88.0511C502.845 87.0398 502.589 85.858 502.589 84.5057C502.589 83.1534 502.845 81.9687 503.356 80.9517C503.873 79.9347 504.6 79.1449 505.538 78.5824C506.475 78.0199 507.583 77.7386 508.862 77.7386C510.14 77.7386 511.248 78.0199 512.186 78.5824C513.123 79.1449 513.848 79.9347 514.359 80.9517C514.876 81.9687 515.135 83.1534 515.135 84.5057C515.135 85.858 514.876 87.0398 514.359 88.0511C513.848 89.0625 513.123 89.8494 512.186 90.4119C511.248 90.9744 510.14 91.2557 508.862 91.2557ZM508.879 88.7841C509.572 88.7841 510.152 88.5937 510.618 88.2131C511.083 87.8267 511.43 87.3097 511.657 86.6619C511.89 86.0142 512.007 85.2926 512.007 84.4972C512.007 83.696 511.89 82.9716 511.657 82.3239C511.43 81.6705 511.083 81.1506 510.618 80.7642C510.152 80.3778 509.572 80.1847 508.879 80.1847C508.169 80.1847 507.578 80.3778 507.106 80.7642C506.64 81.1506 506.291 81.6705 506.058 82.3239C505.831 82.9716 505.717 83.696 505.717 84.4972C505.717 85.2926 505.831 86.0142 506.058 86.6619C506.291 87.3097 506.64 87.8267 507.106 88.2131C507.578 88.5937 508.169 88.7841 508.879 88.7841ZM526.097 85.4943V77.9091H529.182V91H526.191V88.6733H526.054C525.759 89.4062 525.273 90.0057 524.597 90.4716C523.926 90.9375 523.1 91.1705 522.117 91.1705C521.259 91.1705 520.5 90.9801 519.841 90.5994C519.188 90.2131 518.676 89.6534 518.307 88.9205C517.938 88.1818 517.753 87.2898 517.753 86.2443V77.9091H520.838V85.767C520.838 86.5966 521.066 87.2557 521.52 87.7443C521.975 88.233 522.571 88.4773 523.31 88.4773C523.765 88.4773 524.205 88.3665 524.631 88.1449C525.057 87.9233 525.407 87.5938 525.679 87.1562C525.958 86.7131 526.097 86.1591 526.097 85.4943ZM538.048 96.1818C536.94 96.1818 535.988 96.0313 535.193 95.7301C534.397 95.4347 533.758 95.0369 533.275 94.5369C532.792 94.0369 532.457 93.483 532.27 92.875L535.048 92.2017C535.173 92.4574 535.355 92.7102 535.593 92.9602C535.832 93.2159 536.153 93.4261 536.556 93.5909C536.966 93.7614 537.48 93.8466 538.099 93.8466C538.974 93.8466 539.699 93.6335 540.272 93.2074C540.846 92.7869 541.133 92.0938 541.133 91.1278V88.6477H540.98C540.821 88.9659 540.588 89.2926 540.281 89.6278C539.98 89.9631 539.579 90.2443 539.079 90.4716C538.585 90.6989 537.963 90.8125 537.213 90.8125C536.207 90.8125 535.295 90.5767 534.477 90.1051C533.664 89.6278 533.017 88.9176 532.534 87.9744C532.056 87.0256 531.818 85.8381 531.818 84.4119C531.818 82.9744 532.056 81.7614 532.534 80.7727C533.017 79.7784 533.667 79.0256 534.485 78.5142C535.304 77.9972 536.216 77.7386 537.221 77.7386C537.988 77.7386 538.619 77.8693 539.113 78.1307C539.613 78.3864 540.011 78.696 540.306 79.0597C540.602 79.4176 540.826 79.7557 540.98 80.0739H541.15V77.9091H544.193V91.2131C544.193 92.3324 543.926 93.2585 543.392 93.9915C542.858 94.7244 542.127 95.2727 541.201 95.6364C540.275 96 539.224 96.1818 538.048 96.1818ZM538.074 88.392C538.727 88.392 539.284 88.233 539.744 87.9148C540.204 87.5966 540.554 87.1392 540.792 86.5426C541.031 85.946 541.15 85.2301 541.15 84.3949C541.15 83.571 541.031 82.8494 540.792 82.2301C540.559 81.6108 540.213 81.1307 539.752 80.7898C539.298 80.4432 538.738 80.2699 538.074 80.2699C537.386 80.2699 536.812 80.4489 536.352 80.8068C535.892 81.1648 535.545 81.6562 535.312 82.2812C535.079 82.9006 534.963 83.6051 534.963 84.3949C534.963 85.196 535.079 85.8977 535.312 86.5C535.551 87.0966 535.9 87.5625 536.36 87.8977C536.826 88.2273 537.397 88.392 538.074 88.392ZM550.44 83.3295V91H547.355V73.5455H550.372V80.1335H550.525C550.832 79.3949 551.306 78.8125 551.949 78.3864C552.596 77.9545 553.42 77.7386 554.42 77.7386C555.329 77.7386 556.122 77.929 556.798 78.3097C557.474 78.6903 557.997 79.2472 558.366 79.9801C558.741 80.7131 558.929 81.608 558.929 82.6648V91H555.843V83.142C555.843 82.2614 555.616 81.5767 555.162 81.0881C554.713 80.5937 554.082 80.3466 553.27 80.3466C552.724 80.3466 552.235 80.4659 551.804 80.7045C551.377 80.9375 551.042 81.2756 550.798 81.7188C550.559 82.1619 550.44 82.6989 550.44 83.3295ZM568.61 77.9091V80.2955H561.085V77.9091H568.61ZM562.943 74.7727H566.028V87.0625C566.028 87.4773 566.091 87.7955 566.216 88.017C566.346 88.233 566.517 88.3807 566.727 88.4602C566.937 88.5398 567.17 88.5795 567.426 88.5795C567.619 88.5795 567.795 88.5653 567.954 88.5369C568.119 88.5085 568.244 88.483 568.329 88.4602L568.849 90.8722C568.684 90.929 568.449 90.9915 568.142 91.0597C567.841 91.1278 567.471 91.1676 567.034 91.179C566.261 91.2017 565.565 91.0852 564.946 90.8295C564.326 90.5682 563.835 90.1648 563.471 89.6193C563.113 89.0739 562.937 88.392 562.943 87.5739V74.7727ZM414.434 102.545V120H411.272V102.545H414.434ZM420.807 112.33V120H417.722V106.909H420.671V109.134H420.824C421.125 108.401 421.605 107.818 422.265 107.386C422.929 106.955 423.75 106.739 424.728 106.739C425.631 106.739 426.418 106.932 427.088 107.318C427.765 107.705 428.287 108.264 428.657 108.997C429.032 109.73 429.216 110.619 429.211 111.665V120H426.125V112.142C426.125 111.267 425.898 110.582 425.444 110.088C424.995 109.594 424.373 109.347 423.577 109.347C423.037 109.347 422.557 109.466 422.137 109.705C421.722 109.937 421.395 110.276 421.157 110.719C420.924 111.162 420.807 111.699 420.807 112.33ZM438.978 106.909V109.295H431.239V106.909H438.978ZM433.174 120V105.673C433.174 104.793 433.355 104.06 433.719 103.474C434.088 102.889 434.583 102.452 435.202 102.162C435.821 101.872 436.509 101.727 437.265 101.727C437.799 101.727 438.273 101.77 438.688 101.855C439.103 101.94 439.409 102.017 439.608 102.085L438.995 104.472C438.864 104.432 438.699 104.392 438.5 104.352C438.301 104.307 438.08 104.284 437.836 104.284C437.262 104.284 436.855 104.423 436.617 104.702C436.384 104.974 436.267 105.366 436.267 105.878V120H433.174ZM446.697 120.256C445.385 120.256 444.251 119.983 443.297 119.438C442.348 118.886 441.618 118.108 441.106 117.102C440.595 116.091 440.339 114.901 440.339 113.531C440.339 112.185 440.595 111.003 441.106 109.986C441.623 108.963 442.345 108.168 443.271 107.599C444.197 107.026 445.285 106.739 446.535 106.739C447.342 106.739 448.103 106.869 448.819 107.131C449.541 107.386 450.177 107.784 450.728 108.324C451.285 108.864 451.723 109.551 452.041 110.386C452.359 111.216 452.518 112.205 452.518 113.352V114.298H441.788V112.219H449.561C449.555 111.628 449.427 111.102 449.177 110.642C448.927 110.176 448.578 109.81 448.129 109.543C447.686 109.276 447.169 109.142 446.578 109.142C445.947 109.142 445.393 109.295 444.916 109.602C444.439 109.903 444.066 110.301 443.799 110.795C443.538 111.284 443.404 111.821 443.399 112.406V114.222C443.399 114.983 443.538 115.636 443.816 116.182C444.095 116.722 444.484 117.136 444.984 117.426C445.484 117.71 446.069 117.852 446.74 117.852C447.189 117.852 447.595 117.79 447.958 117.665C448.322 117.534 448.637 117.344 448.904 117.094C449.172 116.844 449.373 116.534 449.51 116.165L452.39 116.489C452.208 117.25 451.862 117.915 451.35 118.483C450.845 119.045 450.197 119.483 449.407 119.795C448.618 120.102 447.714 120.256 446.697 120.256ZM455.128 120V106.909H458.12V109.091H458.256C458.495 108.335 458.904 107.753 459.483 107.344C460.069 106.929 460.736 106.722 461.486 106.722C461.657 106.722 461.847 106.73 462.057 106.747C462.273 106.759 462.452 106.778 462.594 106.807V109.645C462.463 109.599 462.256 109.56 461.972 109.526C461.694 109.486 461.424 109.466 461.162 109.466C460.6 109.466 460.094 109.588 459.645 109.832C459.202 110.071 458.853 110.403 458.597 110.83C458.341 111.256 458.213 111.747 458.213 112.304V120H455.128ZM469.9 120.256C468.588 120.256 467.454 119.983 466.5 119.438C465.551 118.886 464.821 118.108 464.309 117.102C463.798 116.091 463.542 114.901 463.542 113.531C463.542 112.185 463.798 111.003 464.309 109.986C464.826 108.963 465.548 108.168 466.474 107.599C467.4 107.026 468.488 106.739 469.738 106.739C470.545 106.739 471.306 106.869 472.022 107.131C472.744 107.386 473.38 107.784 473.931 108.324C474.488 108.864 474.926 109.551 475.244 110.386C475.562 111.216 475.721 112.205 475.721 113.352V114.298H464.991V112.219H472.764C472.758 111.628 472.63 111.102 472.38 110.642C472.13 110.176 471.781 109.81 471.332 109.543C470.889 109.276 470.372 109.142 469.781 109.142C469.15 109.142 468.596 109.295 468.119 109.602C467.642 109.903 467.27 110.301 467.002 110.795C466.741 111.284 466.608 111.821 466.602 112.406V114.222C466.602 114.983 466.741 115.636 467.02 116.182C467.298 116.722 467.687 117.136 468.187 117.426C468.687 117.71 469.272 117.852 469.943 117.852C470.392 117.852 470.798 117.79 471.162 117.665C471.525 117.534 471.841 117.344 472.108 117.094C472.375 116.844 472.576 116.534 472.713 116.165L475.593 116.489C475.412 117.25 475.065 117.915 474.554 118.483C474.048 119.045 473.4 119.483 472.61 119.795C471.821 120.102 470.917 120.256 469.9 120.256ZM481.417 112.33V120H478.331V106.909H481.28V109.134H481.434C481.735 108.401 482.215 107.818 482.874 107.386C483.539 106.955 484.36 106.739 485.337 106.739C486.24 106.739 487.027 106.932 487.698 107.318C488.374 107.705 488.897 108.264 489.266 108.997C489.641 109.73 489.826 110.619 489.82 111.665V120H486.735V112.142C486.735 111.267 486.507 110.582 486.053 110.088C485.604 109.594 484.982 109.347 484.186 109.347C483.647 109.347 483.167 109.466 482.746 109.705C482.331 109.937 482.005 110.276 481.766 110.719C481.533 111.162 481.417 111.699 481.417 112.33ZM498.667 120.256C497.36 120.256 496.238 119.969 495.3 119.395C494.368 118.821 493.65 118.028 493.144 117.017C492.644 116 492.394 114.83 492.394 113.506C492.394 112.176 492.65 111.003 493.161 109.986C493.672 108.963 494.394 108.168 495.326 107.599C496.263 107.026 497.371 106.739 498.65 106.739C499.712 106.739 500.652 106.935 501.471 107.327C502.294 107.713 502.951 108.261 503.439 108.972C503.928 109.676 504.206 110.5 504.275 111.443H501.326C501.206 110.812 500.922 110.287 500.473 109.866C500.03 109.44 499.436 109.227 498.692 109.227C498.061 109.227 497.507 109.398 497.03 109.739C496.553 110.074 496.181 110.557 495.914 111.188C495.652 111.818 495.522 112.574 495.522 113.455C495.522 114.347 495.652 115.114 495.914 115.756C496.175 116.392 496.542 116.884 497.013 117.23C497.49 117.571 498.05 117.741 498.692 117.741C499.147 117.741 499.553 117.656 499.911 117.486C500.275 117.31 500.578 117.057 500.823 116.727C501.067 116.398 501.235 115.997 501.326 115.526H504.275C504.201 116.452 503.928 117.273 503.456 117.989C502.985 118.699 502.343 119.256 501.53 119.659C500.718 120.057 499.763 120.256 498.667 120.256ZM512.603 120.256C511.291 120.256 510.157 119.983 509.203 119.438C508.254 118.886 507.524 118.108 507.012 117.102C506.501 116.091 506.245 114.901 506.245 113.531C506.245 112.185 506.501 111.003 507.012 109.986C507.529 108.963 508.251 108.168 509.177 107.599C510.103 107.026 511.191 106.739 512.441 106.739C513.248 106.739 514.01 106.869 514.725 107.131C515.447 107.386 516.083 107.784 516.635 108.324C517.191 108.864 517.629 109.551 517.947 110.386C518.265 111.216 518.424 112.205 518.424 113.352V114.298H507.694V112.219H515.467C515.461 111.628 515.333 111.102 515.083 110.642C514.833 110.176 514.484 109.81 514.035 109.543C513.592 109.276 513.075 109.142 512.484 109.142C511.853 109.142 511.299 109.295 510.822 109.602C510.345 109.903 509.973 110.301 509.706 110.795C509.444 111.284 509.311 111.821 509.305 112.406V114.222C509.305 114.983 509.444 115.636 509.723 116.182C510.001 116.722 510.39 117.136 510.89 117.426C511.39 117.71 511.975 117.852 512.646 117.852C513.095 117.852 513.501 117.79 513.865 117.665C514.228 117.534 514.544 117.344 514.811 117.094C515.078 116.844 515.279 116.534 515.416 116.165L518.297 116.489C518.115 117.25 517.768 117.915 517.257 118.483C516.751 119.045 516.103 119.483 515.314 119.795C514.524 120.102 513.62 120.256 512.603 120.256Z" fill="#363636"/>
<defs>
<linearGradient id="paint0_linear_665_211" x1="65.0849" y1="320.833" x2="134.346" y2="472.779" gradientUnits="userSpaceOnUse">
<stop stop-color="#FFB56D"/>
<stop offset="1" stop-color="#FF8A32"/>
</linearGradient>
<linearGradient id="paint1_linear_665_211" x1="65.0849" y1="170.833" x2="134.346" y2="322.779" gradientUnits="userSpaceOnUse">
<stop stop-color="#FFB56D"/>
<stop offset="1" stop-color="#FF8A32"/>
</linearGradient>
<linearGradient id="paint2_linear_665_211" x1="365.085" y1="170.833" x2="434.346" y2="322.779" gradientUnits="userSpaceOnUse">
<stop stop-color="#FFB56D"/>
<stop offset="1" stop-color="#FF8A32"/>
</linearGradient>
<linearGradient id="paint3_linear_665_211" x1="365.085" y1="470.833" x2="434.346" y2="622.779" gradientUnits="userSpaceOnUse">
<stop stop-color="#FFB56D"/>
<stop offset="1" stop-color="#FF8A32"/>
</linearGradient>
<linearGradient id="paint4_linear_665_211" x1="365" y1="320.833" x2="444.664" y2="480.802" gradientUnits="userSpaceOnUse">
<stop stop-color="#D9D9D9"/>
<stop offset="1" stop-color="#C8C8C8"/>
</linearGradient>
</defs>
</svg>
