<svg width="500" height="500" viewBox="0 0 500 500" fill="none" xmlns="http://www.w3.org/2000/svg">
<circle cx="250" cy="250" r="250" fill="#FF4F00"/>
<path d="M340 282.765C340 300.469 337.964 316.198 333.892 329.954C329.82 343.582 323.966 355.045 316.331 364.343C308.696 373.768 299.343 380.9 288.271 385.74C277.2 390.58 264.539 393 250.286 393C236.161 393 223.499 390.644 212.301 385.931C201.103 381.091 191.622 373.895 183.86 364.343C176.098 355.045 170.18 343.582 166.108 329.954C162.036 316.198 160 300.469 160 282.765V217.617C160 199.913 162.036 184.247 166.108 170.619C170.18 156.864 176.098 145.273 183.86 135.848C191.495 126.423 200.848 119.291 211.919 114.451C223.118 109.484 235.779 107 249.905 107C264.157 107 276.819 109.484 287.89 114.451C299.088 119.291 308.568 126.423 316.331 135.848C323.966 145.273 329.82 156.864 333.892 170.619C337.964 184.247 340 199.913 340 217.617V282.765ZM195.504 275.696L303.733 192.59C302.715 183.42 300.87 175.332 298.197 168.327C295.652 161.194 292.153 155.272 287.699 150.559C283.372 145.719 278.028 142.089 271.665 139.669C265.429 137.249 258.176 136.039 249.905 136.039C241.506 136.039 234.062 137.377 227.572 140.051C221.209 142.599 215.801 146.356 211.347 151.323C206.002 157.564 201.994 165.652 199.321 175.587C196.776 185.394 195.504 196.793 195.504 209.784V256.4C195.504 259.584 195.504 262.768 195.504 265.953C195.504 269.137 195.504 272.385 195.504 275.696ZM304.496 290.216V250.86C304.496 248.949 304.496 245.319 304.496 239.97C304.496 234.493 304.496 229.972 304.496 226.405L196.458 309.13C197.603 318.427 199.639 326.642 202.566 333.775C205.493 340.78 209.311 346.575 214.019 351.16C218.346 355.491 223.563 358.802 229.671 361.095C235.779 363.26 242.651 364.343 250.286 364.343C258.303 364.343 265.429 363.133 271.665 360.713C277.9 358.293 283.181 354.79 287.508 350.205C293.362 343.964 297.625 335.813 300.297 325.751C303.096 315.689 304.496 303.844 304.496 290.216Z" fill="#FFFFFF"/>
</svg>
