<svg width="150" height="150" viewBox="0 0 150 150" fill="none" xmlns="http://www.w3.org/2000/svg">
<circle cx="75" cy="75" r="75" fill="white"/>
<path d="M77.9621 36C90.0474 36 100 45.7943 100 57.8306V92.1694C100 104.206 90.0474 114 77.9621 114H71.9194C59.8341 114 50 104.206 50 92.1694V57.8306C50 45.7943 59.8341 36 71.9194 36H77.9621ZM90.4028 89.8094V60.1906C90.4028 52.0484 83.7678 45.4402 75.5924 45.4402H74.2891C66.1137 45.4402 59.4787 52.0484 59.4787 60.1906V89.8094C59.4787 97.9516 66.1137 104.56 74.2891 104.56H75.5924C83.7678 104.56 90.4028 97.9516 90.4028 89.8094Z" fill="#FF4F00"/>
<path d="M90.0828 52.1828L96.8944 58.996L59.9172 95.9819L53.1056 89.1687L90.0828 52.1828Z" fill="#FF4F00"/>
</svg>
